<mxfile host="Electron" agent="Mozilla/5.0 (Windows NT 10.0; Win64; x64) AppleWebKit/537.36 (KHTML, like Gecko) draw.io/27.0.9 Chrome/134.0.6998.205 Electron/35.4.0 Safari/537.36" version="27.0.9">
  <diagram name="第 1 页" id="ErbWHbfwzzEeGTyl5nCk">
    <mxGraphModel dx="2431" dy="1413" grid="1" gridSize="10" guides="1" tooltips="1" connect="1" arrows="1" fold="1" page="1" pageScale="1" pageWidth="1169" pageHeight="1654" math="0" shadow="0">
      <root>
        <mxCell id="0" />
        <mxCell id="1" parent="0" />
        <mxCell id="Rfl5-FTgtZp-7Mx7iqGK-1" value="" style="shape=table;startSize=0;container=1;collapsible=0;childLayout=tableLayout;fixedRows=1;rowLines=0;fontStyle=0;strokeColor=#6c8ebf;fontSize=16;spacing=4;spacingTop=0;spacingLeft=0;spacingBottom=0;strokeWidth=2;fillColor=none;" vertex="1" parent="1">
          <mxGeometry x="85.00000000000023" y="199" width="695" height="101" as="geometry" />
        </mxCell>
        <mxCell id="Rfl5-FTgtZp-7Mx7iqGK-2" value="" style="shape=tableRow;horizontal=0;startSize=0;swimlaneHead=0;swimlaneBody=0;top=0;left=0;bottom=0;right=0;collapsible=0;dropTarget=0;fillColor=none;points=[[0,0.5],[1,0.5]];portConstraint=eastwest;strokeColor=inherit;fontSize=16;spacing=4;spacingTop=0;spacingLeft=0;spacingBottom=0;" vertex="1" parent="Rfl5-FTgtZp-7Mx7iqGK-1">
          <mxGeometry width="695" height="51" as="geometry" />
        </mxCell>
        <mxCell id="Rfl5-FTgtZp-7Mx7iqGK-3" value="定义单个模块参数" style="shape=partialRectangle;html=1;whiteSpace=wrap;connectable=0;fillColor=#d5e8d4;top=0;left=0;bottom=0;right=0;overflow=hidden;strokeColor=#82b366;fontSize=16;fontStyle=1;align=left;spacing=4;spacingTop=0;spacingLeft=0;spacingBottom=0;" vertex="1" parent="Rfl5-FTgtZp-7Mx7iqGK-2">
          <mxGeometry width="175" height="51" as="geometry">
            <mxRectangle width="175" height="51" as="alternateBounds" />
          </mxGeometry>
        </mxCell>
        <mxCell id="Rfl5-FTgtZp-7Mx7iqGK-4" value="&lt;div&gt;#define &lt;b&gt;module_param&lt;/b&gt;(name, type, perm)&lt;span style=&quot;white-space:pre&quot;&gt;&#x9;&#x9;&#x9;&#x9;&lt;/span&gt;\&lt;/div&gt;&lt;div&gt;&lt;span style=&quot;white-space: normal;&quot;&gt;&lt;span style=&quot;white-space:pre&quot;&gt;&#x9;&lt;/span&gt;module_param_named(name, name, type, perm)&lt;/span&gt;&lt;/div&gt;" style="shape=partialRectangle;html=1;whiteSpace=wrap;connectable=0;fillColor=#d5e8d4;top=0;left=0;bottom=0;right=0;align=left;spacingLeft=0;overflow=hidden;strokeColor=#82b366;fontSize=16;spacing=4;spacingTop=0;spacingBottom=0;strokeWidth=1;" vertex="1" parent="Rfl5-FTgtZp-7Mx7iqGK-2">
          <mxGeometry x="175" width="520" height="51" as="geometry">
            <mxRectangle width="520" height="51" as="alternateBounds" />
          </mxGeometry>
        </mxCell>
        <mxCell id="Rfl5-FTgtZp-7Mx7iqGK-5" value="" style="shape=tableRow;horizontal=0;startSize=0;swimlaneHead=0;swimlaneBody=0;top=0;left=0;bottom=0;right=0;collapsible=0;dropTarget=0;fillColor=none;points=[[0,0.5],[1,0.5]];portConstraint=eastwest;strokeColor=inherit;fontSize=16;spacing=4;spacingTop=0;spacingLeft=0;spacingBottom=0;" vertex="1" parent="Rfl5-FTgtZp-7Mx7iqGK-1">
          <mxGeometry y="51" width="695" height="50" as="geometry" />
        </mxCell>
        <mxCell id="Rfl5-FTgtZp-7Mx7iqGK-6" value="定义数组类型的&lt;br&gt;模块参数" style="shape=partialRectangle;html=1;whiteSpace=wrap;connectable=0;fillColor=#fff2cc;top=0;left=0;bottom=0;right=0;overflow=hidden;strokeColor=#d6b656;fontSize=16;fontStyle=1;align=left;spacing=4;spacingTop=0;spacingLeft=0;spacingBottom=0;" vertex="1" parent="Rfl5-FTgtZp-7Mx7iqGK-5">
          <mxGeometry width="175" height="50" as="geometry">
            <mxRectangle width="175" height="50" as="alternateBounds" />
          </mxGeometry>
        </mxCell>
        <mxCell id="Rfl5-FTgtZp-7Mx7iqGK-7" value="&lt;div&gt;#define &lt;b&gt;module_param_array&lt;/b&gt;(name, type, nump, perm)&lt;span style=&quot;white-space:pre&quot;&gt;&#x9;&#x9;&lt;/span&gt;\&lt;/div&gt;&lt;div&gt;&lt;span style=&quot;white-space: normal;&quot;&gt;&lt;span style=&quot;white-space:pre&quot;&gt;&#x9;&lt;/span&gt;module_param_array_named(name, name, type, nump, perm)&lt;/span&gt;&lt;/div&gt;" style="shape=partialRectangle;html=1;whiteSpace=wrap;connectable=0;fillColor=#fff2cc;top=0;left=0;bottom=0;right=0;align=left;spacingLeft=0;overflow=hidden;strokeColor=#d6b656;fontSize=16;spacing=4;spacingTop=0;spacingBottom=0;strokeWidth=1;" vertex="1" parent="Rfl5-FTgtZp-7Mx7iqGK-5">
          <mxGeometry x="175" width="520" height="50" as="geometry">
            <mxRectangle width="520" height="50" as="alternateBounds" />
          </mxGeometry>
        </mxCell>
        <mxCell id="Rfl5-FTgtZp-7Mx7iqGK-14" value="&lt;h1&gt;&lt;font style=&quot;font-size: 18px;&quot;&gt;传参相关宏定义&lt;/font&gt;&lt;/h1&gt;" style="rounded=0;whiteSpace=wrap;html=1;fontSize=16;fillColor=#dae8fc;strokeColor=#6c8ebf;strokeWidth=2;" vertex="1" parent="1">
          <mxGeometry x="85" y="160" width="695" height="39" as="geometry" />
        </mxCell>
        <mxCell id="Rfl5-FTgtZp-7Mx7iqGK-15" value="&lt;font color=&quot;#ff0000&quot;&gt;&lt;span style=&quot;font-size: 18px;&quot;&gt;module_param&lt;/span&gt;&lt;/font&gt;" style="swimlane;fontStyle=1;align=center;verticalAlign=top;childLayout=stackLayout;horizontal=1;startSize=30;horizontalStack=0;resizeParent=1;resizeParentMax=0;resizeLast=0;collapsible=1;marginBottom=0;whiteSpace=wrap;html=1;fillColor=#d5e8d4;strokeColor=#82b366;" vertex="1" parent="1">
          <mxGeometry x="192.5" y="320" width="480" height="108" as="geometry" />
        </mxCell>
        <mxCell id="Rfl5-FTgtZp-7Mx7iqGK-18" value="&lt;b&gt;name ：&lt;/b&gt;参数名称，必须已定义" style="text;strokeColor=none;fillColor=none;align=left;verticalAlign=top;spacingLeft=4;spacingRight=4;overflow=hidden;rotatable=0;points=[[0,0.5],[1,0.5]];portConstraint=eastwest;whiteSpace=wrap;html=1;fontSize=16;" vertex="1" parent="Rfl5-FTgtZp-7Mx7iqGK-15">
          <mxGeometry y="30" width="480" height="26" as="geometry" />
        </mxCell>
        <mxCell id="Rfl5-FTgtZp-7Mx7iqGK-19" value="&lt;b&gt;type&amp;nbsp; &amp;nbsp;：&lt;/b&gt;参数类型" style="text;strokeColor=none;fillColor=none;align=left;verticalAlign=top;spacingLeft=4;spacingRight=4;overflow=hidden;rotatable=0;points=[[0,0.5],[1,0.5]];portConstraint=eastwest;whiteSpace=wrap;html=1;fontSize=16;" vertex="1" parent="Rfl5-FTgtZp-7Mx7iqGK-15">
          <mxGeometry y="56" width="480" height="26" as="geometry" />
        </mxCell>
        <mxCell id="Rfl5-FTgtZp-7Mx7iqGK-21" value="&lt;span&gt;&lt;b&gt;perm&amp;nbsp;&amp;nbsp;&lt;/b&gt;&lt;/span&gt;&lt;b&gt;：&lt;/b&gt;&lt;span&gt;文件（属性）权限，以&lt;b&gt;/sys/module/模块名/param&lt;/b&gt;存在&lt;/span&gt;" style="text;strokeColor=none;fillColor=none;align=left;verticalAlign=top;spacingLeft=4;spacingRight=4;overflow=hidden;rotatable=0;points=[[0,0.5],[1,0.5]];portConstraint=eastwest;whiteSpace=wrap;html=1;fontSize=16;" vertex="1" parent="Rfl5-FTgtZp-7Mx7iqGK-15">
          <mxGeometry y="82" width="480" height="26" as="geometry" />
        </mxCell>
        <mxCell id="Rfl5-FTgtZp-7Mx7iqGK-24" style="edgeStyle=orthogonalEdgeStyle;rounded=0;orthogonalLoop=1;jettySize=auto;html=1;fillColor=#d5e8d4;strokeColor=#82b366;strokeWidth=2;entryX=0;entryY=0.185;entryDx=0;entryDy=0;entryPerimeter=0;" edge="1" parent="1" source="Rfl5-FTgtZp-7Mx7iqGK-2" target="Rfl5-FTgtZp-7Mx7iqGK-15">
          <mxGeometry relative="1" as="geometry" />
        </mxCell>
        <mxCell id="Rfl5-FTgtZp-7Mx7iqGK-25" value="&lt;font color=&quot;#ff0000&quot;&gt;&lt;span style=&quot;font-size: 18px;&quot;&gt;module_param_array&lt;/span&gt;&lt;/font&gt;" style="swimlane;fontStyle=1;align=center;verticalAlign=top;childLayout=stackLayout;horizontal=1;startSize=30;horizontalStack=0;resizeParent=1;resizeParentMax=0;resizeLast=0;collapsible=1;marginBottom=0;whiteSpace=wrap;html=1;fillColor=#fff2cc;strokeColor=#d6b656;" vertex="1" parent="1">
          <mxGeometry x="192.5" y="460" width="480" height="134" as="geometry" />
        </mxCell>
        <mxCell id="Rfl5-FTgtZp-7Mx7iqGK-26" value="&lt;b&gt;name ：&lt;/b&gt;参数名称，必须已定义" style="text;strokeColor=none;fillColor=none;align=left;verticalAlign=top;spacingLeft=4;spacingRight=4;overflow=hidden;rotatable=0;points=[[0,0.5],[1,0.5]];portConstraint=eastwest;whiteSpace=wrap;html=1;fontSize=16;" vertex="1" parent="Rfl5-FTgtZp-7Mx7iqGK-25">
          <mxGeometry y="30" width="480" height="26" as="geometry" />
        </mxCell>
        <mxCell id="Rfl5-FTgtZp-7Mx7iqGK-27" value="&lt;b&gt;type&amp;nbsp; &amp;nbsp;：&lt;/b&gt;参数类型（&lt;b&gt;数组元素类型&lt;/b&gt;）" style="text;strokeColor=none;fillColor=none;align=left;verticalAlign=top;spacingLeft=4;spacingRight=4;overflow=hidden;rotatable=0;points=[[0,0.5],[1,0.5]];portConstraint=eastwest;whiteSpace=wrap;html=1;fontSize=16;" vertex="1" parent="Rfl5-FTgtZp-7Mx7iqGK-25">
          <mxGeometry y="56" width="480" height="26" as="geometry" />
        </mxCell>
        <mxCell id="Rfl5-FTgtZp-7Mx7iqGK-28" value="&lt;span&gt;&lt;b&gt;nump&amp;nbsp;&amp;nbsp;&lt;/b&gt;&lt;/span&gt;&lt;b&gt;：&lt;/b&gt;&lt;span&gt;文指向数组元素个数的变量指针&lt;/span&gt;" style="text;strokeColor=none;fillColor=none;align=left;verticalAlign=top;spacingLeft=4;spacingRight=4;overflow=hidden;rotatable=0;points=[[0,0.5],[1,0.5]];portConstraint=eastwest;whiteSpace=wrap;html=1;fontSize=16;" vertex="1" parent="Rfl5-FTgtZp-7Mx7iqGK-25">
          <mxGeometry y="82" width="480" height="26" as="geometry" />
        </mxCell>
        <mxCell id="Rfl5-FTgtZp-7Mx7iqGK-29" value="&lt;span&gt;&lt;b&gt;perm&amp;nbsp;&amp;nbsp;&lt;/b&gt;&lt;/span&gt;&lt;b&gt;：&lt;/b&gt;&lt;span&gt;文件（属性）权限，以&lt;b&gt;/sys/module/模块名/param&lt;/b&gt;存在&lt;/span&gt;" style="text;strokeColor=none;fillColor=none;align=left;verticalAlign=top;spacingLeft=4;spacingRight=4;overflow=hidden;rotatable=0;points=[[0,0.5],[1,0.5]];portConstraint=eastwest;whiteSpace=wrap;html=1;fontSize=16;" vertex="1" parent="Rfl5-FTgtZp-7Mx7iqGK-25">
          <mxGeometry y="108" width="480" height="26" as="geometry" />
        </mxCell>
        <mxCell id="Rfl5-FTgtZp-7Mx7iqGK-32" style="edgeStyle=orthogonalEdgeStyle;rounded=0;orthogonalLoop=1;jettySize=auto;html=1;entryX=1.001;entryY=0.129;entryDx=0;entryDy=0;entryPerimeter=0;fillColor=#fff2cc;strokeColor=#d6b656;strokeWidth=2;" edge="1" parent="1" source="Rfl5-FTgtZp-7Mx7iqGK-5" target="Rfl5-FTgtZp-7Mx7iqGK-25">
          <mxGeometry relative="1" as="geometry">
            <Array as="points">
              <mxPoint x="800" y="275" />
              <mxPoint x="800" y="477" />
            </Array>
          </mxGeometry>
        </mxCell>
        <mxCell id="Rfl5-FTgtZp-7Mx7iqGK-190" value="Type（参数类型）说明" style="shape=table;startSize=30;container=1;collapsible=0;childLayout=tableLayout;fontSize=18;fontStyle=1" vertex="1" parent="1">
          <mxGeometry x="850" y="210" width="610" height="268" as="geometry" />
        </mxCell>
        <mxCell id="Rfl5-FTgtZp-7Mx7iqGK-191" value="" style="shape=tableRow;horizontal=0;startSize=0;swimlaneHead=0;swimlaneBody=0;strokeColor=inherit;top=0;left=0;bottom=0;right=0;collapsible=0;dropTarget=0;fillColor=none;points=[[0,0.5],[1,0.5]];portConstraint=eastwest;" vertex="1" parent="Rfl5-FTgtZp-7Mx7iqGK-190">
          <mxGeometry y="30" width="610" height="238" as="geometry" />
        </mxCell>
        <mxCell id="Rfl5-FTgtZp-7Mx7iqGK-192" value="" style="shape=partialRectangle;html=1;whiteSpace=wrap;connectable=0;strokeColor=inherit;overflow=hidden;fillColor=none;top=0;left=0;bottom=0;right=0;pointerEvents=1;" vertex="1" parent="Rfl5-FTgtZp-7Mx7iqGK-191">
          <mxGeometry width="610" height="238" as="geometry">
            <mxRectangle width="610" height="238" as="alternateBounds" />
          </mxGeometry>
        </mxCell>
        <mxCell id="Rfl5-FTgtZp-7Mx7iqGK-193" value="" style="shape=image;verticalLabelPosition=bottom;labelBackgroundColor=default;verticalAlign=top;aspect=fixed;imageAspect=0;image=data:image/png,iVBORw0KGgoAAAANSUhEUgAAA1YAAAFOCAIAAAAKJBvjAAAgAElEQVR4Aey9eVwUSZ73X/30TOv0TM90z8z2bM/+9nntzM4+s/vsPlMml9yXjVqF3DeK4gVyqYDiweUBAh6ICgKigIgCggiCCIiAoIgccsgpNxQUlVBUKXa3/PezDCc6Jwupgi6wqvjyyhevb0ZGRka8M7/1/VRkRBRj5DUHNiAABIAAEAACQAAIAIFlRYCxrFoLjQUCQAAIAAEgAASAABAYec0BCQidoEAACAABIAAEgAAQWHYERBIwGP6AABAAAkAACAABIAAElgEB3AP6XgK2kiOwAQEgIBMCwcHBMikHCgECQKCVHAGHgscACMiQQHBwMEhAkLxAYLEIQMSS4acVFAUEwKHgGQACMiQAEnCxYr8MbxIUpbgEIGIp7r2DmsshAXAoObwpUCXFJQASECQgEFhEAhCxFPfDEWouhwTAoeTwpkCVFJcASMBFDP+K+1hAzWVFACKWrEhCOUAAxgLCMwAEZEtg4RKwhTfczBtCtbl2//bZjISKzka0+3SwewG1zKstv5B9paytbgHnwilAQD4JSCkBGzi91PqXttYW1FXglJLmmvSy201jgzgFDCCwPAlI6VALgxOefOZ6+Z0PndvCG466ev5c5qUPZYB0IKBwBBYoAbMeFpntMN93+jBq8I5Ad4LFvPEgv5Ucqexq0rLStPa0Kf+7ImwlRw6eC90R6C6+xeYkx91KCY4Lq+lvD44LI1jMhLxrCgcRKgwEPkRAmoh1+8l9AweD5KIsVMidugoV9qp1W9Y3jPahFP9ThwgWE7tbdU+ruCvV9LfvDPIQT9911OdDdYN0IKBwBKRxqIU1qqC+kmAxCRZT3Imqe1pbyZGW8UGCxVyzcc3CyoezgIAcEligBCzvaNS31ydYzJisxFZyhCoBke0e6kVtraW7FfIu2v8DMSGbA7YRLGZZWx1IQCoxsJWDgDQRKzYnWYW9SnWDSmpJDmr11sNuBIt5Ijm6lRxpHOvXs9MjWMyChofoaFlbHc2PCBbzYXez6gYV8fS338eUgyS0AghI/yLY0MFAx0Z77s07zI+KNPDCMYLF1LRcLe5E6MtV42gfSEAqMbCVgMACJWArOZJVWUiwmNrWmqhPAvUCxmQlEizmelfWk4FOKp2qF63pZbcJFnPLgW3lnSL5qGJKlHc2PhnoBAlIBQW2khGQRgK2kiNnMxJQ+EE6r6S5RpVNGDsbN3MH426lEiyms58LJoMkoLWnTWFDVWFDFfp+hSSglpXm205EvKmYEiABMTcwlICAlA6lYa4uruRoKW4h/9BPYeJiQrCYWZWFebVl67asJ1jMlHs382rL8mrLkIvVj/SABFSCRwiaQCUwbwmYU1283nU92pBHrd28Fn1zMnIyxI6H8+BBToUNVQSLibzO0NFQdYMKqgdIQOr9AFvJCEgZsVrJkQMxIepmqm/H/Fm4W5rtMFczE3Xpme200LHRJlhMQwcDsx3mCA6SgM5+m9Cu/R4n3AuoY6NNBai6QQUkIBUI2IpOQHqHmldLMx/eJVhM0+2mreRI7WCXKpvQttFq4Q2jQmy9Hd4eBQk4L6SQWSEIzFsC3niQT/suNfdu/UhPWumtjf5bNu93FX2F2vSty74t6I2VpbuVs98mkIAK8aBAJRdGQPqI1cwdvPWopJUcmfV9LvIyVIc5JKCamQp1JJMKexVIwIXdODhLPglI71Dzqr+T70aCxbT1dmglR1Lu3RS94LLR2hHovv2w26lrsSAB5wUTMisQgXlLQGrbavrbXQ9up0lAy13WtElVF3NTaHnwrp6dHkhAKlKwlYyAxIgVGn8Ci7bwy2eQBBTXbVpWmgSLieAgCahnp4dO1LPTxb2A2LOwIV6UkhGG5iwrAhId6nJhBnYoaYyKzsbLhRnIX5AE3Hf6MHYfgsV0D/UCCbisnrFl1dgFSsCa/o7w5DPoFZWlh43DbtGrqBPJ0c5+Lsh5XAK2ljTXUFEeu3SSYDFPp8e+nTUML4KpZMBWYgISI5az3yYcb7Ye2im9BMRnIeNhd/O7kX9aJS1P8AZjAZX40VqeTZPoUOGXz9BcY+7de02PTTaJRgGqsFfZejs8HXqhZ6erYkrkVBefuhZLsJhHE6NAAi7Ph205tHreEjCp4MbOYE805k/FlDh0LrRxtI86IzitJIe1lU2wmGpmKofPH0FrB1b3tIqmgLBX3X8uWvaPKgFTirNPp8c+HeyGGcHL4YFbbm2UGLEKG6puVt07mXaBYDGxBFQxJWgdGCqmBK0X0MbbDkk9Sw8bgsUs72wkWEw9O10qYRgLSKUBthIQkOhQ5R2NmZUFtM1hrzPBYh46F0pLz6wsqB/pCTx/1GXfFg1zdVtvh+NJp0SeeNitlRwJv3KaYDEvF2aABFSCJweaMCuBeUvA1JIcFfYqXVudwAvHKjufoUKt3gWhmEzRAjFoGYtjl6I0zNR2BO1CKwWiGVV7IwNQBqoEbOD0Wu6yNtthjla+SCvNnbWikAgEFJGAxIiFGpVZWUCVgB/qt0CZZx0LWNz85O3rYCNnIyolkIBUGmArAQEpHaqVHEnMTz9/83J17/NWcsQtxItgMS9kX2klR6p7WiNTzzVzf1xovay9vryzUc1MhbXN9P3sK0fDvCcP0CClkuYakIBK8ORAE2YlMG8J2EqOZFYW4Hm+qFAbbzuCxcyoKKBeo7S1Fq0OnXTnuuoGla2HduKlbg0dDVGQO5uR0EqO7I0MUN2gomursyNoV93wC2ohYAMBhSYgZcSiSkDUt4dG+OXWlBIspo6NNkpEKGaVgFkPiwgWU91M1WyHOd4IFhPGAir08wOVpxGQ0qEaR/vQyrVp79bapEpA1B8RmXqOVvK7uVNa6CzkShpmautdWa3kCEhAGivYVRoC85aAyUWZJi4mtA29pTJyNqKlm7iY1PS3t5IjJc01Hsd2U99toYWXzN0sqIlooWmlgQsNAQJSRiwsAd/NoM9t4PSiOYnNXNEPEujZ6VFJIgmoYa6O3E3DTA2Nsp217xAkIBUd2IpOQEqHQgttbthhhhZ2oUpA5GurLTTKO97/oqnolz94w2hGcGXns9LW2tPpsSrsVQSLGRp/AiSgoj8zUP85CMxbAs4xvXfWCIT64VvJEdTBPmsenOh/8tAcdYVDQEDhCEgZsVBYMnezMN1uytrKRuuo2/s4ot+kQhKwqrulZVz09gpJQOw1yPA8thsNXacighfBVBpgKwEBaRyqYbRv7ea1BIsZn3cVNZkqAfF74e3vBvyhDE1jou9aaEZwKznSNDaISihqegQSUAkeG2jChwjMWwLSCqrsfIZ6zg0cDND8eRSlaNlayZGipkfoxwzQf6/jewgWMzgujJpY2dUkfiKkAAHFJSBNxGolR64W52BJZ+vtgBbRPJ0eS5WA8XlXHXY7FdRX0l4Eo9G3yAGzq+9RWYEEpNIAWwkISONQXsf3Eizmui3r8YA/mgSs7HyGll6/1/QYMUE//oYlYETKWYLFdD24HR2tG37xdLAbdcnDbwQrwVMETcAEFi4BG0f7YnOS0RwOGy/bys5nyLb0sMmqLMTrquMr0YwDMSEEi4nGAtIOwS4QUBoC0kSsZ2MDLgFbkQT0jQpA8xBFP73Y+5wqAeNuidbXjMlKrHrRujlgW+CFY5jShezLKObR/A4kIEYEhnIQkOhQaHK9mplKXm05bjJNAraSI+6h3gSLuTdyP8rzdLgb9wLeelSiablaw0ytrE20fgXekDOCBMRAwFACAvOWgAX1lWczEryO79G2Fq1Vi369tKa/Q9TP96waLQeDfgVk/5nAuFupRc+qwy+foQ74Q/asYwHRoZtV/9CToQSUoQnLloDEiPV2IcCChoeqG1RUTImA6KAdQbuQW6Xcu4mgqZuprrbQ2BHobrbTAv2GKQ1mUdMjbRutdxMeL9MOwbqANCCwq+gE5naoZu6gvY8jwWKeuiZagPbZ2ABq785gTzwjGKWg6VOGjoYoz5OBTiQBk4sy0ZJnaJ12lDn8yultgW7bD7sRLOaGHRsUnSHUHwhgAvOWgL4nD+A3Vhbulpfy06lvfp8Odx9POmX47qUwyhaTlbj10E58ijRGQt41XD8wgIBCE5g7YuGmBUQHXbmbkVaSo2JKaFtrotUr0FH3UNF6Fmgz3W7aNPbjYhat5EhVd8uaTd8SLOZG/y2oC7BlfNDczULfXh/1yrO3Q8T6sSMHAwdDQQlIdKiW8cHE/HTUup1BHirsVWpmKmhuB+1nq06nxz0d7EY5a/rbkQRE80gOnz9C5UMdpxF19Tz1ENhAQKEJzFsCVnW3bAt0O50ei8bJztr4xrH+tNLcwAvHvMP83k4Euf+87k5dhfQb6lOctWRIBAKKRUBixELNwYOWzt+8XNXdQm1jM2+opOXJnbqKwoYqvKwSzvB0sHuT/xZ7H0cczFrJkaOJkSrsVRrm6ht2bEh9tygGzg8GEFBoAlI6FGojkm6qG1SMnY19owIax/o/1PbG0b4L2VeuFue0kiNJd67TsjWO9d+qKc2rLX8y0Ek7BLtAQKEJzFsCKnRrofJAYIkJzCtiLaxuzdxB2jqdCysHzgIC8k9gCRxK/iFADYGArAiABISXREBgEQlAxJLVRxWUAwRayRFwKHgMgIAMCYAEXMTwL8P7BEUpKAGIWAp646Da8kkAHEo+7wvUSkEJgAQECQgEFpEARCwF/WSEassnAXAo+bwvUCsFJQAScBHDv4I+E1BtGRKAiCVDmFAUEACHgmcACMiQAEhAkIBAYBEJQMSS4acVFAUEwKHgGQACMiQAEnARw78M7xMUpaAEIGIp6I2DassnAXAo+bwvUCsFJTCLBAyGPyAABIAAEAACQAAIAAFlJzDymoM2xshrTnBwsGBGCBsQAAIyIQAOJROMUAgQQATAoeBJAAIyJDBLL6AMS4eigMAyJwARa5k/ANB82RIAh5ItTyhtmRMACQhdnkBgEQlAxFrmn7DQfNkSAIeSLU8obZkTAAm4iOF/mT9b0HzBjBAiFjwGQECGBMChZAgTigICIAFBAgKBRSQAEQs+ZIGADAmAQ8kQJhQFBEACLmL4h8cLCCwgYqXcTj564ag06My3byiuKcY5rxWkb/R1xrtUgzM1OjgxhFIKqgqjLkUie/J7fmXjw6k3ApyZ/2aK+3JcfMMZBDPC+Mz4wuq71BSwgcDSEFiAQy1NxeAqQEARCYAEBAkIBBaRwAIi1uOWR6psor6rQeIHirGTMVWKpealWLtbznpW8NlAF/9NE99NCmaEl29d3rp/C8qWlJ2kba31YvQFPqupp5lgMcU33mvyTPKZnPs5ghnh3uN7Em8m4lPAAAJLRmABDrVkdYMLAQGFIzBvCejk4sR499fY8UzhWgsVBgJLTEBixKpurhbXW7OmtA+1C2aEh04fmPWoeGJkYgRu7KhgbK2LSXxmPFUC9o33aVtrZRRl4GzY8Dvhd/nWZcGM8OiFo7gcvxN+SPmBBMSgwFhiAhIdSjAjHH/Fi0yMYLuu17bWdN7rXN5QLmUl0YmsLeu0rbU2+W6saKzEJ7b2tYi7GG+ahzL4hfvSjp5MisLnggEE5JbAkkpA773eSD7er7ovt0SgYkBAhgQkRqzq5mpta62W/tY5tuomkUxEErCf14dzGjrop+al4N0zyWfMtpni3QFyUDAjHBWM9ZH9fWR/al5K7PULfWT/+WvnNvlu7CP7yxsrwuPD+nl9KAP/zRRuOEhAjAIMuSIg0aEEM8KAqAB9O93UvJTimmK/E35qG1SedjyVphX7Ivz1bHXiMxNy7ue4Hdqhbqba0NWITkQS8MqtywVVhXjDLuMX7rvR1xmnF1QVNvc2S3NFyAMEPi4BkICL+BLw495auLo8EJAYsaqbq/VsdT5U1ak3gqk3gj6yH0tAak5pXgQHRQfS+ic+tNtH9gtmhD5HvGbNkF2aDb2AVPhgfxQCEh1qZIpDsJi4b5v/ZsrK3eLQ6YMSa9vL7SNYzMx7mSgn7zVp7GQcci4E7SIJiBUhrTS/cF+fI160RNgFAvJPYOES8G5ZkYGRwcpfrPzLf/wlMUU0MKihvRF18q1lrUMtv1tWhFKcNzuvZa1DNvqvpqGG8lzNTFNbrf75Lz//6rdfsTawqusfyT81qCEQkJKAxIg1zB8prS0VzAgdfexn1V7HYo/xXpP3Ht8bf/X+rZOUlxbPVt1UbbqVbeNhpW2tZeigH50SPfT3OSI486hwbHBiaI2zcXFN8dDEUGD04SMXQocmhnivSZCAmBIYH4uARIeqbX9KsJhNPT92wh08FeDiv0lihbs43Reune8nB3DOLfs2uwe6oV0kAes66vBRquEX7usZ4kFNARsIKASBhUvAf//Lv1MlXWrGVcGMkEkwGQzGF7/+YvJ7vmBGeCDoIMqTU5AzqwQ8cTqCWgiDwVixcuXDp1UKwQ4qCQQkEpAYsXAJL8Z62ofa8Vb0qGidi4nr/s3D/BGcBxna1pqzikVqIu2UYf7IqcunDB30S54Uo+kgHcOdQdGB+na6kYkReLIwOqu2/am2tRaaO0IdC5hVnFXeWAHTQWhsYXcpCUh0qJrWxwSL2drXgmsVGH3YeY8T3pXS4E3z9O10w+PDUH4kAcsbykemOCi6UcvxC/fdeXD7yBRnTMilpoMNBOScwMIloIqayu17eT6+PkjDrVJZJZgRHjlxFO3ery4TzAg1dTQZDMZvf/fbie8mB3lD29y3o6M382/2cwf6uQMrVqxgMBgm69e29jx/1PAYyco1a7+Vc2pQPSAgJQGJEUu8HP6bqfjMBB0brbOpZ8nvJsQztA48xwP+bD2tw+KO492W/tbcB7kEi4nPertqzJ5ju7WtNX3D9nYMd1KngwhmhJ0jXQdOBujaal+4dh6dMvk9f1vA1v2R+9AuVQLiMt0O77yUfQnvggEEloyARIfCEjA+M+Hbjcbdo900CcibJseEXLzxfxD1Vohvp6+c0jBTax14jg4hCYi+ZaltULH3tqt69mNXBXU6iIG9XtjF43imiHjJkAIE5IfAwiXgvXLRgmRTbwT/+r//FQk73jTZ8qIV2aFhoaNTYz//+c8ZDIbrDlfUYNp0kCvpySizjr6OnZO9nZP9f/z1/4g6AleskB9AUBMg8FMISIxY4oU3dDUSLGbN8xrxQ+IpznudY9MvUNNrntdQJWBWcdbZ1LO93D6cJ6Moc/dRH7wrmBHWddSh+b+CGWHYxeNrnI1x/qMXju6P3FdW9wDl37rfdbWFura15qMWGLAxi26gUgV7MQhIdCgsAXPLbu08uH3w3WAGai+gi98man95XkWeeD1zy2+rsFclZSfhQ+OveBWNlWjLq8iz97bTtdXu5713q+beZnSorO7B2dSzqqYEXnoTlwAGEJBDAguXgB0Doh4FwYxQV18XKbkXnB7BjFBNQ43BYBitMcopyEHp+SV3UE6aBIyMjkQZxP8PT9BffskhO6gSEJBIQGLESstPowakOex7j++JX06iBBQ/JSQmeF+Ev3g6SukY7mwf7qAeza/MN3YyRimjgrF+cgBPhKRmAxsILAEBiQ6FJSCuDK0X8NmLZ9VN1XgTHw5b3lCuYaZ25PwRXIK40THcSbCYt94tkyl+9MDJAPPtG8TTIQUIyBuBhUvAogeigIR7AT/55BPeNCmYEYafOsFgMH7x+S/cvXYxGIyvv/6a/8P7xSZoEjAxJRGJv5QbqfLGBeoDBGRCQGLEGpniUF/jtvS3FlQVinoBWx/T0rkvx8WrJFECfmiGr7jWRIvOCGaEvGkeWiYG/U8vTDdyNKCmiA9PFK8YpACBxSAg0aFmnQ6yyXejlJWp66jTttbaF+FP/ckcwYywl9tHW+dFlU2g4RD8N1P1XQ1Dk8P4EuevndO21sK7YAABuSWwcAlIGwtIqBKokR0DnZ988gmDwVj5i5UMBmOnx/sZVYIZ4b5D+5Hm8z+4r+55fcdA589+9jMGg0GoEnXP65801Wporf7666/VVqvLLS+oGBCYFwGJEUu8NPQiWLxzQjynYEYoLgGrnlWpsEUDc9E2QA52cbrxFnM1Rtta0+2wm4v/po7hTpzexenGg9yzS7PFBSI1ZceBbbh8MIDAUhKQ6FB/XxTm/douU28E1u6Wc3R7UyvfNthu7GjoEeyBfQEfTcpO0jBT40yNopTWgecEi4lfIuvaalPXgvaP8Ldyt8DnggEE5JbAwiUgbUZwWtY13Eg0CwSpPTRkEB26mX8Tv/M1NTelikKc/sknn6AlZnBpYAABxSUgMWKJN21hEpAzNappqbHaQl3VlPjQLwVXNj7UsdE6lxbTR/YbOOiFng+ddboJrUrUF8G0Q7ALBJaYgDQOtS/C38Be72peasmT4n0R/qpsgjp140MVHhNy2a7rDR30c8tu4UWe0YJNb9ds6uJ0o58MuXU/J6s4y8rdwmTjmpEpDirteOxxDQuNmKtnCx4WRCScUGGvis9M+NCFIB0IyA+BhUvA+9Vl+ob6K1b+uC4gbtXJmJNI0v3xX/5I604PP3XiT3/+04oVK3T03y+HG3spjkkwV6xc+dVvv9LR17mZfxOXAwYQUHQC0kQsWhsXJgEFM8InbbXVTdVNPc3iwq5juPN47HG1DSqHTh9AI/nqOurWOBrZeFjlV+aL93lQqwQSkEoD7I9LQBqH4r4cj0g4sX7zWg0LDXtvu7vVd6Wpc+dIF7WrG9kmG9fgc5+01W4/sE3PVsfQQd8zxIO67gzvNRlzNYbtylptoW6+w+xS9iUYL4u5gSHPBOYtAeduzMR3k29//G2P/x4kAff475k7PxwFAspNQJqIhQm09rW09LVcL7xOsJijwjGcPoch/iKYljkyMcLGw0qFvYrtuj675Cb1K1n3aPf+yH2qbMLI0cA71PNRyyP+D3zxKPihlOuF12nXgl0gsNgE5uVQi10ZKB8IKDoBGUvA/JI7+JXul1992TnYpeiAoP5A4KcQmFfEEr20MiX07XQPnAyQ8qLHYo9ll2bPkTnxZuLJyycrGis/1NXXNtielHPZN2wPeqtFHR04tw2r4M6BHQ4tEoF5OdQi1QGKBQJKQ0DGEjDqbNTnv/z8i19/oWegV1n7UGkwQUOAwMIIQMRaGDc4CwjMSgAcalYskAgEFkZAxhJwYZWAs4CAshKAiKWsdxba9VEIgEN9FOxwUWUlABIQlvgHAotIACKWsn50Qrs+CgFwqI+CHS6qrARAAi5i+FfWhwbaJT0BiFjSs4KcQEAiAXAoiYggAxCQngBIQJCAQGARCUDEkv7DCHICAYkEwKEkIoIMQEB6AiABFzH8S38bIKeyEoCIpax3Ftr1UQiAQ30U7HBRZSUAEhAkIBBYRAIQsZT1oxPa9VEIgEN9FOxwUWUlABJwEcO/sj400C7pCUDEkp4V5AQCEgmAQ0lEBBmAgPQEZpGAwfAHBIAAEAACQAAIAAEgoOwERl5z0MYYec0JDg4mp0nYgAAQkAkBcCiZYIRCgAAiAA4FTwIQkCGBWXoBZVg6FAUEljkBiFjL/AGA5suWADiUbHlCacucAEhA6PIEAotIACLWMv+EhebLlgA4lGx5QmnLnABIwEUM/8v82YLmk9MkRCx4DICADAmAQ8kQJhQFBEACggQEAotIACIWfMgCARkSAIeSIUwoCgiABFzE8A+PFxCQJmJll9zMuHtjvqzSC65FJJygnpWSm5yQEU9NIafJ8Vfjw5PD4hs1W9z12PyKfGoK2EBAPglI41DyWfMF1yq7NLub073g0+FEIDAHAZCAIAGBwCISkCZi+Yf7hl8Mw156JecywWKKb0HRgeQ0eSI+3NjJyNjJSNtKa7WFOrKDzgTyXvFMt7Iy72bgcpBR31EvXhTBYo5OjZ5KOpl5L5OcJncf9bl4I452IuwCATkkII1DyWG1Z61SW3/brL5JsJjDk8P4FGMno7KnZXgXDCAgQwKylIDnE84z3v2lZ6fLsIpQFBBQXALSRCzLneYXr8f1jfWibWhiqGOoQ3zr5/VTOSRmJRw+dQinFD4spIUT/wg/fNQ3bG9iVgI5TYaeCwmPfy83fcP2IuUHEhCDAkPOCUjjUHM04diFozQ3sXQzx/lHJkfCL4at37xW20pr4x6n+7X38aGEzATaiQSLqWujjTMgw3XfFrNtpuMvudT0lr4WrxAPHWstbStNt8M7Groa0FHeK94Ab6Cf12/lbnnmyukB3sCj5kcDvAGUSLCYA7wBcpqkSkAbDytaNUJiflzHrX2gbfdRH0MHfQN7Pa9Qz9a+VlwNXRtt2okEi5mQKfpMwFvfeJ+Bnd7BkwdwylvDM3iX+ImewbuoecBWXALyLgGZBJPBYHy24jPFRQw1X84EJEasjqEOVTZB/ZAdf8nt5b6Xg1gX9o31Ioztg+1Oux2ddjuu22xi6KCP7HuP7n270djYyWh4cpgr5DrtdryUlTj+ahyTBwmIUYCh0AQkOtTcratrf5pXnoe25FtX1M1U90fuw6f4h/vq2ejEXY/LvJe54+A2dTPV2ue16GhCZoIqm8Dn5pXn2XnZbtjKxueS02TBwzsEi5n1rmcdp49Mjqzd9O2Greyr+anpBemWbuZGjgbUr3PFj4u/3Wg8MjkyODFoYK+HOvwGeAOzSsDS2lJch2OxIjmbXnANXYvD55huZVnsMEvLv5qWf9V0K4u1ZR3uTdS10fYP98Xnxl2PI1hM9BIAVzX8YpiGmVpbfxtOeWt4Bu+y3mWJT8wtu7XaQj3w9I9fPqmZwVY4AiABf/wOpHA3Dyos/wQkRqyzqdGsLev7ef3Utz8G9npUUUiwmBoW6qixLb3N5jvMyGkS9wI67Xb0C/d18dsUELUvITOhtKZEw1wNS0avEA9aUWg3oygDegHl//mBGtIISHQoWv4P7aK+t60BrqNToyhP51AnwWJeL3j/Cmt0atTYyQiNviCnSZEENCVwaX3jfRrmamdToy54gisAACAASURBVHHK+Euu5U5zKzcL6lcvcprMr8gjWMyalscoZ2N3o0h7/X3AxvhLrp2nDZZxGXdvrN+8dnhy+EMSEF+uprVGx1rrVNJJnJJ1L5NgMZ/3P0cpT9tqCRYzu+Qm2tW10Y5JPYszh18M07bSwgKRnCaf9z/XMFcLiQnCeZDhGbxra4ArTkRvG8rrHuAUMBSawEIk4IWECypqKr/5zW+++OILJsE8F38OIcAvglNvpG533/7ll1/+09f/5ObpNjIxgjKMCcaCjgb9x//5jxUrV3z9h6/tnOwa2xtp58ZcjNHV1/30009LH5Z+/vnn6M0y+u/j66PQrKHyy5CAxIjlc8T74o049ImPP5EN7PUetzzCuGqf11IloIaFOrUXUNtK837t/UFy8AXnxRpnI+tdltHJZ/C5gxODvWO9a5yNCh8W9o31Hjp1MCQmqG+sd3RqFCQgpgSGohCQ6FDSNITD52za6+zgbTc4MYjzt/W3xaSefcF5gVM2+7m4Hd6BdtsH26kD8pJuXlJlE+0DP3aYpd5OIVjMvPI8fDoyUNcg7lrrG+slWMyMovdjdk9eilRlE96hXi5+m0y3srQsVxMsZnTKmbklYFNPk5GjQdAZ0eBgvD2oK6OO6B1/yVVhr4q7HosyVNSX4zpwhVxjR0NaT55fuO9qC/XOoU5cIDLqOupwVyg5TXqHetH6Pmn5YVexCMxbAoZFhWFZ9vOf/xzZYVGi0UVYAhKqBM7DYDC893qT0yTvFW8dax01ncFgfPXbr561P6Oe+6c//wnlAQmoWE8S1HZWAhIjFlfI5QpFb34JFnNk8v2XpTkkILpK5t0MDTM1B287rxAP/L1/aGLIeY+jCntVdVM1tTKPmh9pW2mNCcZoYwFvFF4vrS2F6SBUVmDLOQGJDiVN/dGIwNBzIfUd9R/Kz+Fz9G11j8cdmzWDjYfVjkPb8aHhyWFjJyMHbzucgo3RqVHzHWYeQbuae5qf9z/fc2w3a8u6oYkhlCE1L9U/wi86+cy1O2n3Ht2r76yvaKhw8LZDrwXExwKis2w8rDQs1OMzLvaM9uAL0Yyqpqq3/f35FXRJSk6TeeWijsmqZw/xKY9bHqmwV1EnpeFDVKNntEfdTPXCtfPURLAVmsC8JaCOng6Dwfjkk0+edTwb4g2tN13/b3/6tzVr11Bl3O9+/7vT50/7BfghMffNH78hp8m0rDS0q6WjVV1fHXgkEO1a2VpRz33b83ck7EjS1aSO/o6O/o7//n//jcYCtvW2DYyLxsbCBgQUiIDEiGXlZkF7UVvdVDWHBBzgDYTFHbd0Mz8RH37o1MHs0mzWlnUvOC9u3c/ZsJXtdnjH+WvntK00Y9MvoB4OrpC7db/rvhPvp4ZQp4NgjDsObY/PuIh3wQACcktAokOJFkJ6yR2aGMIbh8+hNedSVqJXiAdryzoNM7UPLYd08lKkhpnasxeiHgra9rjlEcFi5pTm4PSEjHiCxbT3sjN2NFzrYnI87hj+OofesVq6mSM337CVPWuZCRnxV3IuowLHBGNz9wIGnjm867CbgZ2esZNRS18LrgY2xl9yN/u5vP1AQF/8cDoydgW6W+78cRLM20TPYNFwERe/TQZ2epY7zZNvXaGdgnYv3ohTNSW6hrtmPQqJikhg3hLQ1tEWSTdNbc39h/anZaX1c99PVMS9gEFH348n+NuqvyG9OP5yfMv2LejE20W3UafgH//ljwwG41e/+hVVAu7dt5fKEaaDUGmArXAEJEasvrHebk73veoiAzu9bk53N6d7TDA2x1jAoOjA/ZH7erm9l7ISA88cJqfJvvG+22W561xMUm+n8F7xyGmy5HGJlZvFifhwcpo8Fnt0jbMRfr8Tei5k3wm/kscliKTrvi2rLdS1rTQrGysVji1UeBkSkOhQ6Pmnfq2izvmlEhsTjO04uG2diwk1EdnZpdkq7FXiq2yio0HRgfr2uqOC94MIRS+4NptoW2ldybn8uOXR1fxUfVtdz2APlPkF5wXblbVxj1Nu2a288rwt/i5rXUzaB9tpF6V9N5tbAqJzuzndxk5G1OksuMyQmGANc7WHszl151CnqilB/crX0tuswl5lts0078Ht6qbqU0knP9R2i3fdmfgqYCgBgXlLwGftz1DPHNJzDAZj5S9Wnj5/mirjomPfD5LVM9RD2cYEY6bmpsiuf/6+711VXRWlDJPDWD7icxFckIBK8JAt5yZIE7HIaTK75KaBvR4eC9jN6a7rqEOKUCQQH91r7mlGGHmveOOvxsdfcmkbh8+hpowJxlCIau1rpfUT5JbdMnYyQqWhEYS0AezL+X5B2+WcgDQONcAbqKgvx1tNa82HGpVx98bb3i88dwplK31SomGmRl1shXo6h8/RtdE+FnsUJ6IZHpeyEnFKWv5VgsVs6RX57KmkkwZ2eoPk+0GHI5Mjxk5G+PSdh3ZQ1SqytwW4SiMByWny4MkDVm4W+LrIiEk9q8om8EQQ2tFzaTHqZqrUN8gpuckEi/m07f3cZ3Ka9I/wW7vpW9qJlY2Vb6v3oU5TWmbYVRQC85aAqGEPHj2Iio5y2Ojw2WefMRiMn/3sZz2cHnEZR5WAW7a97wW8VXAL9QL+8zf/LN4LCBJQUR4dqKc0BKSJWOQ0GRITrG6mitf5yyvPc/JxQOXzXvGMHQ2pyzd8aJIvNZb4hv3Ym87hc7Ca7OZ0X81PfbuaDDWlb7xPmrZAHiDw0QlI6VAfqmfWvcyK+nJ8NLfsFsFiUvvkaloea1tp+Yf7og51nBMbSDXWtT/FKTUtj9+uEUidLILeFKNlBXcf9XHa7Ygzk9PktgDXnYfezzIZJAfRwk94nlbfWO8gOTirBByeHE7JTaZ+ows9F8J2ZVELT81LVWGvSslNpiZim/eKx3ZleYd64RRymozPuKhqSlC/B168EafCXkVNQXLT2NGQK/yHJQ+p5YCtiATmLQH/tupvX/32q7/+51/rWuv6uf1qGmqoJ+95z/O5JWBa5vuxgGoaaiWVJf4H/NGJljaWs/YgIpqrtVajbJfTLnf0dygiYqjzciYgTcQaf8ldt9kk816mvq0uGr7N4XN0rLXQErLVTdValqtxByGC2T3StfuoD/qMRp0QtNVoqcwzijKo6lDc3kZZ9IF6IthAQN4ISONQc9TZdd8W132bcYaTlyJXW6hjrdPc02zkaLAr0H0OobPF38XRxx6XQE6Tg+SghoU6dckVtIhgx5AoYIXHh+nZ6OBvWYMTg0aOBsFn6Wuv0F4ED00MOXjboVkjeGlorpCrYaZ2Jln0zg1tm/Y6U2el5D24rWpKxKZfwBloxv3a+wSLWfiwkJpe/LiYYDGpytgzeJfZNlNqnqGJIW0rTYnzRaingK0QBOYtAU/FnEKaDA3yQ7aFtagvem4JyHvFM1lngs9FxldffdXQJloqXfxchM9rjxc+Bc07VgisUEkggAhIE7EyijLWb17Le8VLvZ1i7GiIFirzDN6F1u4PizseEPXj6rWo2JbeZoLFRLIPSUBdG209Gx20HTkfOgd/6ovgObLBISAghwSkcag5qp1dmk2wmIGnD90uyz2bGq1hoY7fyQ5NDLG2rDOw17tZnIVXQr5XXUQtrblHNGxOvI8tIuGEhplaZGLE7bLc05dPrbZQPxAVgE5s6WvRsday9bC+dictvSDd0cde01KjvpM+E/nwqUPugTujU854hXjQZhZjCUhOk8FngzQtNc5djbldlnsgKoC6DM3jlkca5mpOux1x5fPK86hrS6E3vCYb19C+Lo6/Gt+4x8nY0TAxK+HW/Zz9kfsIFvNG4XVqw9Gr7ca//64J9RDYCk1g3hKQnCavXLuyWmv1V1999dmKz/76n389HHoYTbkSl3HUF8HkNDk6NXow+OBf/uMvn6347Pf/9HtrO2s8LlD8XIR1kDe4ZduWr//w9YqVK3z3+yo0a6j8MiQgMWL1jPasczFBQWX81fjV/FRE6XZZbl55HlrBS3yuhrgEpH2sz4EaJOAccOCQnBOQ6FAS63+j8LqVu6WmpQbblRWdfAYvDf28/7l4B7nJRtFiF3iLShT1GuKBfTid94oXn3Fxw1a2hpna+s1rzySfpk7FfdpW63Z4h7aV6AfitgW44jWbuoa7Qs+FbPZz0bXRVmUTFjvM9kX4J2YlUKdxcPgcPRsdvBQzh885eSmStWWdpqWGrYc19ZdI0gvSxeuPlwIgp8kB3sBqC/WTlyJxtbExSA6GxAQZOxlpmKvZeljfLM7Ch5DhvMdx4x4nWiLsKgGBhUhAJWg2NAEILA0BiRHLK8SDOjSnm9Mt/jmOUtALrE2+Gz+UgZbuFeIx/pJLS5xjNy3/6tIwgasAgQUTkOhQCy556U8c4A0ciNqfdPNSRUMFbaQHOU02djeqmhKqbMLY0bD3778PufSVhCsqNwGQgD9+w1PuOw2t+ygEJEasp221aAFYVL3xV+Nt/W2zbt2cblFXumB0dEqqDfVDzFrUrIl4udqPAgouCgSkISDRoaQpRFHy1HfWt/Q2S9/BryjtgnrKDwGQgCABgcAiElhWEUt+PtegJspKABxKWe8stOujEAAJuIjh/6PcUbioXBGAiCVXtwMqo+gEwKEU/Q5C/eWKAEhAkIBAYBEJQMSSq887qIyiEwCHUvQ7CPWXKwIgARcx/MvVnYbKfBQCELE+Cna4qLISAIdS1jsL7fooBEACggQEAotIACLWR/lcg4sqKwFwKGW9s9Cuj0IAJOAihv+PckfhonJFACKWXN0OqIyiEwCHUvQ7CPWXKwIgAUECAoFFJAARS64+76Ayik4AHErR7yDUX64IgARcxPAvV3caKvNRCEDE+ijY4aLKSgAcSlnvLLTroxCYRQIGwx8QAAJAAAgAASAABICAshMYec1BG2PkNSc4OFgwI4QNCAABmRAAh5IJRigECCAC4FDwJAABGRKYpRdQhqVDUUBgmROAiLXMHwBovmwJgEPJlieUtswJgASELk8gsIgEIGIt809YaL5sCYBDyZYnlLbMCYAEXMTwv8yfLWi+YEYIEQseAyAgQwLgUDKECUUBAZCAIAGBwCISgIgFH7JAQIYEwKFkCBOKAgIgARcx/MPjBQQWKWIdiz12v66MivdaQXpSdhI1hWqPCbmcqdEPbfwf+NTM59JinrTVUlOksYNjggqqCqk5Q8+HljeUU1MEM8KJ7ya5L8dpG2+apGYLiApoH2qnpoANBBCBRXIoKt6Hzx42dDVSU8AGAspKACQgSEAgsIgEpIlYPke8CBZz7s3tsBv+DOoY7lRhr3rc8oj/Ax9tU28EplvZsekXcAr/B/7UGwE+xc7TZo7ya57X4JyCGeG3G43vPS7CKXuP75n13NwHuYIZoYv/JmMnY2Mn49Xm6rq22sjOKs7q4nSrmhLdo924HGSk5qWIl+a811kwI9wV5N7a1yKYERo66D/teEo7EXaBwE8fWcHask788SNYzHuP72G8fif8Yq6exbtgAAElJrB0EjAu6SLj3V/m7UwlBgpNAwJUAtJIwM6RroauRrxFJkY4+tjjXWS0D3fgYk8mRdHCWG75bVoKwWJml2bjU+w8bTLvzeJ33JfjBItJlYAD5CDBYj5ueTQ0MTQ0McSZGh2aHO7h9opvtK47nyNe1CtGJkbQqnS98Dquj7GTMeposXa3xNHX2MkYKT+QgBgUGDQC0jjU+CteZGIE23W9trWm815nalf0qHCMMzUaci5kW8BWztRofVfD4LuHfPJ7vp2nTWH1XcGMcFYJGHP1rLqZKtUNBTPCNY5GtIe8tLYEVTgt/yrtkPMeJ9wWW09r2tEj54+go619LbRDBIvJm+bhc8EAAjIkoNgScJXKKgaDsWLFChkSgaKAgAwJSBOxaJeLTon2OepNS8S79V0NGhYa1U3VGUWZ9t52ghlhP69vjbPxpexLU28ELn6bzqXF4MzYkF4C5pbdokYgF/9N/B/4SA5S/48KxlDhd6vvOu91fhto9e10TbeykV31rErVlPA54sX/gd9PDmhba9Z3NVB7JUEC4lsDxrwISONQAVEB+na6qXkpxTXFfif81DaoUDuVhyaHdWy06jrrBTPCnQe3n792DlVgDgnYR/ZrW2sGxwTRqrrG0Sj4bGBBVSHe+skBlCct/6q2tRZOL6gqfPjsIT69vLECHwq7eJxgMTOKMtBRJAGv3LqMMxRUFfLfTOFzwQACMiQAEnARXwLK8D5BUQpKQJqIRWta6PnQoOhAWiLe9Q71DLt4HA2qW7957ZO22oSsBLfDO5HAevbimXeoJ21sn2BGKP2L4G0BWw+fOVRYfdfRxx5dtKmnmSoKkY1fTF8vvB5yLkQwI0S9gLzXJMFi+kf4RyZGWLpZ1HXUnUk+4+D9vijBjFDPVke8NILF7OH2Qi8gvstgfIiARIcameJQFRX/zZSVu8Wh0wdxgcdjjx84GYB2Wwee69hooQ7pOSRgcEzQanP1F2M9uBBkrHE0unzrMi0R7ablX9Wz1Zn1EDWxrrNex0brTPIZnIgkIAxGxEDAWFQC85aATi5O6H1uY8czFIfQroGRAaroxcvxahpqv/nyN1/8+otVKqtiL8WhdPwi+NrN9J0ebl9+9eXXX3+9y3vX+Mtx3MLUjKvqmhq/+uJXv/nyN0ZrjArvi7rlBTNCfO6FxFg9A71PP/20vKbi819+ji6N/u/dtxeXAwYQkBMCEiOWeD19w/acTIoST0cpvGkeeit06PTBizfeO9fEd5M4v88RL9pMEcGMUMrpILxp3loXkydttTQJqG2ticsXzAgv37pMlYDGjoY/9gLucSRYzDEhl/8Dv7S21GKnua6tNvVN3NDkcM3zJ6st1PvG+4Ymhsx3mufczxmaGOK/mQIJSIUM9qwEJDpUbftTgsVs6mnGpx88FeDivwntltaWqrKJbQFbtx/YZulmYWCvR7CYW/dvQV+TZn0R3NLXompKhMWJvnfRtjWORpeyL9ES0S7qBZz1EE58Pthm7GgYEvMPv8iFJGBdRx3OBgYQWDwCMpaAEWcisSz7+c9/juyIM5FUGaeipoLzMBiMPf57UPOOR4VR0xkMxqeffpqeLRo/hCXgn//9zygPSMDFeyagZBkSkBixpJkLgrrNDp0+gCtW2fhQbYNKc++PcQ4fsna3zK/Mx7vzNZC+vFN5x2m3Azq3qad5Dgn4tv+P/2bqyIVQFfYqF79NEQknuH//Utc22K5nq7N+89qhiSFqNd51W76f3UIdCxidEv1i9AVMB6GyAptGQKJD1bQ+JlhMNK8InRsYfRiPw6ttf+pzxOvk5ZOpt1OKHhXVdda/GOsx32n+YqznQ72AniEempYafWQ/rSZoLOC5tJiRKY74WL20/KurLdRHpjicqVHqEAhqIbae1hoWGpeyLw2QgzgdScDyhvKRKc7k9/8wVR/nAQMIyIqAjCWgrr4ug8H45JNPnve2jQm4bDP2n/78p2/XmVBl3O//6fdn42L2HdqPxNw3f/xGMCPsHe377LPPGAzG13/4Q3FFcVZe1spfrGQwGN/88Rv+D1NYAn7+y8+PRR5Pvp7ygtPzgtPzP3/7HzQWsHu4m8MflRUUKAcIyIqAxIjVPdrd1NOMt5rWx6psIiAqYK2LCU5ERg+3F9WKN82zcrfwCNrVPtQ+60tVlIhmNW7dv2WOPNRDfWT/0MQQNYVgMTUsNOaWgM8H29wD3XzD9noE7bpx90Z0SrTr/s2jwrHEm4m6ttonk6L8I/zXuZjklt9G45n6eX3GjobphemoLVQJiFLI7yZEQ7WgF0Ssz0lWz6RClyPRobAEjM9M+HajcfdoN1UC4rZXNFYGRh9Gu6gTfVYJWNdZT7CYZttM2a4sQwf93Ud9Oke6cCF4OogKe9U6F5Nrd67hQ9TpIJqWGp4hHuKz44NjgjyCdhnY6xk7GeOJJkgCIjdU26Bi721X9awKFwsGEJAtARlLQHtnByTstHS1DgQdvHErY2SSg2qMZVxoWChKYRJMpBf5P0xdSU9GJx4Iej9ow87JHqVU1j7E5/od8Ke2H6aDUGmALYcEJEYsWp3zKvIMHfRv3L2xYRubdgjtTr0R+IX7Eizm3uN7+D/wxSfqmu8wu3bnWg+3d1QomrExODGE8uw9vmf7gW3i+XEK/83U2wklfWR/H9l/NvWsR7AHsucYCzj5Pd9pt0Pcjdi3a9DsPuqTcz9HMCMc5o8ciz0mmonZWIHqnJqXYuRoUPKkeOqNwN7LdlvAVjy83drd8mLGRTQ2f0zI1bPV0TBTY7uu50zBNzr6a8dZn4fllijRobAEzC27tfPg9sGJoVklYH5lPh7tihjOKgEDogIIFjMyMeLt6IV7j4us3S3XupjguVCPWh5VNFZWNFbee3zP74QfwWKWPClGpfVy+9Ch8saKtPw0I0cD3BNJu2V9ZL+xkzEenjj+iodOrGiszKvIs/e207XV7uf10c6CXSAgEwIyloCtPc9RzxxSbwwGY+UvVp6NE01RxDLuXPx5VHUDIwOUbeK7yaizUci+kBiLju7d74tSsu9ki5+L8oAElMlDAIUsHgGJEYt2aZ+j3vsj92Xey/yQBDybKlqcwj3Qbe9x0QiKUcGYz1HvoclhXM6sL4Inv+cbOuin5afhbHMbIedC3APfv6ud/J7fOdLVOvAcKcJ+Xt/d6rt45uPUGwF1MUJk86Z5k9+/X7MQpeC3w49aHtFWkzl64ajfCT9Un8GJIWpb5q4kHF2GBCQ6FJaAGA5VAl7MuEjr5yZYTLUNKh8aC2jsZEydno/63anLG+Gr8N9MsV3Xi88aRhkyijIIFrNvfHYld/jMIWt3S1wU1egY7iRYzFvvvlxR08EGAjIhMG8JuHHLRqTMquqq0QtctIungwhmhA+fVp0+d9rJxQm92/3Zz342yBsSl3FUCXjl2hVUzr5D+1HDrO1tUAq1FxDLR5QHJKBMHgIoZPEISIxY1EvXPK9RYa+q66ibQwKm3E6+dudabPoFJAHf9vO57t+M5uSiomaVgEWPisQjH0551tNErYZgRmjlbqFuporX+QuLOx51STSiVzAjbO5tVmGvQoP2UMqHJvni8gkWk6o+RwVjSE2i/4dOH/QO9aSmYL1IqxXsAgGJDjXrdJBNvhsROt40idY2yijKsPW0xuscfUgCaltr0ZaJ1rbWjLkq6tQYFYzVdzWQ303gm7ItYKtniAfabR14Tn3zW/WsimAx0fAG7svxtPyr+M2vYEZ49MJR063ve/17uX20Mb6qbOJDk07wpcEAAgsjMG8J6Bvgh5TZetP1ecX5VrZWVAnIJJi//d1v//pf//mss2lkkqOuqYGOdg11zS0Bezi9aPrI7//p97fu5iZfT1mxUjQW8J+/+WfqWECaBNTU0UTlp9xIfcGhz9hfGBE4CwjIkIDEiIWvNf6K5+hjj7ocxCXgvcdFeRV5ODNVAtZ3NahtUMEyblYJOCbkUjUWtvMq8lTYq2jdcu1D7VpWq/Mq8nRttZHUe9TyaI2zMXp7G5+ZgGZQ4sq8XerlQf0DvLBFWn4anoBJzYPtoOhAqjoUt2PTL+DMYAABKgGJDvX3RWHeL4Q+9UZg7W65L+IfRhAJZoTiL4L3RfhXNoqW7qMuDb3Jd+P2A9twBeq7GnCfHBomiNeCnvyev87FBK/w7BXqSX3ze+3ONYLFHHw3L2rye76GmRpVWbr4bXI7vBNdJSk7ScNMDQ+EaB14TrCYVN/HlQEDCPx0AvOWgNX1jz799FMkvBgMxr/8f//y1W+/YjAYqBcw+kI0PvTJJ58g28rWSuKLYNE3oYhj+Fxk/K//9b/SskQDbMXlI2r5br/d+BQ07/inE4ESgIAMCUiMWOhavGne9gPb1rqYIMklLgEv3ojzOeKFK0aVgKKgFe6LOwJnlYD4RJqRejtlnYtothZ1C4oOPHhKtHCaf4Q/uujUG8HblZ/ruxoEM0J7b7uMIvoPjVwvvI5lX1p+mqopoWerg7fc8tvU8mk29UUw7RDsAgEaAWkcal+Ev4G93tW81JInxfsi/FXZhPiMiuySm2xXVlJ20v6o/VbuFtQZxFQJWPKkWIW9yi/c93Z5XmpeytpN31rsNEfzfye/59t7263d9G1a/tW8ijzPEA9VU6Km9TGqcMHDAoLFPHT6wJ3KO0nZSfp2uruC3HFbQs+HalpqxKZfuFN559DpgwSLiX9fu4vTrW2ttcl34637OVnFWVbuFiYb14xMvR9Sj0sAAwjIhMC8JaBgRph8PeXf//LvK1auVFut/vBp1Td//AZLQMGMMDXjqqaO5le//WrFihV//a//DD4WjPoYxGUc9UUwasyV9GQ1DbVf/uqXv/7Nr/UN9fNL7qB08XNR+ujU2NadW7/+wx9WrFzpf3CfTIhAIUBAhgSkiVg1z58473E0sNdrefcLuYIZYW7ZLX07Xfy5z/+B7xXqeSI+HFeMJgH7eX14WYp5ScCAqIDdR31wsW/XuahurtayWo1Wpn0x1oN/vS0+M/5ZT9OzniZdW+3xV/Sfq6JJQCwHqSV/yAYJ+CEykC5OQBqH4r4cj0g4sX7zWg0LDXtvu7vvfvYNFXUm+Yx7oJvJxjVvfxdxrYuJzxGv2PQLpbUl2H3eLqLpdtgN/2SIYEZYXFPsvMdptYW6oYP+wVMBeBTs2x/I7hvvO3AyYI2zseiX6PY44bkg6Fo593PsPG00LTXWvusdxO4smBHypnmnr5xiu67XtNSw87ShDfV70la7/cA2PVsdQwd9zxAPqjwVBwIpQOCnEFiIBPwp14NzgcCyIiAxYp1MilJhr3I7tOP5YBsm0znSpWurTX1DqmmpQV0nhSYBRaNyuX3twx1tg+3rXEyKHhXhosQN0eIvk8PkdxPPB9t0bbWpo/R407w1zsYpt5PxWbkPcqnVoNoxV8/yf+BTU+a2L9+6/KD+wdx5qEfbh9pxNcAAivPNzgAAIABJREFUAoiARIeaG1RkYkTcjdjS2lLqUnzoFP6bqbUuJqqmhLqZKnUx87kLhKNAQKEJgAT8h1dgCn0vofJySEBixKp5XjPrSs7cl+PNvc0NXY0NXY2N3Y14bBBqo7gEvHDtvKopoWW12nmvM7WjQpxJQlYCVlqb97nQuvRor8zejlDs4nTPuqEq8V6TUm78H/i86Q+WJn4JWBdX/N5BikSH+imIujjdrX0ttKGxP6VAOBcIyDkBkIAgAYHAIhJYpIj19tUw9Ufh5vspQ343wX05zntNzvdEyA8EPi6BRXKoj9souDoQ+FgEQAIuYvj/WDcVris/BCBiyc+9gJooAQFwKCW4idAE+SEAEhAkIBBYRAIQseTnww5qogQEwKGU4CZCE+SHAEjARQz/8nOboSYfiwBErI9FHq6rlATAoZTytkKjPhYBkIAgAYHAIhKAiPWxPtrgukpJABxKKW8rNOpjEQAJuIjh/2PdVLiu/BCAiCU/9wJqogQEwKGU4CZCE+SHAEhAkIBAYBEJQMSSnw87qIkSEACHUoKbCE2QHwKzSMBg+AMCQAAIAAEgAASAABBQdgIjrzloY4y85gQHB5PTJGxAAAjIhAA4lEwwQiFAABEAh4InAQjIkMAsvYAyLB2KAgLLnABErGX+AEDzZUsAHEq2PKG0ZU4AJCB0eQKBRSQAEWuZf8JC82VLABxKtjyhtGVOACTgIob/Zf5sQfPJaRIiFjwGQECGBMChZAgTigICIAFBAgKBRSQAEQs+ZIGADAmAQ8kQJhQFBEACLmL4h8cLCEgfsdILrkUknKASS8lNTsiIp6Yge3hyWHwbf8nFOQsfFp67GoN3wQACSkNASod63PLo8KlDUraaw+dQc6YXXMt7cJucJtMLrt2rLqIeotqBZw7nledRU4LPBpU+KaGmkNNk33hfyWNRYuCZwym5yeQ0eTU/dXBikJwmIxMjWnqbaflhFwgsJYF5S8DG9kZ7Z/vwk+FLWUu4FhBQUAISI9aJ+HBjJyNjJyNtK63VFurIDjoTyHvFM93KyrybId5wA3s9gsWkbfeqi/Ie3A6/GEZOk1dyLu8KdBc/EVKAgKITkOhQqIEFDwuMnYyQPf5qvK2/jbZ1DnWio2dTo7fud+W94qHdMcGYsZPRncp8pNXWupiMTo2iQ+j/Jt+NyEk1zNV0bbSRfaPwelt/m6op0TbwnJqZnCZ7ub1rnI3a+tt2H/W5eCMut+yWjYfVqGCUw+eom6nWtNbQ8sMuEFhKAvOWgJu3bma8+2tsb1zKisK1gIAiEpAyYpHTZGJWArXfovBhIU3k+Uf4YQIpucleIR7kNJlbdsvB2w6lp+QmI+UHEhCDAkPJCEjpUFQJ2M3pprkSwWKa7zBDZF5wXhjY6V3JuYx2bxZnrXMxQX3qXCHXwdvuQyrNK8Qjo+jHb2jhF8NoV0nLv4rKPH/t3N2qQiQBj8cdq++sJ6fJqmcPVdkErQNSyW4WNEf+CcxbAl7Puf7ll1/qGerRvhvN2lTP3Z5IL94rvzdrBkgEAspNQGLEah9sd9rt6LTbcd1mE0MHfWTfe3Tv243Gxk5Gw5PDXCHXabfjpazE8VfjmBVIQIwCjGVFQKJD9Y71dgx1XC9IN3TQ7xjq6BjqkMgn6eYlAzu9Ad7A2067Tb4baUoO7yLBl1+Rh5xU31aX7cpCdnndA1VTwivEY/wl9wXnhbaV5pPnT1DPopblarUNKmobVFTYq1TZBLK9Q70uZSWudTFBNUT/QQ5KvFOQQeYE5i0B51UDkIDzwgWZlY+AxIjV0tuMOiRwL6DTbke/cF8Xv00BUfsSMhNKa0o0zNX6xnoRnMSsBByTqMbhU4egF1D5nh9oEY2ARIfaFuBK9Qu1DSq0EsR3RyZHjBwN7lYVlj0tI1jM+IyLaKxt8eNiXRttPO6WKxQNt03LvxoUHUhOk6gXcHRqlGAx/cJ9w+PDLHea17Q8PpV00t7rfcc8vlZ8xkWCxVxtoZ6al4oS9xzzodaTYDFzy27h/GAAgaUhMG8J6LDRAXXsPW152tjeiOz9h/YfCT/yzR+/+cXnv1izdk1TZxM5TZqsM0FH0X8VNcmuuDRthqsAgSUjIDFitfQ2a1ioU3sBta0079feHyQHX3BerHE2st5lGZ18BleYw+f0jfV6h3qdvBTZN9abXnDNxsOqb6x3aGIIJCCmBIayEpDoUKjh7oE7Dez0UMd513AXbSAg2n3BeYEp9Y71jr/k2npYEywmfilc0VChZ6OD8yAjLf+qkaOB027H972APg4Eizk0MTT+knuvushih5mujTZtUkh+Rb6+va6th/WR86GWO839wn1fcF5oWmqgYRvjL7malhrNPTAvBKZmfgQCspGA//Xf/0VVe0yCCRKQ9sEBu8uTgJQRK/NuhoaZmoO3nVeIx/P+9yPKhyaGnPc4qrBXVTdVU+mNCcb0bHSqm6poYwErGytRHwOMBaTiAluZCEjjUIPkoIaZGsFiRqeIvjs5eNvR+tvQLm3K1Jnk0/r2uhv3OH2oFxBjHH81HhITpMJetWmvc/jFsOHJYXSouadZz0Zn3WYT3GfPFXIjEk6stlAvfVKCxgL2cnv3R+5LunnJbJuptpXm6NRofWe9vq0uLhwMILCUBGQjAT/77LPzCefTMtN+9/vfIS1Y86ymh9PjusMV7d7IudE93L2UDYNrAQF5ICAxYg3wBsLijlu6mZ+IDz906mB2aTZry7oXnBe37uds2Mp2O7zj/LVz2laasekX0EIS5DR5+vIpPGKdOh0Et/fCtfMeQbvwLhhAQGkISHQocprMvJe52kLdwE7PbJtp2dMy3Pa0/KtWbhZ4l2qMTo2u22ySXXJzV6D7rHqRYDHRHJGmnia3wzv2HNu967DbtTtppy+f2uLvMjgxePFGnK6NdkTCCb9w33UuJtml2eOvxnmveD5HvKubqsZfclNykx82VpLTJFfIXediklGUYbnTvORxyY3C6zsObqNWBmwgsGQEZCMB17HWoRq7e7kjzZdfLJpUD2MBl+xGwoXkk4DEiBUUHbg/cl8vt/dSVmLgmcNoIbHbZbnrXExSb6egEeUlj0us3CxOxItWYsqvyFc3Uy1+XIzam1t2y3qXZcHDAtQVcSb5tIaFuoaZWnzGRfkEArUCAj+FgESHIqdJj6Bd/hF+xk5GhQ8LTbeyyGkSqTcsAUcF/7DOCzlNjk6Noq9YuwLd53gRzBVyHX3sz187N/6S6x3qlXkvEznskfOhTrsdS2tLUdOu5Fw2dNC/W1WIW1rw8I7Z9g1ol/eKl5KbPCYYC4oODL8Y5hXqef7aOZwTDCCwlARkIwFtHWxRpX33+yIJeLtItLQmSMClvJdwLTkkIDFi8V7xxl+Nj7/k0jYOn0NNGROMobg1OjVaUV9ObWnfWC/BYjZ2ixZp4vA53ZxuaWbrU0sAGwgoCgGJDoXeq966n4PWBUS9gBu2ssvrHiAJyBVyjZ2MGrsaqE0+HncMfcWaWwK+1Zcih53NW7nCf3Bh/HbYP8KP1q1oYK83Jhgjp8l71UVsV5aW5er2gTZqZcAGAktGACTgRxiAuWR3Fy700QlIjFhoaiEtSIjv+obtxW0ZfzXezenGW31nPcFiVtSX45RuDgy6AL9WTgISHWpbgGv4xTDquoC1z2u1rbRGp0ZxL2BA1L7jccewQ40KRg3s9bLedenN8SIY59ez0RH3UFoK+iEQUQfkq/HSJyVrN307PDk8/pJ7LPbooVMHUVHjL0ViFN4CY7BgLD2BxZWAfgF+qFPQd79vzTNYBl05P5SX/qlVoCtKjFioLd0jXbuP+qAJjI3djXjg0awt7RjqoMUb2q40C2HMWjIkAgE5JzC3Q40KRu08bfp5/VQJeDIpyi/cF63ngsYClj0tM7B73xVHTpPZJTe1rTRHJkfeKrZdge5x1+MGeAMDvIGi6ru6NtrIRqsGYjilNSWnkk6i3ZTc5E2+G/EhccN5j+Mm341t/W1VTVXaVpqow56cJtv62/RsdBy87ai/7ih+OqQAgcUjsLgS8EbODSQBGQwGa4NoTAZsQGBZEZg7YmEULb3NWPYhCahro61no4O2I+dDcU5xg/oiWPwopAABZSIg0aHQkD4sAfvGenVttO/X3qdKQN4rnqGDPh66t3W/6/7IfYiSxBfBKFta/lUs+1Jyk1VNCeytejY62aXZVObtg+2h50J0rLWMHQ3jrseiQ2OCMUcfB8/gXWs3fXvh2nlqfrCBwJIRWFwJSE6TxyKO/duf/u2zFZ9p62ovWavgQkBATghIjFionuISUPqOAZCAcnKvoRpLQEBKh8IS8GRSlOu+zahi+EUwOU36hu0Njxf9oHZjVwPBYuKJw7sC3WPTL/SN9faN9RY8LNCx1kJ231gvnpKP1CRVAmJ7VgK8V7zUvFQDe72Ne5yMnYweNlb2jfd5hXhYuVsOTw4XPy7WMFdDM0tmPR0SgcDiEZi3BFy8qkDJQED5CEiMWHP8IBXt9S76UWDp81N/U1j5wEKLlicBiQ6FsGAJ2Dfe19jV0M3pftzy6FjsUTtPG5Shuqm6vkP0W73HYo9a7jRHU+/Ri2Ca3+Fd0VCNl1y8K9FIzEoYf8k9lXSS7cpC81HIaTKvPK/0Sck6FxN7L7u2gfcrgCZkJqiyieRbV5bnPYVWf0QCIAHh3TQQWEQCEiPWqGB0dEqqDc0i7B6Z/acOxH//oPfvvyn3ET9f4NJAQLYEJDoUuhyWgGi37GmZqilh6KB/8UYcrT5jgrHWvlac6BXqiWdy4ESqIaW3jk6Noo78+IyLRdV3qT/wXd9Rf+zCUdrCNHkPbrf1w7zgRfwopt5EsDEBkIDwzAGBRSQgZcTCDgkGEAACcxCQ0qHGX3LR9I45ioJDQAAIgARcxPAPjxcQkDJiASggAASkIQAOJQ0lyAMEpCQAEhAkIBBYRAIQsaT8JIJsQEAaAuBQ0lCCPEBASgIgARcx/Et5DyCbEhOAiKXENxeatvQEwKGWnjlcUYkJgAQECQgEFpEARCwl/vSEpi09AXCopWcOV1RiAiABFzH8K/FzA02TkgBELClBQTYgIA0BcChpKEEeICAlAZCAIAGBwCISgIgl5ScRZAMC0hAAh5KGEuQBAlISAAm4iOFfynsA2ZSYAEQsJb650LSlJwAOtfTM4YpKTGAWCRgMf0AACAABIAAEgAAQAALKTmDkNQdtjJHXnODgYMGMEDYgAARkQgAcSiYYoRAggAiAQ8GTAARkSGCWXkAZlg5FAYFlTgAi1jJ/AKD5siUADiVbnlDaMicAEhC6PIHAIhKAiLXMP2Gh+bIlAA4lW55Q2jInABJwEcP/Mn+2oPmCGSFELHgMgIAMCYBDyRAmFAUEQAKCBAQCi0gAIhZ8yAIBGRIAh5IhTCgKCIAEXMTwD48XEFikiHUs9tj9ujIq3msF6UnZSdQUqj0m5HKmRj+08X/gUzMjOzgmqKCqkJoeej60vKGcmiKYEfLfTHFfjotv1GzxmfGF1XepKWADgYURWCSHEswIM4oyTiZFUWuVlp8m7lPD/JGyugeiDv6YoLT8NMGMML0wfVQ4JpgRnrx8sn2onVoC2EBAzgnIWAK2vGh13OQYGR0p582G6gGBpSEgTcTyOeJFsJhzb26H3XCFO4Y7VdirHrc84v/AR9vUG4HpVnZs+gWcwv+BP/VGgE+x87SZo/ya5zU4p4v/JmMnY2Mn49Xm6rq22sjOKs7q4nSrmhLdo904JzKaeppnLZn3mjyTfCbnfo5gRrj3+J7Em4m0E2EXCCyAgESH4v/Ab+pplmab/F70zSfqUiR6yLWttVZbqCM7JCZ46o1gwzZ2dslNWiWHJofXOBt3cbrRU51fmW/raU1+N8Gb5qmbqdZ11tPywy4QkGcCMpaArjtcGe/+Wl60ynOzoW5AYGkISIxYghlh50hXQ1cj3iITIxx97PEuMtqHO3CFTyZF0VRXbvltWgrBYmaXZuNT7DxtMu9l4l1scF+OEywmVQLiQz5HvKglRCZG0C5xvfA6zux3wu/yrcuCGeHRC0cjEyNQut8JP6T8QAJiUGD8RAISHWpoYoj2oH5ot4/sp1bm8q3LQdGBOKW4pph24v6o/eho3I3YkifF6KkOjw9r7m0WzAhrWh+rsgneNIlLAAMIyD8BGUvArLysL7/60sDIgHw9IbHxmbczkV4MDQuVmBkyAAFFJCAxYok3Kjol2ueot3g6SqnvatCw0Khuqs4oyrT3thPMCPt5fWucjS9lX5p6I3Dx23QuLUb8XOkl4N3qu857nZ33Ouvb6ZpuZSO76lmVqinhc8SL/wO/nxzQttas72qg9jKCBBRnDimLQWABDiWYEbr4b4pNvzBrfV6M9aCHfP3mtUaOBsgufXr/242ivnDuy/HJ7/nOe52v3LrMfzMlmBFqWa1W26CitkFFhb1KlU0ge/dRnyu3Lq91Menh9uIN5OCswCFRrgjIWALOq20gAeeFCzIrIoEFRKzQ86HU3ghaq71DPcMuHhfMCCe+m1y/ee2TttqErAS3wzuRIHv24pl3qKf42D7pXwRfL7weci7k7SA/1AvIe00SLKZ/hH9kYoSlm0VdR92Z5DMO3va4Vh96i51dmg29gJgSGLIisACHmlsCtg+1m+80F8wIcS+g815n/wj/zftcDp4KSMq5/KD+wWpz9aGJIWoTLmVfIljM1Rbq1wrSUbpv2B5ar2F+ZT71FLCBgBwSmLcEdHJxQl13jR3PUBxCuwZGBoIZIe3ov/7vf2UwGDr6OjkFOf/3f/7vipUr/7bqb4X3RQPDj0UeRyfi/+Mvx+UQEFQJCPwUAguIWL5he2jD0qkV4E3zeNM8wYzw0OmDF2/EoUMT303iPD5HvGgzRQQzQumng1wvvG7saPhjL+AeR4LFHBNy+T/wS2tLLXaa69pqUyeFjArHBieG1jgbF9cUD00MBUYfPnIhdGhiiPeaBAmIbwoYsiIgpUN1jnQ962nCF52jF7B9qF3DQsN5rzPuBdS21qxorBwVjPWTA2ucjW08rGKu/kPPemH1XQMHPTtPm2OxxyzdLN7qxX5yQNNSwyPYQzRB6ge+pqVG2yDMC4GplgpAYCkk4J/+/KdffP4LLPV++atfdg11gQTEH09gKDEBiRHrQ71otB4FgsU8dPoABlXZ+FBtgwoahIQTkWHtbvkTux/4b6aOXAhVYa9y8dsUkXCC+/fvZm2D7Xq2Ous3r6X1iNS2P9W21kIylDoWMKs4q7yxAqaD0G4Q7P4UAhIdChV+JvkMEmRodw4JiDJkl9zUMFNz9LH3OeLVOdKFEseE3I2+zirsVU/aalHK5Pf8k0lRqy3UyxvK0VjAocnhAycDknOvmG/foG2tyXtNNvc269vpovzwHwjIOYGlkIAMBmO33+47pQVqq9WREIyOPTsm4CamJKJd/4P7uofpMw3lHBxUDwhIQ0BixOoe7abOXkSDygOiAta6mFDTm3qae7i96Iq8aZ6Vu4VH0K72oXZxpYhTYq6eFcwIt+7fglPmNtDo+OeDbe6Bbr5hez2Cdt24eyM6Jdp1/+ZR4VjizURdW+2TSVH+Ef7rXExyy2+joVGT3/O3BWzdH7kP1Y0qATEft8M7L2VfwrtgAIEFE5DoUKhkcQlIe/gvZlxEOTlToyfiw63cLaIuRQZGH84tv812Xd9PDuRV5JltM3UPdIu7EattrXkx4+KocOztcIs9x3bXPK/h/8BPy7/6uOWRYEY4+T1/nYtJdmm2pZtFWd2DrOIst0M7FtxAOBEILCWBpZCAX/z6CzRQ6XrODaT5DoUcEswIYSzgUt5puNZHISBlxMJ1y6vIM3TQv3H3xoZtbJxINabeCPzCfQkWc+/xPfwf+HjsOTbMd5hdu3Oth9uL1iobnBhCh/Ye37P9wDacTdzgv5ma/J7vtNsh7kbs2zVldh/1QUu6DPNHjsUee/tqGHXpCWaEqf8/e+cd11Sy/v+s+72Wde+96+5turu37+7vfm/B0EFRQQUTepGOAiJKE0Gw0xQbCoICggWwILgqgiAqIh1EEKX3ICUQciiJRnfNfz/Z8Tt7bhJCwIREeHydFz5nzpwp7zOT55M5M5PMZF3blfcf3ePwueHxB1fb63WyGKiQYafDAo8GoI3TfhKgzhqmatoWmmU/OUtyRcAGAlMgIGGHEpaAB2IPkL9Tdf/f3L7gmOBdETt7hnsv3DwfFL2fw+f2jvTdLrpt4LT28u3LyHPlVz202GJ27OzPm53dLc81cTNG5R99w7mUdWno9XBwTPCRhMM+Yd5xV2OnUDW4BQhMP4HpkICLlyxGFbt1NxNJwF37d4MEnP6HDTlOPwEJPRYumE+Yd+DRgPS76eNJwJMpJ9WMVbbsc99+0JfD5/ZzBnzCvHuGe3EKIl8ED/8wsspmBdrJFscUaYy+4ZA3F0Q2m8ce/uHdHoQoBL8dbu5tIW9Yw+Fzs4qy9Oz0UOJoQhUaLxSZHQQCgUkRkLBDCUvA8VYEjzX4N6Mi2zw5cOj1MPF6bJuLwGOBAgOKq2xWoFkQeZV5hi50LXON9v72SVUKIgMBeRGYtAR02OiAZFxJVSmHz+3sZ6BTMctBQALK6+lCvnInIKHHQuWsaKhQpi+taq4SIwGTbyVdvn059sppJAE5fK5z4Aa0hhclIlIC5pblCvgt8il54jyHz9WxWka+KtImq0k2j80guvBxJeeKru1KfMogunpH+uT+IKAAM4OAhB1KcgmIFr+LbOTkQP/D/gjgyJvRgicF+o5rWC8GR34cCY8/uC9q77tLP47o2enBW+CZ0dJmSS0mLQH9dvojzbfOcF3mvSxzK/MpS8DMe1noXn2awYPS//q1q1lCH6o54wlI6LE4fO7gS/bYbPSfdgQUloB3y3MzCzMxLrIErG59omqkjGWcSAk4wGWRNRm2MwszlelLhTcwe1j9MDIpEmV3KeuS0w5HnLWwcT3vOtlZCttuu1yF74IQIDAFAhJ2qElJQLS55tjMip92/qvrqqfSlIR3VsKldfCzd9rh2Mpsq2h4pG2hWdf17ncQWpltOlbL3vZiMffiRMAAAopAYNISsLS67OOPP0bSjUKhfPnVl4s+X0ShUKYwCtjB7MQrhT9b9Jki4IAyAAHpEpDQY7F57E27XPWd1qJXSMISMP5qnE+oFy4bWQJy+Fz/Q354IFCkBMQ3Chgpt5INnNYKBHL43NScVCz7LmVdUjGk6lgtw0dGwS3hW3AI+UUwDgQDCEiFgIQdarISEK2sQtINScDlVtq4wR+IPUAufPtAR9jpsGWWWqttdc+kn0GXhl4P2/vaeYd46juuwbs1ke8CGwgoIIFJS0AOn5uUmvy3v/9t3vz5qhpqxY9LFi9ZPDUJyOFzb+TcXKq8dP6C+b/7/e/bmR0KCAiKBATeh4AkHqui4ZG9r+1Ka506Rh3KKyP/5or1y/tGmeh05McRrxDPw2cO4ZIISMAuNgNtFsjhcyclAXce27ktzAcniw0BCYjlII4gxgAJKAYOXHpPAhN2qA5WZ11XfXBMsEvgxrquenRYe68PjzuIT5HRxX63honD5wpLQDEjeaNvOJezr6yyWeHo56Bnp1deV9Y70ucT6mWx1Zz1YvBBVb6GiRpaSvWelYXbgYCsCUxFAsq6TJA+EJgxBCb0WBHnjinTl7rvcWvobsS1bulrXW6lTX6jqmmmXtVchSMISMCxWbksRlNvc2N3k4HT2tyyXBxT2GAQXT3DvcTroYbuxuVW2uRZfSM/jpAzFW+fv3l+UvHJvyksXCoIAQKSEJiwQ0m+0Sb6DR6nHY7i2zm+in4gMTIp0tCFbuxqWPK0hMPnZpfkFDwpMHBaa+Nt3db/bmuzczfOq9CpFzNTJKkRxAECciQAEvAD2L9bju0Dsn5PAhN6rIqGCpE7ObNeDNZ21j5prXnSWlPTVsMc7SeXRFgCnr58SsWQ+nY1ov12+y7iOTmygJ1wLQF7tQ0BToMvx35rBB/sV4SEBxomaWW2SXgMcFk4FzCAwNQITNihJpss8XpIwgaPlv2evX42r/I+eZH7s47a8LiDaL0wzj27OLuVCZvd/vzBgsmAoVAEQAJCGwUCMiQgdY+FPj7evhom/yjcZD9TiNdDrBeD7FfEZG+E+EBAvgRk1KHkWynIHQjIiwBIQBm6f3k9VMhXcQiAx1KcZwElmQEEoEPNgIcIVVAcAiABQQICARkSAI+lOB92UJIZQAA61Ax4iFAFxSEAElCG7l9xHjOURF4EwGPJizzkOyMJQIeakY8VKiUvAiABQQICARkSAI8lr482yHdGEoAONSMfK1RKXgRAAsrQ/cvroUK+ikMAPJbiPAsoyQwgAB1qBjxEqILiEAAJCBIQCMiQAHgsxfmwg5LMAALQoWbAQ4QqKA4BkIAydP+K85ihJPIiAB5LXuQh3xlJADrUjHysUCl5ERAhAYPgHxAAAkAACAABIAAEgMBMJ9D3iokOSt8rZlBQEMEj4AACQEAqBKBDSQUjJAIEEAHoUNASgIAUCYgYBZRi6pAUEJjlBMBjzfIGANWXLgHoUNLlCanNcgIgAWHIEwjIkAB4rFn+CQvVly4B6FDS5QmpzXICIAFl6P5neduC6hM8AjwWNAMgIEUC0KGkCBOSAgIgAUECAgEZEgCPBR+yQECKBKBDSREmJAUEQALK0P1D8wICknuspJsXIi+cECb2qOFRU3eTcPiV7MtHEg6Tw5MzkhLSzpBDCB4x+HKwd7hX+CBHi0uNzSrMIoeADQQUk4DcOxRjkHG//D7BI/ZF7k3OSCJ4xMWslO6hboJHHE08UtdZq5jcoFRAQCQBkIAgAYGADAlI7rEOxIZ5BXsI9NLyurJlFloxF6Nx+OEzh/TsdPXsdLXNtTRM1ZC9P3If+yXb0IWWficNx0RGdXM1laYkfPSP9h8/F5F+N53gEdvCfOIKiaSEAAAgAElEQVSvxgncCKdAQAEJyL1DdbI6V9vrNnY1ol6TkX/T0sO8n9PPHGGqGatU1FcoIDQoEhAYj8CkJaCNgw3lp3+P6x6PlyiEAwEggAi8j8fKLMjUNteKTxUtzhKvJew9vgdzzinOEdB5O47446t+4dsTryUQPCIkJvjQmXAU7he+HSk/kIAYFBgKTkAROtSpyzF3SnJQrzkYd6C6pZrgESVPi1XoVOYIU8EBQvGAAJkASEAZjgCRQYM9OwlMzWM19zQHHNmhaqScdPOCALem7ia7bbZ222wNNqxdZbMC2XfL7q5x0NOz0+0d7mVxWXbbbM9eSxx8OYjvBQmIUYDxQROQe4fSMtNQNVJWNVJWpi9VoVOR7R3idfZaor7T2uaeZnyAHPygW9osKTxIQJCAQECGBCbrsfpH+6NTTmqZaZhvMSurLRP+GKrrrDVxMyZ4BB4FtNtm63/Iz8nfceexgIT0hLyK++omqoyBTnSvV7CHwOggOk3LTYNRQGG8EKLgBOTeoRCfM2nxVJqShqlaSmYKCvE94CPQ0TLybyo4TCgeEJCCBLxw+YKquuqnn37661//eqXeysy7mQhrTVMNemUcuCcw9FDo4iWLF3yyYLX+6mctz1AE5ghzq/fWz7/4/Ne//rWHj8ehiEMo/oXLgiMf8JyAwAdKYLIea/Dl4K5jgSdTogY4AyKrXNdZq26qRh4F1DbXfFD5oJvobme2r7bXtdhqFpUUie/tHuruHBibvZRTnMMY6NxzfHdw9H7GQGf/aD9IQEwJjA+FgNw7FMEjsgqzVlgvt/KwCD0VYrbZxP+QXzuzXdNMfeu+LWMLsF6wNM3UaztgXYgMv1p/KM1V8cv5vhIw9FAo0m3478cff3wx7SLBI7AE/Mc//4GvUigUJaoS4uKwwYEc/s2336BTkICK326ghBISmNBjNT1vrGyorGyoDDjs7xywEdki/7b1teJM0++kqRur2niv9wr2aOhqQOE9Qz32vrbK9KWlz0pxTIJHlNWWaZtrIU1Jngt4NSc1rzIPloOQWYGt4ATk26FYXNaRhMMapmp5j+6juYCdrM7AowHnvj9r7Gqoba7ZP9pf3VK9wmq5gmOE4gEBROC9JGBrd+vcuXMpFMrvfv+7nAc5qTdS5y+YT6FQFi9ZPPhiEEvAuXPnnko4dSn90he/+QKJvIqnFQ0dDR999BGFQlnwyYK4s3Hx5+MXLlwIEhDa5QwjMKHH2nt8j8D7o/FOj5+LIHjEc/bz8LiDZu4mh88c2nN89/W867SNBu3M9psPbhi50N33up26HKNtrhl75TTaqILFZbkEOgccfrc0hCwBMWq3PZvOpMXjUzCAgMISkG+HYr9k+4R6lz4rGXzBSs5IKq4pIngEi8sycFqblptmttnkfvn9qzmpbrtdFRYgFAwIkAm8lwQ8m3IWibbAPYEoUSsbKxSSX5qPJaABzQBd3eK1BV3NupeVdCUJ2Rs3bURXN3tsRiEwCkh+QmB/0AQm9Fi4duRNYfZH7vMO8cKXyMb+qH2BRwM6WZ1nryXui9xL8AjGIONWfoaB09qUW8nsl2yCR9wvv2/ubnr4zCGCRxyIDVttr9vS04ISCYkJDjjsjzY2I3iEc8DGt0Ma2uaaRT85M3JGYAMBBSQg9w6FmGQX3zbeZIRs9kt2ckbSAGdgf9S+Q/HhXiGepy7HKCA6KBIQECbwXhLw8PHDSLRFx7/bt2yb/zYUknYzDUtAKxsrlLFfoB+6eiv31olTJ5AddjgMXT0aeRSFgAQUfk4Q8oESmJrHqu2oVTGklteJWA7CfskefDk4+IIlcLydWUsOGeAM9HP6CR5Rz6ivY9SR6WXk39Sz00UhaAYhee0wOSbYQEDRCMi9Q+044i8wTr/SWgfNsrhbmkt3pmmZaTQ9b1Q0blAeICCSwHtJwMTkRCTa/He+e81kbmWOQsijgCIlYEJSAorp5ftutMN/pz9IQJEPCQI/XAJT81gEj9h5LMDKw6J3uFe47uMt8iV7Jr/w7fhG5gizjdmGj4tZKW93k8Gnbcw2xiADRwYDCCgyAbl3qMGXg3mP7us7rukd7h18wToQG7bn+G5EbPAFS89OF94CK3L7gbIJEHgvCdjyvOUXv/gFhUL54jdffJ/5/bmL5+bNn0ehUP6w+A/kuYAiJeCjZ4+Q4Pvt7357r+heXnHe7//we5CAAo8HTj90AlP2WN1EN23jOq8Qz8EXLGEIbX2t28J80OhdTVsNlaYkMhq6MS03jawOhW3Xnc7CWUAIEFBAAorQoex9bR39HBq7GkuelWiba9a01SBQjV2NOpbLbLzXi+mMCogUijSbCbyXBBz7sYHwEKTb8N85c+YkpyaTVwSLlIAEjzCgGeC7KBQKSMDZ3BBnat2n5rFYXFY7s728rkzHctkGfyc8kw9TquusxbIPScDllto6lsvQEXoqBMcUNsgvgoWvQggQUGQCitChmrqbQmKCl1lo6dmuikuNRbgGOAO2PjaeQVv1HdecvnxKkRlC2YAAJvC+EpDgEWdTziqrKi9cuPBXv/qVzkqdmznv9sMUPxeQ4BFdrC6HDQ6fffbZp59+auNgg/cFTLn6brNNXEowgMAHSkByj7Uvcq/jdvuz1xI99m/VNtcKjg4ieMST1ie0jQYr1+tEJUWSN4URloCSDzyABPxA2xIUm+ARitCh2C/ZKZkpK611HHzt9Ox0i2uKGIMMr2AP8y1mvcO998rvqZuool/fhkcGBBScwKQloLTq08XqUtNQU1ZV3uK1pW+or4fdY2xmjAYFix6NrbSHAwjMAAISeqxOVudKax0qTUnPTnfv8T2ZBZk9Qz2o+p2szkNnwjXN1JEodPRzEH6TKzLEK9hj8AVL5CWRgZeyxrbzhAMIKDIBuXeo4+ci6M40Ixd6QdVDgke8/SHvvEf3DZzWWnutb3z+bofOhPQEFTpV+NcdFRkslG12EpCbBCR4hL2TPdJ8H3/88Zw5c5C9znDd7HwSUOsZSUBCj0XwiMikEyVPi9GuLsIo2pntaGlIP6e/f1SiA61SbOxqlPDAolM4dwgBAgpCQO4d6kxafG7pHfIi+urm6gOnw9ACfEwp8+Gtxi5YFwxfKRWdgDwl4ABnIOxw2D/++Y+FCxcu+GTBP//9z6ADQcxhJu5FYACBD52A5B7rQ68plB8ITAMB6FDTABmymD0E5CkBZw9lqOmsJQAea9Y+eqi4LAhAh5IFVUhz1hIACajo47SztmnOjIqDx5oZzxFqoSAEoEMpyIOAYswMAiABQQICARkSAI81Mz4ooRYKQgA6lII8CCjGzCAAElCG7n9mNBGoxfsQAI/1PvTgXiAgQAA6lAAQOAUC70MAJCBIQCAgQwLgsd7n4wnuBQICBKBDCQCBUyDwPgRAAsrQ/b/Pg4F7ZwYB8Fgz4zlCLRSEAHQoBXkQUIyZQQAkIEhAICBDAuCxZsYHJdRCQQhAh1KQBwHFmBkEREjAIPgHBIAAEAACQAAIAAEgMNMJ9L1iooPS94oZFBTE4XPhAAJAQCoEoENJBSMkAgQQAehQ0BKAgBQJiBgFlGLqkBQQmOUEwGPN8gYA1ZcuAehQ0uUJqc1yAiABYcgTCMiQAHisWf4JC9WXLgHoUNLlCanNcgIgAWXo/md524Lqc/hc8FjQDICAFAlAh5IiTEgKCIAEBAkIBGRIADwWfMgCASkSgA4lRZiQFBAACShD9w/NCwjIyGMdiD3woCqfjPdy9pVz18+RQ8j2AJfFHO0f7xj5cYQcGdnB0UG3i24LhxfUFLJeDAqHB0Xvzy7JIYeHnAopeFJADuHwuUOvh1kvBgUONo8gR9t5bGdTTxM5BGwggAjIqENx+NyLmSknU04Kc65ufdI+0CEcLmGD7x3py696OPZCIHr/paxLHD73Ss6Vfu4Ah8+NOB8B7VwYLIRMJwGQgCABgYAMCUjisXxCvag0JfGH+153/LnQ3NuiTF9aXlc28uMIOkbfcAxd6LFXTuOQkR9HRt9w8C3rPS3FpF/RUIFjYmO9p+X5m+fxKTIuZ1/RNFMnq0+nHY56dnp6dnoaJmrLrbSRfe3etVZmm4ohta2/TSCFlMxk4ZLYb7fn8Llb92+pZ9Rx+NxVNiseNz8WuBFOgYAkMytGfhx51lEryTH8w3998wmPP+gT6iUA+XHz42WWWrFXTuPwyTb4nuHe1fZ6rcy27Qd9E79PzCrKsvK0IF4PsXlsNWOVqpZqnDIYQGD6CUhZAto52VF++lfT/HT6KwM5AgFFIyCJBGzpa33SWoOPo4lHbH2s8SkymnqbcdUizh0TUFEZBbcEQqg0pet51/Et6z0t0++m41NssF4MUmlKkkjA0TecqOQobQutwpoifDvZ8An1Iud4NPGIQJFSc1JxfD07vSetNRw+12KL2d3yuyhcz04PKT+QgBgUGAIEJuxQPUM9Ag1vvFMG0UVOXFgCZpfkaFtoJVxLIEfDtuQNPu5q7P1H95AEPHQmvLazlsPnVtSXq9CpAuPfOHEwgMD0EAAJKMMRoOl5hJCLIhOY0GMJFz4qOconzFs4HIVUtz5RN1UvfVaalptu7b2ew+d2sRmr7fXOXj87+obj5O8Ycyla+N73lIAVDY8c/OxXWutU1JcLJH6n9I79dnv77fYr1i83dKEju+RpiYoh1SfUa+THkS7iubaFZnXrE/KoJEhAAYxwKiGBKXQoDp/rtMORPJInMi+yBOxgde48tlPVSPliZopA5Mk2eC1zDVUjZVUjZWX6UhU6Fdnbwnwu3Dyv77S2g9WJD5CDAqjhdBoIgAQECQgEZEhgCh4r5FTI/qh943V+7xDP8PiDaFLdug36jxorE64luO/djATW0/an3iGewnP7pvwiuIvN2BWxU5m+1CfMmzHIEC5Vak5qcEwwh89FgyLsVwSVprTjyI6jiUfM3E2rmqsikyJtvK3xjTpWy0SOynSwOmEUEFMCYzwCU+hQk5KA7FfE6cuntMw1LLaaVzaJmI0w2QaPKnL2+lkqTUnDVO1y9hUU4hfuK9ARsoqyxqs1hAMBGRGYtAQUeNU79HoYvfldqbuSw+cKXOXwucWPS+jG9C9+88WCTxb8Z+l/Ys6cQjWpa69HN+7av/vgsfDFSxYv+GTBGoO1jYx308DZPMJzm+cXv/ni15/92svX62jUURQ/Je2ijFhAskBA6gSm4LH8wn0jzh0bryRsHpvNY3P43D0ndsdfjUPRhl4P4/g+oV7kuXoofArLQdBcwO6hnk27XMU4p9ScVD3bVT+PAvraUmlKA1zWyI8jeZV5pptNlltpkxeF9Az3VjQ80jBVYwwyeoZ6TDab3Hhwo2eoZ+TNKEhA/BDBGI+AhB2qpa/1accznIjko4Ajb0b3nNh16nIMuU/hdDh87mQbPIfPzSm9s9JGZ72n5YHYA2bupjuO7OginmuaqXsEebz97jTy44immXpjN6x/kuFXcfITBJtMQLYS8F7hvXnz5yPphv96bx97yYUl4P/+63/xJQqFslR5KSqfk4sTOfyb775FpyAByc8PbAUnMKHHkmQtCBot2HNiF65sUU2xqpEymlSEA5FhscVMjGITiCx8WseoQ7MPTdyMjyYeQbbIvwNcFrp95M1o6OkQZfpSJ3/HIwmH8Xrhxu4mHatl6zbo9wz1kDP6adjy3eoW8lzAqOSo9v52WA5CZgW2AIEJOxSKH5kUiQQWOhUjAdv721HzDjwa4BLoLLKpo8Au9rtRcMkb/PAPIxHnjmmYqhU8KUBzAXuGe3dF7EzKuGCyyUjbQpP9iqjtrF2xfrlANeEUCEwPAdlKwP8s/Q+FQpkzZ86ZCwklVaV//+bvFArlo48+qqqvwhJw7ty5cefiU29c/c1vf4NEXlVDdWtP60cffUShUBZ8siAhKeFsytmFny4ECTg9bQJykSKBCT1WW38befUimiS+89hOfae15PBnHbUdrE5UMDaPbb7F1GP/1qaeJoF3SeTT6ItjO1y4BG4kB4qx0ex4I1e6mDjkSw+rx7a6aOhu3LLP3S98u8f+rVfvXI1KjnIO3NDPHUj8PnG5lXbEuWM7juwwcFqbUXBr5M0omrmoZ7vqSs6712FkCYhqR7weWmapVdVcJcWnAEnNGAITdihUU2EJSG66VJpSfFo8irk/ap/ApfFOI5MiJ9vg307P8D2wraKhYuTHkUtZF8vryjh87vAPIwZOa6/nXTdzN82venjt3jX3PW4z5gFBRT4sAjKUgG197Ui0LVuxDEGJOXMKhYRHHMIScJ3hOnTVw8cDXb2Tn3sx/RKyXdxd0dUtXltRCIwCflgtbJaXVkKPhSllFmausllx9c5VI1c6DiQbo284/of8qDSl7Qd9R34c6SBNJ0e2iZvx5duXO1idaO+x7qEeFL79oO+mXa7C8XEIkmg4L7wpzOgbjulmk6SMC/gSNoZ/GLHbZhN3NfbtHjTbwnxuPLjB4XN7R/oOxB54+2q4oKYQxUzJTNa1XXn/0b3RNxxrLyvXnS44L4stZvFp8WhrjAEuS8dqmbqxKt15HXO0H+cCBhDABCTsUMIS8EDsAfJ3qu7/Hpnm8Lnk5SDB0UHbwnxwptiYbIPHN94tzzVxM0ano284l7IuDb0eDo4JPpJw2CfMO+5qLI4JBhCYTgIylIDlNRVItNk42KIq3ci5iUJ8d/hiCbje7t1U8R27A9DV7Ac5J+OikR0ecQjdezzmOAoBCTid7QPyek8CEnosnItPmHfg0YD0u+njScCTKSfVjFW27HPfftCXw+f2cwZ8wrx7hntxCiJfBA//MLLKZgXamRbHFG9gCcjhc9Ny0/Ts9AZfjs1BFDhG33DImxEim81jD//wbs9CFILfDpfVlQmsfAw7HeZ/2B8l2z3UQ66LQF5wCgQk7FDCEnBSK4Ibu5tUDKkiN6ecbIMPPBYoMKy4ymYFmmiYV5ln6ELXMtdA8x/g4QKB6ScwaQnosNEBSbGSqlIOn9vZz0CnwstB2nrb0CXNZZqoYlGxJ1EIeRRQpAQ8f+k8irnNfxu6N2BPIAoBCTj9rQRynDIBCT0WSr+ioUKZvrSquUqMBEy+lXT59uXYK6eRBOTwuc6BG9CaXJSISAmYW5Yr4IfIp+SJ87imZAlIvB4ydjUMOil6nfJ4i3zJWZDVZz9ngEF04WPPid3eIZ74lEF0Yb2ICwMGEEAEJOxQ7ykBOXzu7uM713taimyKk2rwI29GC54U6DuuYb0YHPlxJDz+4L6ovaguIz+O6NnpwVtgaNtyJDBpCei30x9JsXWG6zLvZZlbmaNTYQnI4XP/rfRvNPkv6nTUvcJ7f/nrX1Dkx3WPxY8CVjc+QTF/97vf5Zc9LKgo/P0f/oBCQALKsblA1pMlIKHHevvbGIMv2bY+1mhHQGEJeLc8N7MwE+dOloDVrU9UjZSxjBMpAQe4LLLGwnZmYaYyfanAsBzKhSwBOXxuVXOVurHq2etncRnIxsPqh2imFIfPvZR1yWmHI/mqgD3h7KsJB2wEEoTT2UNAwg71/hKwnzNAd6b5hHkLb7HE4XMn1eAd/Oyddji2MtsqGh5pW2jWddWj59XKbNOxWva214vMYvY8U6ipHAlMWgKWVpd9/PHHSI1RKJQvv/py0eeLKBSKSAmY+/DuvHnzcGRkePiMrYQXLwE5fO46w3XkG0ECyrGVQNZTJiChx2Lz2Jt2ueo7rUWvhIQlYPzVOPKvV5ElIIfP9T/khwcCRUrA8cqfcivZwGmtyKtkCTjAZfVzB67kXFGhU0NPh7Bf/ddP+qKdMrDsu5R1ScWQqmO1DB8ZBbdEZoECyS+CxUSDS0BAkh+IQ5TeUwIO/zC2pfnj5sc6Vss2BmzoZAnuiJmakyp5g28f6Ag7HbbMUmu1re6Z9DOohEOvh+197bxDPPUd1+DdneARA4FpJjBpCcjhc5NSk//297/Nmz9fVUOt+HHJ4iWLx5OAHD63oKLQgL5u0eeL5i+Y/6///CvqdBSq4YQSsG+Y6eTi9Nmizz795ad2TnZ4X8DL379bSzjNpCA7IDAFApJIwIqGR/a+tiutdep++oVcDp+bkX9zxfrlfaNMlOPIjyNeIZ6Hz7ybF8vhcwUkYBebgTYLRD+5JvmmMDuP7RQ57Z3D55psMgo6uS/64kmnHY6qRspoDDK7OFvTTN1ks8mVnCvksUMBj4i9oyTEQAJKQgniIAITdqgOVmddV31wTLBL4Ma6rnp0WHuvD487iE+RgTd5eZdy9H4nf8cLN897BntoW2iFngodG6pg1NGd16201om+GE2OP6kGP/qGczn7yiqbFY5+Dnp2euV1Zb0jfT6hXhZbzVkvBh9U5WuYqKGlVPCUgcA0E5iKBJyGIvYNM9W1NFTVVT18PAZfDA5wWKYWpmhQsOyJ4E9UTUN5IAsgMDUCE3qsiHPHlOlL3fe4NXQ34ixa+lqXW2mT59JpmqmT90kRkIBjs3JZjKbe5sbuJgOntblluTgpYYNBdPUM9xKvhxq6G5dbaZNn6eHIxU+LUe7mW0wjzh0reVoy/MMIulrHqNt+0FeZvjSzMHPkxxFyIcXb52+ef1j9UHwc8tWmHtgsV3DxDX5As9aYsENJvtEm+Td4eoZ7V9msoNKU9Oz09kftyy7Jwdte9gz3Hk08ommmHnoqdLINfuTHkcikSEMXurGrYcnTEg6fm12SU/CkwMBprY23dVt/G3qO526cV6FThX+MbtY+Zaj4tBFQUAn41qU5Ojsizffxxx/PmTMH2XRj0TtlTBsvyAgITIrAhB6roqFC5KAd68VgbWftk9aaJ601NW01ApukCEvA05dPqRhS364utN9u30U8F1PIhGsJWGltCHASuc6XQXRFXzwpRoQ197agLNivCAmPkR9H2Dx2K7NNwgOLTjF1gUuzjcCEHWrKQKIvnqyoLyf/kjU5qS7iOVoaImFrZ78i0Ay/s9fP5lXex7sgcfjcZx214XEHiddD5PSzi7Nbme8UITkcbCAgUwKKKwGHXg+HRxz633/978JPFy74ZMG//vOvkEOhIt2VTAFB4kDgfQjIyGO9fTU83g9YSVJa4vUQ68Wg8JQ+Se6FOEBAjgRk1KHkWCPIGgjIkYDiSkA5QoGsgYC0CIDHkhZJSAcISL4cBFgBASAgCQGQgDDbBgjIkABIQEk+hiAOEJCQAHQoCUFBNCAgCQGQgDJ0/5I8AIgzswmAx5rZzxdqN80EoENNM3DIbmYTAAkIEhAIyJAAeKyZ/QEKtZtmAtChphk4ZDezCYAElKH7n9lNB2onCQHwWJJQgjhAQEIC0KEkBAXRgIAkBEACggQEAjIkAB5Lko8hiAMEJCQAHUpCUBANCEhCQIQEDIJ/QAAIAAEgAASAABAAAjOdQN8rJjoofa+YQUFBBI+AAwgAAakQgA4lFYyQCBBABKBDQUsAAlIkIGIUUIqpQ1JAYJYTAI81yxsAVF+6BKBDSZcnpDbLCYAEhCFPICBDAuCxZvknLFRfugSgQ0mXJ6Q2ywmABJSh+5/lbQuqT/AI8FjQDICAFAlAh5IiTEgKCIAEBAkIBGRIADwWfMgCASkSgA4lRZiQFBAACShD9w/NCwhMwWOdv34uJCZYPLrQUyH3yu+R46RkpiSknSGHkO2AIzseVD5AIRHnjmUVZpKvCtjMEaZPqHc7s10gvKatZuu+LQKBcAoEppOAgnQocpUT0hO27NtMDhFjp99J23ksoJ/TT/CItr5W4ZiMQcb98vsEj9gXuTc5I4ngERezUrqHugkecTTxSF1nrfAtEAIEpkwAJCBIQCAgQwJT8FjFNUUqdOqjhkfj9ep6Rr0yfWlxTdHgCxY62C/ZdGdazMVoHDL4gsV+ycYpmLubZuTfRKeuO50TryUge/DlYG7pnSMJhwc4AzhyQnqCubspPsVG6bMSKk0Jn4IBBKafgIJ0KHLFYy5G222zJYeItNkv2dEpJ5dbamcWjH0BK64p0jLTuHDjvEDkTlbnanvdxq7GbWE+8VfjMvJvWnqY93P6mSNMNWOVivoKgfhwCgTeh4A0JWBNUw3lp3+e2zzfp0xwLxCYMQQm9FiFTwqpNCVJDjwAcCThsED863nXBUKoNKW03DSMUUACxlyMzi7ODokJ1ndaq2mm7he+vbbj3ehCO7Ndz3YVTk3dVA0nAhIQowBDXgQUoUPFXjmNO4hIw8TNWIBPTVuN255Npm7GNW01BI9gv2QzR5iZBZna5lq+B7YxR5jk+Kcux9wpyUES8GDcgeqWaoJHlDwtVqFTBWKS7wIbCEyBAEhAGY4ATeF5wC0zjIAkHkvbXKumrUbMUVhdQKUpIQn4qOGRuqlaYXXBlewr672s0Ouk1fa6Z9Li2S/Zjtvto5IjMUP2S3ZjV2NjV6Oxq2HSzQuNXY39nH7Xnc7K9KXmW8yCo/ffyLvRO9xL8IjBFyz01zlgw9Z9W+o6a98djDqcGkhAjAIMeRGQb4dCtY69ctpxuz1joBMdxxKPWnutx6exV04LSMA6Rp0yfSmVprTSWmeltY6mmboyfam6iepKax3axnWr7XUdt9v3DPWgxLXMNFSNlFWNlJXpS1XoVGR7h3idvZao77S2uacZHyAH5dUIZ1K+CioBye+wZhJuqMtsIyCJx9KxXDYeFvZLNvslu43ZhiWgZ9DWA7FhBI8Y4AwYbFhb+qw0PjXObc8m1GWqmh57Bm1Feo7gEc/ZzwVGKUqflbjudI6/GieQo+8Bn6zCrNbeVrozjTHQKXAVnYIEFIkFAqeTgHw7FKpp7JXTzgEbcK0FXgRfuHFeQAISPCK7+HZ1c3U7s/3QmXAjFzqaC4hS6BzodPC1q2quwgkSPOJMWjyVpqRhqpaSmYLC3/ZQgb6Mp3aQbwQbCEyKwFQkYMvzFmc35yVfLpk7b+7Xf/zax8+nmz02WZX8Ivh4zPGvvv7ql7/8pQHNoLb13Tsm5ggz6EDQN9KBGvgAACAASURBVN9+M3/B/M+/+NzE3KS0uhQV18bBBr1EvnH7xt/+/reFCxcSPOKrP35FoVD+/Jc/37h949vvvp2/YL66pvr9orGpsnAAgQ+CwIQeizHIuFuaS/AIG+/1Ah/x6DT0VEj/aH92cXbfcB/BI5gjTPTtf9exnacvn0IQyDP5vII9BFaKEDyC/CJ4674t+yP3tTPb8bhFHaNutb0umoTe0tNCLsahM+GYM0hAjAIMeRFQhA41Ngro5/Cc/RwdEeeO2Xivx6dxqXFkCdhNdONLnaxOPTvdE+eP4xBkdLG7nrOf416cVZi1wnq5lYdF6KkQs80m/of82pntmmbqaDHW4AuWppk6nrkhrwcB+c4MApOWgG09bUiZIcWG/i5fsZz9ko0loLKKMvmqsqoyGqKwd7Inh1MolF/96lfPWp6N+b//k4B/+etfKBTKJ598giXgokWLfvnLX+IbFy5cWNM0Np0CDiCg+AQm9Fi4Ck3dTT+/fu2svV2UZeC0duMOJ8YgA8fBRv7jfFUjZTRJCAcig6z28CVyYEb+zTUOeip0KpZ66saqm/e44bHDNmZbXGqsg69dG7Ote6hb1UgZxyQbwjPZcXZgAAEZEVCEDjWpuYArrXXIvUaMnZabxuKyjiQc1jBVy3t0H80F7GR1Bh4NOPf9WWNXQ21zzf7R/uqW6hVWy2WEF5KdbQQmLQG3em9Fasxxo2NecZ6JuQk6vZlzE0vAOXPm7Ny383j08V//+tfo6uO6xx3Mjj/9+U9f/fErl80ubb1tQQeC0KWww2NvtbAE/NOf/3Q64XRC0tiKRaw1vXy9Kp5WWKy3QLfAcpPZ1kw/3PpK7rFwHQdfDsalxi2z0Iq8cIL8wghHYI4wzdxNtu51r+usFeNRIpNO4FvM3U1jLkYn3bxQXleGA8UYyRlJ+FVXZUMlOtLuXKXSlPBp5zjvi8UkC5eAwHsSUJAORa6FwItg8iWyfSnropaZRsnTYoJH9I/294/2+x/y27TLBc8CRMtEfEK9S5+VDL5gJWckFdcUETyCxWUZOK1Ny00z22xyv/z+1ZxUt92u5JTBBgJTJjBpCfjNt99QKJR58+f1EmOzyGtba9093d093W/fv40loO4aXVQgDx8PJNoy7mSgkB52T86DnNMJp9cYrEGX/AL9yBLwetZ1XBkkAX/5y1/2j47tolTbWotuUdP4eZUijgwGEFBAAlPwWJUNlVSaUumzEpHVYb9kbz/oS6UpbQvzGXzBwnPDsWG8ySjlVnJzT3P30NgbqPPXz3kGeagbj80933UssKq5ynWns7BwxIKvk9VJHgUk6zx4ESzyiUDgdBKQb4caW33108Rc4R4kEIIm7GIyyRlJb0fTswqzBjgD6XfSjFzoJ1OiBjgDbrtdbX2shffgzC6+bbzJCN3OfslOzkga4Azsj9p3KD7cK8Tz1OUYnDIYQOB9CExaAi5atIhCoXz51ZfCuWIJaGUztlCR4BG7g3Yj0Xbj9g0Wl7Vx08b/+Z//QSFz5swRKQEf1z3GKSMJ+Ne//RWFsF+y0V3ffvctjgMGEFBkAhN6rOSMJAHnMd5pdnE2wSMiL5xQM1Zx3+u2LcyH4BHdRLdXiGcn6+cFHOR3vm3MNnVTte0HffXsdPHkcdedzskZSWgcAv1NSE/AEtBumy25AOs26GO8IAExCjDkRUC+HQpLwPzH+WitfWNX46H48PWelvi0savRJdAZS8DGrkavEE9NM/X9Uft2R+xaaa3jutO59NnYJPiO/o63Q4CeQR46lsviU+PQSMeOI/7kDojWEaNpgndLc+nONC0zjabnjfLiD/nOMAKTloBoFHDuvLloCcjTpqcOGxwcNjhk3MkQLwHPXDiDNJ+9k312XnZ6RrqEEnDBJwt62GML5h/XPUa3wCjgDGuFM7g6E3qsLnaXwHYwmQWZVJpSydNigXC0e8v56+dSbiXHXIxGEvDtst+NO5z2R+3DDMkScEwj/vS7AuRA153Ol7Iu4vgEj7hw4zyWgCic/CIYxwQJiFGAIS8Ccu9Q5OX5CILwi+Ct+7YgCcjissy3mDn42j3rePak9Ul0ysnGrjH1VlFX/nbrJfMtZujL2/f3rq2yWZFVmDW2MdPLwbxH9/Ud1/QO9w6+YB2IDdtzfDfKaPAFS89OF94Cy6vtzch8Jy0B8VxAK1urW7m39NfpI1mWdS9LvATctX8Xivmg5AH7JRunI/AiWHgUkEKhWNtb38y+uWr1KpSCpy9sPQ2rYT4MAhN6LOGPFfQieLydWVB8sgR81PBI1UgZbypBVns4cXKg605nVSNldVM1fKgaKYMExKzAUGQCcu9QSAJW1FfgVb0CK4Kfs5+77dmERwE7+jsGXw6iTTdLnhZHJUfa+djo2enGXx0b9hvgDNwpyRl8wULr/RF5e19bRz+Hxq7Gkmcl2uaaaDdpgkc0djXqWC6z8V6PV24p8pOCsn0QBCYtAdt62r7+49dIiuG/Oqt0yJvCiHwRnHojFcX/+OOPP//i8y9+8wU6nVAC/upXv/rss89wXgsXLnza/PSDgAuFBALT4LEIHrH9oC8eCCSrPcyfHDipUcCCqofP2c9ROjAKiHmCIS8Ccu9QU5sLiDrpGge9oJP775bdRS92q1uqbX2s13tZNXU3kXk2dTeFxAQvs9DSs10VlxqLLg1wBmx9bDyDtuo7rsG7QZHvAhsITIHApCXg26UbLc9bNm7auHjJ4rlz5371x688fT0F9gUUKQEJHhF0IOirr7+aO2+uiprKrdxbEkrAxUsWZ97N/O7/fTdv/jw1DTXYF3AKjxlukReB6fFYbX2t+KcCyGoP15ocKIkEjEuNM3Y1dNvtqmu78mn7u29cIAExTzDkRUDuHYoxyHDd6dzS04IJCL8IjkqOxFs642jMESbaHO05+/mt/Ay3PZu0zTUPxYfjnotjsl+yUzJTVlrrOPja6dnpFtcUMQYZXsEe5lvMeod775XfUzdRTb+bjuODAQSmTGAqEnDKmU32RrQcZPGSxZO9EeIDAQUhMCmPVdP65Enrk0tZF6k0JTSHb7xakF8EozgtPS11jLrajloDp7W3i8YmFaHjOft5O7Nd33ENmmlE8AjxK4LRjhWGLmOzzqOSIsk7VoAExFTBkBcBuXco4YoLS0DhOPmP8y/cOB96KsTWx0bVSNnSwzw65aTwZI/BF6zj5yLozjQjF3pB1UOCR7z9HeG8R/cNnNZae61vfN6AUk5IT1ChU5NuXhDOCEKAwKQIgAT8MKaUTeqhQmTFITApj7XjkJ+KIXWF1fLAowHiqyAsAaNTTqoYUrXMNOy22ZL3mDiWeFTNWMXUzRi/bAqO3o/lIMrldlHW4TOHyDnGpcY29zSTQ8bWYzVWmrubCgTCKRCYTgJy71DClb2YlRJwZIdwODkk4uxRt92u4XEHr+akkkcQyXGQfSYtPrf0Dpo+iEKqm6sPnA4T2CI08+EttLJEOAUIAQKSEwAJCBIQCMiQwKQ8luT9dvAFC/+clOR3QUwg8KETgA71oT9BKL9CEVBoCahQpKAwQGAKBGTksaZQErgFCMwAAtChZsBDhCooDgGQgDIcAVKcxwwlkRcB8FjyIg/5zkgC0KFm5GOFSsmLAEhAkIBAQIYEwGPJ66MN8p2RBKBDzcjHCpWSFwGQgDJ0//J6qJCv4hAAj6U4zwJKMgMIQIeaAQ8RqqA4BEACggQEAjIkAB5LcT7soCQzgAB0qBnwEKEKikMAJKAM3b/iPGYoibwIgMeSF3nId0YSgA41Ix8rVEpeBEACggQEAjIkAB5LXh9tkO+MJAAdakY+VqiUvAiIkIBB8A8IAAEgAASAABAAAkBgphPoe8VEB6XvFTMoKIjD58IBBICAVAhAh5IKRkgECCAC0KGgJQABKRIQMQooxdQhKSAwywmAx5rlDQCqL10C0KGkyxNSm+UEQALCkCcQkCEB8Fiz/BMWqi9dAtChpMsTUpvlBEACytD9z/K2BdXn8LngsaAZAAEpEoAOJUWYkBQQAAkIEhAIyJAAeCz4kAUCUiQAHUqKMCEpIAASUIbuH5oXEJisxyqrK9t9fOfoG86E6Po5A5t3b6pqrpowJofPZY72dw/1oJjZJTnHzh5F9vAPI0U1xeTsRt6Msl4MCh/kXM6kn8kpvUMOARsITA+ByXao6SkV5AIEPlACIAFBAgIBGRKYrMcKOx3mtstVkk+T2CundayW9XMHJIkcdHKf0w7HodfDHD73/M3zLoEb0V3nrp/TttBq72/HiTzrqKXSlIQP9isiMinyxoMbHD53+0HfxO8T8S1gAIFpIzDZDjVtBYOMgMCHSGDSEtDOyY7y07+a5qfSrbDsUpZuOSE1ICA5gQk91nOiu66rHh/6jmtOXDiOT8lGz3AvzneAy1ppo3P8/HEcImCMvBklh/RzBvSd1p5JP0OWgIxBhraFVlpuGjkmsv0P+5+/eZ7D54adDjuaeAQHIuUHElCYGIRMD4EJOxQqRlt/W/TF6E4WY3pKNWEu6XfTNUzVqDSl/KqHE0aWPAKbR+w4skPbQgt9Zzt3Y6zPijlOJJ3A3+6WW2mLiSndS+397X7hvnq2q1ba6HiHeDb1Nks3fUhtygRAAorrMFPGCjcCAURgQo8VcT4CfyiLN+LT4jHVuKux4iNTaUqXsi5y+Nx+zgCD6GIQXSmZybGppxlE16nLMY5+Dgyiq6Cm8NCZ8C42A0Ugq0aQgBg1GApFYMIOhUpb+qyUSlOqbHos98KzXxHB0UFUmpLvgW1Sl4DnbpxXM1a5lHUpuyQnuySnqadJfH3rGHUopv8hv2mTgGwe22STkfkW04yCW7eLblt7WRk4rZXw9YX46sDV9ycAEhAkIBCQIQEJPRaHzx3+YcRiq3lkUiSHzx0bGmTUjde96583aJqpx12NfdJa86S1pryujEpTuvHgBjp90lpzKeuiqpFy+0AHh8/dH7VvQrGIIjCILg6f6xPqJTL+9bzr/of9YRRwvIcC4dNDQMIOpTgSMKf0jraF1u2i2087nkldAoadDjN0oU+BfPTF6GmTgDmld6g0JTzyxxhkqBhSr927NoViwy1SJzB1CXgnP3el7sr5C+b//Zu/Jyb/PDFo6PVwSHjIN999O2/+/N/9/vc2DrZ17fW43B3MTtctm5Z8uWTevHl//suf/Xb6D3BY6Cq8CMaUwJgxBCT0WBw+90x6wmpbXfTl+FLWJVsfa5EQBl+ybbyt7bfb40E71otBKk3pcfPPAx4+Yd6BxwKFby99VmroQrf0MNe20FplsyIqOarn/9aI4Mj93IHuoZ7V9nr3Ku71DPXsi9obejqkZ6iH/YoACYgpgSEvAhN2KOfADcLfYex97VCBK+rLqTSla/eu2W+31zBVM3M3vVueiy71jTKpNKXr97/HVbPytNh9fCc+ZQwyAo7sWG2rq22h5RPq1cpsw5cGX7IHuCzywXoxiK5WtVTXdY15QClKwJE3o32jzL5RZtDJfXTndcjuG2WyXxEo004WI/BY4GpbXU0z9fWelpmFmbioyBhPAjZ0N7rvdV9mqaVCp9Kd16HZIPjeqRFIuJawymYFToTD567boI++65IDwZYLgalLwL/9/W9oUiD6m5I29tZp9A1nneE6cjiFQvn8i8/rOxo4fC5joOvrP34tcFVVQ414NcThc0ECyqUFQKYyJTChx0K5tzLbtMw1Lt++jE7FSED/w/7LLLXqn491KHQISMDKpscapmpt/T/7Jw6f2zvSd/z88VU2K+4/uoeWgzT3tuyP2rdi/fKjiUfwYmGUYGXTY20LLbR2hDwX8Nq9awU1hbAcBJMHY/oJTNihSp+VZpfkoJkSid8noveexU+LUVGRBHTb5VpWV1bXVR94NEDDVA2Nl4uXgMM/jKz3tLTytLhXcS/v8QN7X1tDFzqbx0bJrnVYLaA7tcw1BOBIUQK29LUKZIdO8VxAe19bK0+LGw9u3C2/ezTxiAqdWl5XRi7PeBLQ1sd6vafl3fLc4qfFsVdOv002qygL3ThlAvFX41bb6pJzN3ShR5w7Rg4BW14Epi4BlVWVb93N9PHzQZJuqfJSDp979WYaOtXW0a6srQw+GIxOLawtOXyu5zZPdLrVe2tVfZWJuQk6jYo9CRJQXi0A8pUpgQk9FtqxxW6bjcjPdBwYHBOMyvm041leZR6Hz80qyrp65yqHzyVLwMfNjwtqCskvke9V3PM9sE3bQtMvfHtzbwt5OQiHz23pa90VsXO5lfbpy6dQ+sM/jLjudAk8GoBOyRIQg3Lfu/ns9bP4FAwgMG0EJOlQHD53vBfBSAJmFNxCBe4inlNpSjd/WucuXgIW1RRTaUpPWmvQjU09TVSa0u2i2+j0UWNl6bNS8iEguaQ7CsjmsQtrigprinxCvdY46CG7sKYIaVkOn9vB6hzgvnu9xuFzaRsNTiSdID8jkRJw9A1HxZCafCsJxyx4UoC/bU6ZAJaAXiGe9tvtOXwuSEBMWO7G1CXg3YJ7aNgPD+yxeYSLuytSddkPctDVJV8uoVAon/7yUw6f+81331IolHnz57O4Y4PkNc1PUeR1hutAAsq9KUABZEFgQo/VN8q022Zj6EJXNVLOLMxs6mlq6mk6dTnGYosZspt6mnYc2YElICok8XoIrR0WkIBxV2NX2+v1jvThuly7d+1kykny0si03PRtYT44AofPrWquwm98wuMPrrbXw/HDTocFHg3AyxhdAp01TNW0LTTL/ntQgZwa2EBAdgQm7FAoa/ESkKzPzLeYope/4iVgak6qCp068uMIrpqmmXrCtQR8OqEhxVFAnFfoqVCRcwELa4psfay1zDU0TNQ0TNSU6UuDo4PwXRw+V6QE5PC56z0t6c7rEr9PzC3Lbez+r8UlUyaAJeDRxCP7ovaCBCQ/CLnbU5eAzc/HRhQ4fO7yFcuRkmtndhibGSP7WWstuqqqoYZCWNzBRZ8volAoX371Jbo0+JKNLqmoqYAElHtTgALIgsCEHmtDgJOhC719oEPdVL2ioQKVQeBFcHBMsIAEvJJzRctcA73AJY8CDr0etthqvivi5wlMwpUKjg4KOLJDOByFNPe24InbKCSrKEvPTg/Z/ZyBLuI5noY4XiIQDgRkRGDCDoXyFS8BK+rLhYsnXgJeyrpIpSkhRYX+UmlK8VfjUDpi5gLijKZNAnayGFrmGtsP+la1VNcz6uoZdXTndRJKwHpGnXeI51qH1cr0pVSakq2PNVolxuFzp0wAS0CMAkYBMQq5G1OXgLkP75JHAT/66KOxUcDNLkjVZd4bm0Aw+obzh8V/+HkU8NtvxkYB581DS0CqGqpRZBgFlHs7gALIiMCEHuvqnatoZ2bJJWDPUI++01q8XR9ZAnL43Ir6chU6FU3aE7PCF79ixgbeUYLNY6NtYtDfKzlXdG1XkkPIo4wy4gbJAgGRBCbsUOiuKUjAfu4AWimC87XYao5Grd6+whobAzOkIkWF/+KtOqd5LiAuochRwLTcNCpNqYPViaMZutAllID4FjaPKHlastJaB/+S0JQJiFwOcuLCuHua4jKAMQ0Epi4BBeYCUlWoY/3kxlWk6tQ01R+WFwTu3YlOLdZbcPhcDx8PdOqy2aXwURFeOBJ1OgpGAafhYUMW009AQo/F4XMllIAjP4647XI1cqXjjbUEJCCHz/U/7G/rY41+9u050d3KbMNH9MVobQtN973uTjscm3tbcHgrs234h3cvua7nXce6UKQh4e+XTD9tyHHGE5CwQ6GdksgvfBEZNBdQ5Cggh89dZbOC/M1K20IzNvU0urGwpohKU2rpa0WnxOuh/KqHXex3W09P81xA/JRFSkDUf/E3ui7iuZqxioAEjLsaK7xgZYDLijh37Gn7zz/64BK40f+Q33sSyC7JodKU0ERkDp/bxR7bFOZy9hVcCzDkSGDqElBgRfCla2OLGUffcPRpBkjn4b+LPl9U2za2yVlnP+Orr7/C4chQUVOBFcFybAGQtUwJSOixREpAtPVDP2dgW5hP6KlQVM6kjAvqxqrknwYWloB1XfUqhlQ8Vx1XsKimeJmlVsylaAbRtdJGJ+RUCPF6bDG++IP8Ilh8TLgKBGRNQMIO1T3Uo26s6he+Ha0IxppPvASMOHdMw1TtTPqZ7OJs972btS00seYbej1s6WFu7WWVUXDr7T4yvge2aZiq4atiav12GzxUhgs3z1NpSjGXorNLch5W/9dvhHSyGKttdSPOR4hJR+QlkRLwp1/90dwYsCGvMi+rKMvJ31Hfaa2ABMyvekilKZ24cByVrfRZ6Tv37bjG3tc2p/ROwZOCs9fPqhmr4FnCUybA5hFGrnSLrea3CjJvF9228bZebauLB1BF1gsCp43A1CXgg9L8FatWzJsvuC8g8WpoX+i+b779Zt68eb/97W8tbazwvMC3Q31tfe0bN21cvGTx3Llz//inP27z39Y/+u5HTmFTmGl76pDRtBGQ0GOJlIDDP4zo2a5SNVLWd1p7/9HY6qu3y+qJ10OFNUXk8gtLQA6fe7f8Lt6xgsPnNve2HIw9qGqkvOfELjSTr6q5arWtrqWHeVZRFh7/IyeLbZCAGAUYcicgeYf6/v41fcc1aBjbY/9WVHLxEpB4PRSZFLlug762heaGACcsHNG9HaxO/8P+urYrl1lquQQ6S7giCo2BCYymm7gZk0nef3RP4B00+aoYW6QE5PC5BTWF1l5WGqZqJm7G2cXZ5ltMBSQgh8+NuRStZ7sKFcw5cAPKpaql2iXQWdtibF9Afcc1EecjyCtgpkaAw+e+3UPR98A2XduV2haaW/a5k7csEFM7uDQNBCYtAaehTJAFEJgxBCT3WDVtNYMv320zJrAcZDwaNW01jxors4qyqDSlZx3vFmAJRD6aeMTSw1yZvpTuvO76/e/R22EUp62/LfBogAqdqmu70jvEs6yubOTHEQFfJeY0NSdVIC84BQKyJiB5h5J1SaSY/pn0M1SaksAKXCmmD0kBgfEIgASc4C3YeOAgHAhIQmBqHiuj4BaegiMml6Do/SqGVB2rZT6hXmgnZ+HIid8nRpyPKKwpGm+or7G76dyN837hvn2jTPR9nTxBUIxN3nhMOF8IAQKyIDC1DiWLkkgxzcCjAXq2q6SYICQFBCQkABIQJCAQkCGBGemxJPxwgWhAQOoEZmSHsvQw9w7xlDorSBAITEgAJKAM3f+E9CHCjCcwIz3WjH9qUEGFJQAdSmEfDRTsQyQAEhAkIBCQIQHwWB/ixyKUWWEJQIdS2EcDBfsQCYAElKH7/xAbBJRZugTAY0mXJ6Q2ywlAh5rlDQCqL10CIAFBAgIBGRIAjyXdDyxIbZYTgA41yxsAVF+6BEACytD9S/dRQWofIgHwWB/iU4MyKywB6FAK+2igYB8iAZCAIAGBgAwJgMf6ED8WocwKSwA6lMI+GijYh0gAJKAM3f+H2CCgzNIlAB5LujwhtVlOADrULG8AUH3pEhAhAYPgHxAAAkAACAABIAAEgMBMJ9D3iokOSt8rZlBQEMEj4AACQEAqBKBDSQUjJAIEEAHoUNASgIAUCYgYBZRi6pAUEJjlBMBjzfIGANWXLgHoUNLlCanNcgIgAWHIEwjIkAB4rFn+CQvVly4B6FDS5QmpzXICIAFl6P5neduC6hM8AjwWNAMgIEUC0KGkCBOSAgIgAUECAgEZEgCPBR+yQECKBKBDSREmJAUEQALK0P1D8wIC7+mxuthdmQ9v5VXmjUeyqKZo57EA9kv2eBFweGF1gcf+rT1DPThEjPGc/bxzoBNFyCzIPHzmELJZXFb+43xydoMvB3uHe4UPcuJxqbFZhVnkELCBwNQIvGeHmlqmcBcQmKkEJi0Ba5pqrO2tD0W8cwkzlQvUCwhIhYCEHqt3uLeus7awuuBG3o2z1xKPJBz2CvE0djVUoVOpNKX1XlbdRLfI8oTEBLvudBZ5SSDQdaezi2QxCR6x78QeRz+HAc4AwSMSryU4B2xAqSWkndE212p63ogTr26uptKUhI/+0f7j5yLS76YTPGJbmE/81Th8CxhAYMoEJOxQU04fbgQCs4rApCXgBpcNlJ/+1TTVvA+pr/74FYVCWbxk8fskIvJe2aUsMjsIBAJiCEjosaw8LFQMqbq2K83dTZ0DNvoe2BZ6KuTstcS7ZXfbmG3k9Dv6O2raavCh77gm4uxRfEo2OlnvhvEIHlFcU0SlKd0tu0tOimwPvhwkn3YT3fpOa+NSY8kSsLW3Vdtc60r2ZXJMZPuFb0+8lkDwiJCY4ENnwnEgUn4gAYWJQcjUCEjYoRqfN0QlRbb0tEwtF+ne1fS80feAj67tyhXWyz2DttYx6qSVPnOE6X/IT9tcC30HS0gf64Nijohzx/C3teWW2mJiSv1SavYVDVM1Kk3pfvl9qScOCU6ZwKQlYOqN1M8++0xnlU7/aP+UcyV4hOyEmuxSfp/6wr2zk4CEHsvKwyI5I0kSREcTj+APcfFG7JXTOEG33a7iI6sbqz5urCR4RDfR3cZsa2O2XbhxPuZSdBuz7WRKlIOvXRuzLa8y72Dcgba+VhSBrBpBAmLUYMiUgIQdqrC6gEpTKqstk2lhJEmcOcI0djU0cze5nnf9Vn7Gek9LA6e13UOiB/UlSZAcJyE9Qc1YJTkjKbMgM7Mgs66zlnxV2H7S+gTF3H7Qd9okYP9o//7IfVSakk+oN0hA4Yci35BJS0BpFVd2Qk12KUur7pDO7CEgoccSLwHJYgujY3FZ5lvMjp+LIHhER3/Hk9Yn+JKAkZabpmqknFOcU9lQWdlQee77sxqmashGf/cc323iZoxm+O09vke8WMRX0fCkV7AHDiEbablpfuHbYRRQ4FnA6XsSkLBDKY4EzCrMotKU8Mhfa2+riiH1ak7qe3JAt4fEBNOdaVNIKiopctokYFZhlra51q38jKrmKpCAU3hYMr1l2u6o9wAADz5JREFU0hLQxsEGvQh+XPe4pqkG2YF7AkMPhS5esnjBJwtW669+1vKM/ZK9eMliCoWycOFCNKOIOcycv2A+hUL56o9fkUcBb9+//d0/vpu/YL66pvr9op+HiFuetzi7OS/5csnceXP/9Oc/+e7w7WH/PJP9YdnDdYbrPv/i8wWfLPi30r+jYqMwJpCAGAUYcicgocey9DAn6ycB23iTkXBF4lLj9GxXoeGE5IwkG+/1wnEIHvG0/elyS228noPgEdnF2drmmjhy/2j/anvdS1kXcQg2CqsL6M40i61m2uZaK611Tpw/zvi/NSI4TvdQd+dA52p73ZziHMZA557ju4Oj9zMGOvtH+0ECYkpgSIvAhB1q4w4nge5DpSnZ+tigApQ8LabSlK7mpNpts9UwVTPbbJJdfBtd6mJ3UWlK6XfScFEtPcx3HgvAp629rTsO+enZrtI21/IK9mjs+nlGbN9wX89QD/noHe5FN8anxq201sGJEDzCYMNa9M2NHDgpe/DlYBe7q4vdte/EHtpGA2R3sbvwq7mWnpYdR/z1bFdpmqlbeVjcfHBDIP3xJOCzjmeb97gts9BSoVNpGw3Q7A5879QIVNRX1LSNTRsDCYhJKo4hHQn4j3/+A2lB9FeJqkTwCLetbuj0Tv4dgkfcyr2FTj18PLAE/Oyzz774zRf43oULF6Iphm09bUjJ4UsUCkVFTQU18ZwHOfPmzyNfolAonts8EVaQgIrTvKAkE3oshMjM3SQqOfL05VP6jmuqmquqm6vxsXGHU9DJ/QIkG7satcw0Um4lo/DxJCBzhEl3pq33tGSOMHEKAhIw/mqc+RazwRcsHIHgEYxBxrHEoyutde6U5KDlIPWM+r3H96ywWn4oPhwvFka3lNWWaZtroW965LmAV3NS0VpmmAtIZgv2+xCYsEMVVhdkFmSeuhxDpSnFX41D7z0fVuWjTJEEdN3pXFRTVNNWE3DYX8NUram7ieAR4iUgi8uy8rCw9DDPKc55O0PXzseG7kzD3Wqtw2oB3allpoFyPH35lJ7tKnKV6c60IwmHySGTtRu6GgSyQ6d4LqCdj42lh3n63fTs4uxD8eEqdGpxTRE5l/EkoI33+rfzkrOLbz+syo+5GE2lKWXk30Q3TpkAzhckIEahOIZ0JODcuXNPJZy6lH4J67mKpxW3799GKm130G6CR+zYtQOd3i0Ym5OOFZ6Ng83N7Jt6a/XQVaTktnpvRafunu7lNeVGpkbo9HjMcYJH/Fvp3xQKZc6cObGJsQXlBX/7+98oFMpHH31UXlOOU5bFQhPFeWxQkg+FwIQeC1XEyIV+7W5673DvckvtvIqfx8IbuxpVDKmlz0rJ9X3Ofm7rYy3SB+DA/VH70C238jPqGfUEj4hLjct/POYIyRIwI/9mTesTFAHFzynO8Qn11jbX9D2wDYWTVwQ3dDUEHg1YbqkdnXISxWdxWS6BzgGH/dEpWQKikLFvg3s2nUmLx6dgAIEpE5CwQ433IhhJwOt511EB2pntVJrStZ/WrYuXgPmP86k0pcqGsfmyBI+o66yl0pRu5Weg09JnpYXVBeQDSy4sAT2DPOy22b4dDHt/CcgcYT6ofPCg8oFXsMcaBz1kP6h8gLQswSOae5rJ2z+t26Afce4YmblICch+yVYxpJ6/fg7HzHt0/2n7U3Q6ZQI4NZCAGIXiGNKRgAY0A1SlLV5bkFbLupc1+GLw93/4PYVCWb5iOcEj1DTUKBTKki+XoClHSAJ+8sknfUN9BI940vgE3aimoUbwiG++/YZCocybP6+XGBtOf1z3GF01oBk0MZqQrb383YKmqNgoFBJ2OAwkoOK0LSiJ5L8OsspmRVZhJsEjwk6Fbt23BaM7EBtm5m6CT9FYha2PNd2ZpmqkfPPBjbrO2rrO2pMpUebupsiu66z1P+SHJSC6t7qlWpm+9F75PQEJ6LbbdfMeN3L6V3NSIy+cIC+lvJJ9xTvEixynoq4cvyE6EBu22l4Xxw+JCQ447I8X/TkHbNQwVdM21yz670EIcmpgAwHJCUhFAmJ9RvAIM3cT9PJXvAS8lHVRhU4lD5ZrmqnHp0681RGWgIfiw/ccHxsNeX8JiHEFRweJnAv4oPKBjfd6LTMNdRNVdRNVZfrS/ZHvvhOie0VKQIJHWHlY0DYaxF+Nu12UVdvxX4tLpkwAlxYkIEahOIZ0JKCVjRWqkl+gH1Jjt3JvETzC1d0VKbnW7tZf/OIXFApli9c794Yk4F/++hd0I/sle86cORQK5dvvviV4xKJFiygUypdffYmuMoeZKFllFeXiymJkr7d7N/np2q1rKMR7uzdIQMVpW1ASCSUgi8tSpi+tqBsbw67rrNUwVct8ONZ9Sp4WqxurCmyq7OTv+PbdblN3k7qpWumzEgRZ4EXw/qh9AhIw4LA/ng5FHgWsY9RpmqmL3OcFP779kft2HPLDpwJGPaMeT3VHlzLyb+rZ6SK7m+huZ7aLXM4ikA6cAgFJCEhFApY8LRbOS7wETM5IotKUkKJCf6k0pdOXT6F0xMwFxBIQ5yhrCdjS06JlprEtzGdsEl7rk5rWJ7SNBhJKwJrWJ55BW9c6rFamL6XSlGy81+NNqaZMAFccJCBGoTiGbCUgnv/n6euJVFrOgxxUefGjgH//5u8UCmXuvLloCUjF0wp0uwHNoLGzEdkaWu8mWxyPOY5CYBRQcRoWlAQRkMRj1TPqqTQlPMHu/PVzOpbLymrL9B3XCCg5gkdcvn0J7cwsuQQseVqsYkjNLs5GRSJLwJ9eEMfqWC7DmwiOt8IXv2LGBt6BgjnCRNvEoL8Xs1JW2awghzAGGdAegIBUCEjSoQgeIf5FsEgJ2D3UjVaK4HKabzFD43YEjxgbAzOkIkWF/+JeI2YuoMjlIBFnj+Jc3scQOQp4JfsylabU3NOMU6Y70ySUgPgW5gizoOrhyvU6eCXZlAngNEECYhSKY8hWAg6+GPzt736LxByFQvnD4j/gn5bCcwFtHWxv5pDmAvqOrerAL5Q3um58UPLAgGaARN7x6LG5gP/6z7/Q5L/j0cdzHuT8+S9/RlfLnoztAoVShrmAitPIZnNJJPFY39+7pmu7ElNiv2S77dmkYkg1dTPG883xVWxIKAFbe1vXOOj5HtiGbxSQgP2cfgOntXg/547+jsauRnxEJUVqm2tu3uPm6OdQz6jH4Y1djSzuuxUkablpWBeKNCT8/RJcQjCAwHgEJOlQeC908gtflCCaCyhSAr4VjiutdQ7Fv9vYvHe4V9tcM+ZSNLrxQeUDKk2poasBnfZz+u+X32/ra0WnYuYCZhZkUmlKeLptW9/YpjApmSnoxvf8K1ICov6Iv6G1M9vVjFUEJOCpyzF4wQouQ89Qz5GEw1VNj3GIc8CG7Qd90emUCeDUQAJiFIpjyFYCEjxi46aNSJ9RKBS3rT/POkJCbdHniz777DMcYeHChU+bxyaftna3fvX12M+HkP8pqyijFcG379+eO28u+ZLwK2aQgIrTyGZzSSTxWKGnQnxCx+YwoCOvMo+20UCFTtV3XJNT/G7UHF/FhrAERFtFdBPd3iFewdFBKKZ3iBfdmUb+fTkBCYhGONRNVPF8PpxF/uP8ZRZaUcmRbcy2FdbLg07u7+dMvCE8+UUwTgoMICAVApJ0KIJHdA50qhur+h7YhlYEY80nXgIeSTisYaoWlxqb+fCW255N2uaaWPMNcAYstpqt97S8nnc9u/i2T6i3hqkaviqmaswRpqELzXyL2Y28G7fyM6y91uvZrsLDh+jGlp4WPdtVRxOPiElH5CWREvCnX/HR3ODvdLc0NyP/puN2e32ntQIS8H75fSpNKeLsUcSnsLqA4BHsl2x9xzV2PjZvd/LLe3T/TFq8mrEKnvU7ZQKtva0ol7PXEqk0pajkyMyCTPKiN5FVg8DpISBzCXgz5ybWaln3fv6peCQB//yXP2fezfzu/303b/48NQ018r6ATYwmJ2enxUsWz5079+s/fu3l69XN/nlH9bziPP11+osWLZq/YP4///1PNDqIkMEo4PQ0HchFEgITeqz+0X4921UXbpxHe/jti9yrTF/qe2Bbc09z2KlQZfpSv/DteM4fOUdhCcjisnRtV6oaKes7rb1T8k47tva2kr/WCywHQQmyuCyBGYf1jPqwU6GqRsq7jgWimXwVdeV6tqsstppl5N/E43/k8mAbJCBGAYbUCUzYoXCOaXeu6juuQcPSW/e6o3DxErCfM/bD1gYb1mqbazr5O2LhiO5t7mn2C9++ymbFMgst54CNkq9wauxq9An1XmWzQttc032vm/Au7ndKcgTeQeNaiDdESkCCR+RV5q33tNQwVTPeZJT58JaZu4mABCR4RFRypK7tSsRn4w4nlFFFfYVzwEZt87F9AfUd1xxNPEJeATM1AmgcVOD9gMi9TsVXFq7KgsCkJaAsCgFpAoGZSmBCj3Ul+4q2uVYnq3PzHjcqTYm2cV1a7s+b0+Y9uu+43Z5KUzJyoaPtVTGox42VfcNjq+kJHiGwHATHIRssLqvkaXFZbVnE2bEN/8iXyPah+HCLrWbK9KW0jQbpd9LwzI23qwUbnzcEHPZXoVNX2azwDNpaVFM0+IIl8Mku5lTk7tPkrMEGAhMSmLBDTZiCAkaIS42l0pQEVuAqYDmhSDOPAEhAcT+qPfOeN9RomglM6LEqGyrRhq4pt5KzCjNFLp6tanoclxorpuTX867jKTtiohlvMlIzVlltrxuVHDletPircUcTjzyofDDeUF9tR21CeoLvAZ8udteYLiRNHBRvkzcqGy93CAcC4glM2KHE366YVwMO+5NnAytmIaFUM5IASECQgEBAhgRmpMeakR+FUKkPgsCM7FAWW808g7Z+EPyhkDOMAEhAGbr/GdZWoDpTIDAjPdYUOMAtQEAqBKBDSQUjJAIEEAGQgCABgYAMCYDHgo9aICBFAtChpAgTkgICIAFl6P6heQEB8FjQBoCAFAlAh5IiTEgKCIAEBAkIBGRIADwWfMgCASkSgA4lRZiQFBAACShD9w/NCwiAx4I2AASkSAA6lBRhQlJAACQgSEAgIEMC4LHgQxYISJEAdCgpwoSkgIAICRgE/4AAEAACQAAIAAEgAARmOoG+V0x0UNB/Tzpq4AAC/7/dOiQCAABAINa/NQ5BBG6Ot1MQIECAAAECBL4F9gK2DQIECBAgQIAAgXuBAD6oXckpYL0oAAAAAElFTkSuQmCC;" vertex="1" parent="1">
          <mxGeometry x="850" y="240" width="608.54" height="238" as="geometry" />
        </mxCell>
        <mxCell id="Rfl5-FTgtZp-7Mx7iqGK-194" value="perm（文件权限说明）" style="shape=table;startSize=30;container=1;collapsible=0;childLayout=tableLayout;fontSize=18;fontStyle=1" vertex="1" parent="1">
          <mxGeometry x="850" y="478" width="610" height="180" as="geometry" />
        </mxCell>
        <mxCell id="Rfl5-FTgtZp-7Mx7iqGK-195" value="" style="shape=tableRow;horizontal=0;startSize=0;swimlaneHead=0;swimlaneBody=0;strokeColor=inherit;top=0;left=0;bottom=0;right=0;collapsible=0;dropTarget=0;fillColor=none;points=[[0,0.5],[1,0.5]];portConstraint=eastwest;" vertex="1" parent="Rfl5-FTgtZp-7Mx7iqGK-194">
          <mxGeometry y="30" width="610" height="150" as="geometry" />
        </mxCell>
        <mxCell id="Rfl5-FTgtZp-7Mx7iqGK-196" value="" style="shape=partialRectangle;html=1;whiteSpace=wrap;connectable=0;strokeColor=inherit;overflow=hidden;fillColor=none;top=0;left=0;bottom=0;right=0;pointerEvents=1;" vertex="1" parent="Rfl5-FTgtZp-7Mx7iqGK-195">
          <mxGeometry width="610" height="150" as="geometry">
            <mxRectangle width="610" height="150" as="alternateBounds" />
          </mxGeometry>
        </mxCell>
        <mxCell id="Rfl5-FTgtZp-7Mx7iqGK-198" value="" style="shape=image;verticalLabelPosition=bottom;labelBackgroundColor=default;verticalAlign=top;aspect=fixed;imageAspect=0;image=data:image/png,iVBORw0KGgoAAAANSUhEUgAAA1EAAADSCAIAAAAkK90WAAAgAElEQVR4Aey9CVQVSZo2nFVlna7qrjk9p7r7/DPT09X9fX9X93T3dF+THURQFCXZNwHZQWQVlUVUVlEURFEEEXBhcwEEFQRBEFBAENl3ZN+3VLjXoqtLZv7x/KbhhFl5L/emINx7IThxOJGRsbzxxJvvfTLijUgsCP0hBBACCAGEAEIAIYAQQAisdgSwoKCgQe5rFBACK49AUFBQKzmKAkJg5RFAurfymKMWAQJI95AmiBEBxPkQ3xUbAsj2ifHJX+NNI91b4wogxu4j3RMj+KhpxPnExnhWfl5N0lpEtg8ZIHEhgHRPXMijdpHuIR0QIwKI8yHOJzYEkO0T45O/xptGurfGFUCM3Ue6J0bwUdOI84mN8UjarNvKy4NsHzJA4kIA6Z64kEftIt1DOiBGBD6A813JuXPhZnrf8/9aVnIwMPs//bP/H2gi+2HFhZvpdX3j4LJj/LtFNN1N/lDbO9489GIRZVGRZUWAve1LKsiMzbrydLhncY9KzpPS8OSzGY/yRBYvaa8tbKqG2R51NZ5NTyhoegxTUGR1IMBe9z60v82TQx9apGWKKtIw3h+bdSW58KbA4iUddTdKc8s6G+h3Mx/ln8u4WNnb2jAxANKrBzoLm6pqRxZ8UjLLCzLK74EWQZG4W8nRGYmVva30mlF8+RBgr3v1Y310MW5WFFb2tcGUjEd5d2sfwksUQQiwQeADON9miy04wema+p4ND9gfdtg1aD8IuwP2Zj+sgJeMyNOeMVhhXlWtwW4T/zMnQIpr0H6c4Nx59HiQ+7q+f1LZSNnUY2dt7zsKOMh9vf94AKM216D9V3JyYIWD3Ne5lU9wguPk70lPRHFJQIC97dNz0scJTkl7LRud5s9zMjUGJzgHo4P5bzFSdge64QTnbHoCSA9NjMAJTvCF44xs6FLaEWCvex/U07y6R9vttDLLC+ilgPaWdze3kqNm+3biBCe/voKewTnYY7ud1rWSOzjBMXQxot+C8eOXo3CCczI1ppUcTX+YZ+hqXNhU7XGMspDZVUXuR/fa+NqVdtSfz07CCU5oYgQsyIjoOuniBCej/B5M32SujhMcBpuEd1HkoyPAUveiMxO3WG0pankCBIhMi8UJjvvRvVAeMJRX7qWDlPSHeU4BLvTgE3n4fvMTegqMH78cBetBkTWFwGI4X3FdKz/Tcg3avztgb1BMZA/5apD7WtVEFSc4MOw65A7jjMjD5meQfzztGVM334QTnITszEHuazrnA3GPUF+YeZD7Ws2MslaMcCTuzCD3dXrRg6TcnL7n/4U4Hx0xiYqztH1vpkDonC/1fvYWqy38wSnQdaFHlyXnK+mok9XGZbVx8PPcSo7erCgU8jO8UHMoXfIRYK97oC+3qotznz6sG+1tJUcbJwa9TvrtPeHN382z6Qk4wVE2Us6jTcAI53wtU0OqphtktNcXNlXxK1t0RqKxu0la8S0657tRmosTHOdgD8D54m6lyOjg6ubqT4d7AmKP4gTnYu41ftkAWQTW0jHAGf78y2ivxwkOPSWlKFtgcZT4URBgqXuex71xgrPJYlNJR10rOfp0pHuz5WZqEuTJg1Zy9G7tQ5zgqJurN04MAqlis64wfgq17LWyq4oYieDS4fDuj9IXVInUIbAYzpdZUiZQjXCCs8Fkw8Ds/wDOt9VS83HHgHPgPpzg3CgqxgmOkoFibe84DNbejm+0ls75Brmv7z6uwQmOirFK0xAJOV9CdiZOcLQd9NrGeHTWomamrmyk8rhjAISo1Ms4wQGcj3CgXmc7xr9DnI+OmETFWdo+Bue7lHdDoPqZ7dvZSo5eL83ZZLGJEZSNlHGCo2igwEjfZLGJ/r7rdyYQJzj2h3bBx7hhYkBBXx4nOBU9aOVrVZ2kyF73gDJstd6KE5ycJ6XgUk5PRkFPDuoJPeIfE4oTnK3WW6sHOkC6cM5358kDnODIauOaNpo4wZHXk9Wy1wIhu/J+SPwJnOBcuJ1M53zgiZDXk3Xwd8YJjpY9gROc2KwrreSowyGnN6pO90+gywbyb7GiVmyEBDCbSC+I4h8RAZa61zI15HpkD05wdHbpALeWmMxLOMFxCdnTSo4CRnj0YiQUDHA+n8jD+fUVgBFCzrfTy+pu7UMQQDbE+SBuay0imvOdvBIPZvXAj5+Tv+fO/fYaOymrcSr5Yn51HQiXbt/CCY61tyNgFaomqtttid7n8xtNN6qbb3oz30bZNR2cPkG4yYJ6awGcr+BJPeGgCwIwRlp22sqGSm9+bjV2blHQVwCJMM+z6X+AeT5VE1XIY5JycxDng2hIfkSk7bv64A6YjQCkzdrHzinA5WZFoZCnNKUoW8iPGf+toLgwUNuTwS4lQ0Vqpazy/iZz9Y07NoIAiqiYKINLDUsNIa2jW9KCgEjdo3ekZXpETk/mDZN7/L/eVIACVg900rOBeMv0iK0f9TZr42sH3jFkdamyamZqmyw2gXo27lDdZLEp8e1sHJir49dM6lW5NJef8z3qarT2sQP5FQ3eGUac4Fj62AZfOL5xB7XAstV6q6aNJggO/s5AsAdttbLauKKBQmlHfUl7LQgnks7gBMcn8jBMKWmvrRl6xt8vlPKxEGCvew0TAyYeZlustiQX3tRz0icctMFbgZGbCVCkbbbb957wAYIBMheaeLKVHG2ZGnr7MvBuns8pwAUKD2b+EOeDgKy1iGjO53hQwLKsa7AXTnCOJ8RAYhGXcR0nOEExkSAFcL6sUmr++cj5qDd+dQKNGuR8dx49XiiDwHTgVqhmpo44HxwCqYuItH1gpYyhAAk5Vz/0KWWztut+dC9OcPR2G7SSo+BHmtEuuFTQl//Q1lF+CURApO7RZa7qb8cJDn3oLb2tqWm/mjJ6NhivHug4dulU5qN8gSoEE2OzrpR01Mno4PJ6slX97ZV9bfxru/ycr6iFclBmBDk9GRmddzOFjFvG7iZAMDDJt+eYVys5mph7DbxN6ezSwQmOgYshXOpFC7twHJcp8kG6V97d/KDt6UJLtBTX97YGcgrhfJt3boLja77fEic4iPMt0+BKfrWiOV9111BJY/uR85QHMU5wUvPyShrbS5s6KW3bZwd5xu7D1Cx0Vlk5nfMdiKSWOTIelALOp2yo1DoyC4Ot727I+WA9g9zXrSOzToc9GJbLxM38TnkVPRuY55PVxuHkH5g4RGu7DJQk9lKk7avqb79b+zAiJRooQ0TquYzye+b7LaH9YkROJJ0R+MiJ5HwxNymvAJzggAXiVnI0+X4Wfc9HVX/7Ln9n+kqKwIZQorQgIFL36B3JfUq9u+rs0oGJ3pGHcIITdysZpgiJCFnbvZT/zlHBKcAFzA6qmChDrXYN9eTnfKCh2pEewDuB3hq6mRQ2VYUmnsQJDuFIyRl3K/ntZg5q1qeVHE0rptZhcIJzICqglRwF1YIUxn+0sCtkKD/KLTa6B3XAKcAlpShb4OQcWMBlcD7tXbpOAS6OAWDRH/nzrSqPlI+ifqI5H2AMNj67gGkgHHSBU91Wq23yenLd5A+D3Nc95CslA0VFfQVwCfz5ttsShTUNMtrrzTyt3nE+I2U6/wAziHR/vtZR7unUS2D/h4m7heU+agkjKvWyjQ/lpEK9nRxye9zRDysRsocD+fNBlCQ2wsb2Qc8VapXfUqOouZrxE0W/BEsYJe21dIvpFOCi66SHE5ztdlqM9Mv51Ja3gsZK4LdA53zG7ibUTuG33tOt5GhWJbWZw8TD9KM8dagSsSPAUveAnNGZiTjBcaNtmQSeVV4n/egdKemogyuqmjaaZV3vzlUB6idw3y7YJETXYXpc2UhJIOe79bgI7NkE2y/AUq+Cnhy4lNFe/3SkO+CtW2Hy/SxwCsw2222gZjrnSyrIoMsPptUR56NjshxxNrpHV4OTqTHsOR+9oJa91q3H1B4OKx+7opYnICTmXkPzfMsxrNJSJyvO1zAwLauNA58qysndz6V/5r/3HaPedNOLHgxyX18tKKB8SwP3QXoB1nYHua/BHo7Cmgbgp2zqsRMGFWMVOM93raDQPcRH8a3fnqwOHhJ7upv8Ae7hGOS+zip9qONIHdghpyd75HwUPMNvkPs69MJZnOCk3bsHWx/kvkacj46GZMbZ2L7GiUEVE2XIyWz9HO88eZBTU5JTUwK2XOw55gUuc2pKiltr4I42uu1bKA42cATFheEER9Oa8qCH83z7wn1xggN/FGOzqInA/RE/+o2XloccycmPABvdg6X2nqB2UMITfMB7Atg8AfO0kqOMVde4WyngHUPZiPJLtvVzdApwAf52lt42TgEuRy9G1o325tdXgJDxKA/M0sGUgsZKfs6XUpQNuJ1LiIdzMLUekl1VdOZGPHDwAqqeVVlod5DyKSztqG8lR8EBLjI6OGOez8TDlP4WpO9sAI+DofcLxT8uAmx072ZF4c2Kwj3HKB8qyPk2mavTx2unlxX/2u6BqICilidgD7iWvRZQqt2BbrALAukjvIsiqx4BVpwv+loKTnDsDlDTxSZu5mCfREZxCXXu3WGPQe5rM09K+cBBeoBeQM6Xkk85tZxKol6UBYa7VU8Hua8zS8pktNdvNN0YeuFsfd8EqMTUnTrLKj4rA1z2kK8iLscr6Mu7BnsNcl9fvnMb7AjRsqNcUsw8rcBlQHQE4nySSfIYUrGxfZfz03GCY7GfUjDwm5R8Pyu58GZZZ0NE6jnKhTQurKS9No12ukTdaC9kgTk1Jfsj/Cgv9VOHIVmEd8HUy+O+Nu1dusD7CnK+U1fPUyfzxb87mQ/MmkRdv7DqLcIa6SAb3YNQAKc3+qF6LdMjmyyoU6UEntdt6GJEuTu/PVFPoNEDibZ+jq3kaFJBJvgh51/bvVlRyM/5mqeHbf0cY25efthFvUjjBAeosYmHGU5wwI6QoxdPbtyhqmKi3DI9Qh3zMdyjYakBDpukz/Mp6MsrGynBIK8nizgfHPTli7DXPTD6kPMJ1CXG2i5jD0fa2z1t9FP9EOdbvpGVippFc77e5/NbrbZpO+jtDztMrXY1tsvrybkf8e17/l/q5ptktNcfT6TOitR20AOntIDfdcj5gOefdzh1Coby27VdwkFXQV+hZXimtLGDcNA1dDFtGZ4BhyeD3biQGQAqmVvxBKYMcl9XdQ6CY5mDYiIFPgOmHjsR56MjJrFxNrbP0MVIxVjJ97Q/NZVblK1lrwVmUzRtNAHnO3QuZIOJipKh4tORbvjINYz3t5KjJR11uU8fHowOBjMcToGu4Hy1VnK0orsF5AFFGsb7QbWQ84H3Y7uD1K8ydQTG20MxsiqFbRmGraOI5CPARvdAL4pba2S016sYKzVPD9P7BVz6BJ7XDTjfnScPsquKwAwx4aCdXVWUXVWkt5uaS4u7lZJdVVTYVNVKjoYnU8sUAkNCzlV+ztdKju6POGDpbQ2WdzdZbLL0trbYb2W+39Lj2L7qgQ4ZHXyDCbWE4hzsAQWuHui4XU0dmEXnfDa+dj6Rh2EA50WjtV0I2jJF2Ose5HzAQKUV3wYzwcBZ0/aAfVHLk0ddjUBOgXs4gPqpmm7Qc9IHAazyoz0cyzS4kl+taM537noqTnD8z4a7BVMLHF1T35+7nto4SA5yX59JfX8IJFjkhfQC+OS5BXtb7LUBO3wh5wu/dAFMy4HdkX6nQp9N/+NGUfF2W4IRZN8uRmyx3MpI325LtI7MNg+9AMfyadlRO9gf1LeBgwPtDjgjzgcHQpIjIm0fWJNyCdkDfl8fdTVW9LQCr6ND50LAzoyguDCvyIM4wYm5eRk+b4auxub7La3eHmmRVnw7u6oILN2aeJhWD3SEXTotq42HJ5+F+VvJ0fvN1HZIyPkqelpxgrPNdhvIo2mjSblJDb2nlfSyKC51CIjUPdgj8L7hE3kYpoAIcPFUNd3A/6EzwPnAZ2MOnwuhvgFzJgiU4v8OB+B8J5LOANcr7V26RS1PfCKpF+yFOB+on0ETDVwMQRNgVRcnOJfybtBlzq68z+B8jBrAJeJ8dNCWI85e9yDnA6+v4Estu/ydwRspndO3kqOA820wUaGcSt96qmjZax2IChA4yojzLcfISkWdIjhf4yCpbKgkryf3pHsEbLmgf3uta/LvSgbUkWam7tTUGj2AeT6D3ZQjvM4ug6YhEnK+2t5x4J611WpbdtkjUAocrSdQOwUmNg09BwW7yR9kdWW2WmoOcl8XPKnHCQ5Y+UX+fPThkMy4SNtnsd9KRgcvbKreE0a9bzx86xRv40vt7MmuvA8535tvJFBeB3t2gEfu0bMmnOBssd66O4g6Ziit+DY1sdfTClboztyIz6mhDhVXNd1AP4cMeMBAztdKjioaKMhq4w0TA9UD1C51+rZNqXi2kZBCEBCpe6BszdAzJUNFGe31Rc3vv8IMqzVyo+zb8STmZ6wg58upKZPXk5XVxuES8EKc78LtZPpZLeDHPiHnatytFGsfu+tldxlnMh+MDqZ8bBLCW8nRwPPH6O6GYBO6spFy08SPvvybWU55XdPn+aC7KugR2sMBR3ZZIyx1D26vtvFzUDFR9jrpBwY6+MJxOudjzPPRfy617LVM9uzACQ79TFO0trusgyv5lYvgfP0z/22w2wScugc+mwE5X/+L/977dhsH2JyRkneXTiwA52sZnqnvnwTpkPMNcl+HxJ5+85GMHXss4T5felnq67p9E+AjbOD4FY9Q3/6Z/2bkAZep9+7hBMfz6EHwvTWc4PidPjrIfX3hZvqp5Is95Cv0HQ6BuElCokjbd63kjnfkoVZy1CWE8lUv62rIffpQRnv9ZsvNzdPDkPO1kqPgGwYV3S2t5Cj4MKXPqcPAwx1wvjd5qvrbE3LSblYUmniYgQ1JIfEn4CNa0ESdEEnnfIAjPmh7Cj51JfBbW7A4ikgXAiJ1D3QnOP4449Ms9G4mFWSAc/vuN7/7KGorOVo90AlObE4rygZrrAfPvv/Q84dyPtgcnfNVdLeoGFP7QpQMFT2O7ZPRXq/rpFv/1p+heqBzu50W+OGPzkyExVvJUUAU6JwP7eGg47NicZa610qOHno7SQxGc3/EAQ1LDfCxZjrn2xfuuyfMu3qgg762C/qSV/cI6CfQDZCION+KDbRkNiSC8w1yX98ur2wd5cKNGoDztY3xXN5+VE3ZUAkwP1kdPPluLmQS0J8PpAzM/g/49trdqqfH4s/p7DLYbkt9L8g5cF/H+Hew1CD3dTf5w+U7t8EhLDv2WNb3TYC4ibvF3cc1dJdBkNnA2RRuHwHL0BGX4+kVIs5HR0Oi4iJtX8v0CPjUgcNh6ijHss4GSx9bnOCcuRHfSo7SOZ/XSWqjRtytlIbx/s07Kef6W4+LGJwPPIHgRDRwvMXGHarQq+9eQwWD89kf2mXj51DW2QB++M9nJ0nmM4ykWgQCInUPHNAjo4PLaK+/9bhooSaAZhq6GoOvY91rqADqR30p1Vx9i9UWS28b+EXUVnLU/eheavX27axh8+RQ8+QQWNuF83wy2ut3+Ttr2VO87co96iwhEOicD2zLiEg5BxxVcYLje/pwy9RQ3WivpTflS6NlT8hor1fQl8+pKYE1XC+7y5jnUzRQ2GCiAgNYfkFruxCxZYqw0b1WcrS8uxmQPDk9mbPpCbveuhSbeJhB+g7WdsEaSFFz9Y3SXFs/R/qR9R7HqA+f7gv3pXcEcT46GmswLprzQZYAFmo7xr9LyM5UM1MDX9ctrG0a5L4OjKbOAqXc/s6cAFN3DM4HVl3htLOsNl7a1AnmWjR2brlZUlba1HnhZvr+sMPgABfqy0U+ToBrlrd2g1Na3n5TaLv/2fArOTnlrd19z/8LnBej72Rk67vbyd9zqxV1BtWNomIoM9gaQu0v9vekJ6K4JCDA0va1kqOA6uXUlG2x2rLFakvDxACD8118e+jUvnDfhJyr8PwCQASN3EzgAQe7/J232W7HCU5y4U2wABeTeQk89nn15YDzuR3dCz6ZBT6WtcliE/gtVDXdANLB1OMaNBarqcside/OkwcqJtRnmv1jQoV0vLy7GRhDY3eTOzWlIL4nzDsyLRaojZyejJGbiaWPrYO/s91BR0tvG9M95oSjzsYdqgp6ctUDnQzOp+ekr2q6AfC2yr625skhMEkTdolaGwGE7F5DxfErpwEh2GK9FZwF43XSD8xMa9kTFT2tRxLCwURgfE4qkB94g+0OcncKcAFf8RI4z6frpOcS8n7zh5C+o1uLQ0Ck7oFqwVL7xh0bQxMjDFwMgTsKOHwHeLNstd7qFOCyeecmBT25+rE+hjDxOZQjvryeLOPjy8BtFPnzMeBaO5cfwPkIe13Kj6rsEdh7YbHXpqK9D1CHgdn/OZV8UVabOv/J/2w4PJMZEovg2FOA8G213h4UE1nwpH5g9n8KntRvsaS+XH4lJ8fv9FHICI1cd6Tdu0dfzO2cnItMSthsQc1sgxCbftXUgzrJRdVEtaZ7FJwC+PbLRaaAdFZ1DiobKikbqYCP9vqfOQGFQREJQYCl7WslR3d4UicElXTUPR3uuVVd7Hpkj4KeHNDDyLTYtwtqHUkFmc2TlANTWvFtML1xt/bhZkvqm86MYOlt0zw5dCn/xqm0WLgtA6yDmO3bCY7MYBShX7qGeq4dA7FaeypS925VFysbKTsFujK84vgBKWisVDNTM99vmVNTtnHHRls/R7DD90HbU/+YI+BIF7r+wLj5fkvqwOSJgadD3U0TQ9Cfr3qgA37Jt6KnFU7m4QTncn761Qd3QA0K+vIBsUfrx/rKOhuAkys41ajy7UeBm6eH/WOOANoHvAnBpzhEqjfjK3P8/UUpS0RApO6B+lumRyx9bIuaqwNiqR9HLXvidnUxuFU/1ge8WYAm8J8bmvEoD5zXeOzSKVCkpKNu4w5VdXN18CbDvydpiZ1CxaUFgQ/gfK7BXjv323eTP5xNS754K5uxzDrIfZ1TUW3js6vv+X8Ncl/vDzsM/OoAvajtHXc67JFfXcco1ToyG5V6eZD7umFg2jlwX2z61fK2noUYSQ/5KqusPPTCWa8TgYPc17HpV41dzZ50DQ9yX7cMzzxqeVbdNUQ/q9nGZ5esNq5qomrj4/TkGZUNBYlCgKXtayVH3znF/+9XMS7l35DVlVExVrLysYOfvRf4yLVMDVV0t8Az6ItanoBfRP7M9xoqNllscgx490F6/gwoZTUhwEb3CpuqRBI+gMmDtlqwgJv5KL96oIMBVO1Iz8OuhjefeylorCxqri7rbKjsa3s60s04/KVm6JlTgMuhcyGM4ju9rOT1ZNXM1FxDPcFhQ8Fxx89nJ8HXlVZytGVqyMbXLjIttmXqR/s2LuXfSL2fDSrMqSlxOLz7bHpCeXezyMCQAV1+RATY6B5oDrzENk8OnUyNofvktZKj9eP9BY2Vd2sfFjVXMxTpzf6zwqZqTRtNvzOB4IBGUJvFfitZbVzFRNl8786ilvceqB+xa6gqyUfgAzifRNEFIEwP+UoCpUIisUSAve1rGO+vG+2l2y/Jf7SQhJKMAHvdk+ReINmkEYGV0T36K4E0ooRkXiYEpJvzseQWKJtkIrAytm+ZnhxUrVQjgHRPqodPqoVHuifVwyftwiPOhxZ8xYYAsn3Sbj6kV36ke9I7dtIuOdI9aR9BqZYfcT6xMR7JnHtbSamQ7ZNq2yHVwiPdk+rhk2rhke5J9fBJu/CI8yHOJzYEkO2TdvMhvfIj3ZPesZN2yZHuSfsISrX8iPOJjfGs5IyaZLaFbJ9U2w6pFh7pnlQPn1QLj3RPqodP2oVHnA9xPrEhgGyftJsP6ZUf6Z70jp20S450T9pHUKrlpzgf+kMIIAQQAggBhABCACGAEFjdCFCcjzvPQwEhsPIIIN1becxRiwABpHtIE8SFANI9cSGP2uXO8xDnQ3xXbAgg24dskLgQQLonLuRRu0j3kA6IEQHE+cTGeMQ46hLSNLJ9EjIQa1AMpHtrcNAlpMtI9yRkINamGIjzIc4nNgSQ7VubRkcSeo10TxJGYW3KgHRvbY67hPR6MZyvc7ArMDQwMTlReB9KHpdm599i5JmeIwNDAxs6GxnpS7msbnwSEhYyPUcupRJUduURQLZv5TFHLQIEkO4hTRAXAkj3xIU8apetP19pVZmJuenj+ioA2YPKEgzDVNVUweXsK67SBiWH3Q7doz0Q07r2+p988cWXP/3yactTmMid58UkxGIYxsE5s6+4MP1BZYmxmYnIMPPDLCxCj1jaWmIYlpqRRk9EcclHANk+yR+j1Soh0r3VOrKS36+V0b2k21dir8Z8RDT6yQH+2p6013iF7eNPRykSiwCreb7E5EQMw9bLrH/xjxnuPI/B+bLzb2EY9rv/87vn37+g9/PM+bMYhm1Q2wATp15O/eab32AYdq+kACZy53mpGWkYiz/QOr0giN8rKcAwTFNrG/8tlCLJCKyM7ZNkBJBs4kIA6Z64kEftstS93Ee5OMERHrKKsxbC82ZRpobFJsaPMsj8/PsX9c8aWIaZH6gf/Wdj3SrGSoVV7364Z17NzvwwM/PDzP3q+5pWW0Ac5FxIHpQuIQiw4nzceZ76ZnUMwyKjI/k53yaNTRiGJSQlgC4dDDykqqaqqqa6QW3DJ598gmGYgbGBqcUOQpf42/q/YRj2ky++ABlU1VTBLCDgfA7OjrVtdbVtdRFnIjAMs7KzApe1bXXf/vEPGIZBzjc2M660QQkGBWVFwBg9vTwdXXaZmJtqam3LLborIRAjMRZCgKXtu3r3qv4uXUV9ef3d+tfzry9UGyP9SMwRhrk8dMoP5Hnxjxl4S1YH13XUTslJhsXD4o7pOGjDy7yKfJzgdI0+AynTc9Mn4o9r7NRQNJC38baubK6EOU8nnYbVqhgre4S4w1IwD4pICAIsda+yudLW10bFWHm7jeax88cmeJP88sdnJMjq4A3dDfRbwgveuHfD2MVQyVDBYLd+Sk4yfTFB4bIAACAASURBVNGDXgmKr0oEWOpe7qPc7TaaLQOtIFy5dXmLxWZ42TLQqr9bn875Zl9xeyf7YGjpb1EyVCisKoQpw8+HAZ69k33QUomMwFLZD7KVjRQLHlO0LzQ2VGDB6rbqVTlkq6lTbDlfZd1jDMO++e03z79/QZ/ny87LxjDsb+v/BhdeDYwNWMzZvcvyoLIEzvP5Hj4AkAUU0NPLEwL9V85f6ZxvmBwR2cSVa0mwOIpIJgJsbF9WcRZOcI7EHLlddicoOhAnOFlFN9l0p6G7Ia8iP/FmIk5wzqVF51Xk13bWgoKA8x09f7SwqiCvPA9Um5abCu4K53yBZwJUjJUupF+49SDb4YCdkqFC21A7KHg66bS6+cbCqoLCqoLr+de1bLdp22tNfTfNRlqUZ4URYKN7Lf0tivrynkc8CqsKr969utlC3fOIB0PO3sk+FWOlsLhj9HThBW/cuyGrjUdeOllcU3w25aycrszlW5fpxVF8dSPARve487zcR7m6ju9fPnMf5W6z3kpHZoe7CZ3zjc2OC+RhMJFfe+m10ePPxrpxgvNsrJueyJ3nlTU8vJT9I10trimmS4XeXhiISeAlW87HneepbFT57e9+29DZSOd824jtn3zyCaBu7LvXO9bX2ttG/v05KAJI3h//9B/ApU9RRQnDsG//8C308Pv5P/+cn/P96S9/Etii7+EDGIYhzicQHIlKZGP7nA46OvvvhmI7HLC387WFlyIjNR1PcYJTUltKzwk437X8azDR+bCTvpMeuBTC+WZezSrqy1+4EQdyTr6cUjFWOptyFlyeTjqtabUF1lnV8hgnOLdLmNuYYAYUESMCbHQv7MIxbXsCLi/cLruDE5zu8R/9EHqF7dfYqTHOnaD3RXjBHe4mByPfTTlz53khMSHa9lr04ii+uhFgo3uL5nxNvc0C0YtKilo65wM1N/U2Qx7JiDj6OQhsHSVKDgKsOF9h2X1jMxNFFSUDYwNjMxOwmPurX/3K2MzE0MTw99/+3tjMxNRiB+zVidPhBsYG9AAm7YKPBR85Ecqd54G5wCdNNaDIh/rzgXk+xPkg4FIaYWP77HxtvY97wQ6Ozo4JdCWGGRgRlpwPTLeAskI43/PvX8jq4HBGkDvP6ycHRmfHQEEG55v5YUZGe/3HdaNm9A5dLhoBNrrnFui6/9h7//Su0Wc4wSmte//+UFZfJnDiWXhBZSNFui9BekGGjPZ6gX5Xi+4dKijJCLDRPcD5GIyK/5J/no8954tOPctf4fTfqeMvGPN847yJjuEOECjXvVezky+nOoY7JniTky+nYPAN94m7cV6SkUeysd23ezHlosi11HXr1kFAjc1MGPn/yvkrd573b7/+t29++w0/50tJT8UwbJerU2NXU2NXU2R0JIZhNg424LKxq+kP//FH+jzf0PQwhmGI80HApTTCxvadvxaroCeXXpAxPbeYRVKWnM/vpN9WKw0AoxDOx53nOR101LLd9qihfOYVcxc5g/N1jHTiBOdq3vvZRCkdplUpNhvdc/bfTX/f6JnoxQlOcU0RAOT59y8MdusLnHUWXlBRX57+2pBVdBMnOItT71U5NKu+U2x0D3C+7TaakGwl30nS2KkBLzuGOwx+7M83OjuGE5wP4nzOh52gg2Dx0weUHgrifBmFGZAdwlfug5F+e0LcR2ZG4zPim3qbn3//Qt1sY8dI56ofPmnvIKt5voHJwYdPHgkJP/vqZ/ycb8dOMwdnRwdnRwzDhHO+y2mXMQzzCzgI0BTpz9c90v1mQ8lPf/ZTuI2DHvn1v/8are1KhV6ysX3Tc9NeYftwgqNoIO8W6Ap/cVl2UAjnS8lJnuBNjs6O3XqQLa8nG5EYDuoUzvmejXUbuxrhBGezhfrh04ea+96vpJxOOr3VSmOCNznBm+wY7nA66KhkqDBADrIUFWVbSQTY6B6gbuO8iW02micvRjA4X3xGvJyuTGNvE3eeNzDdb3/AtqrlMeiC8IKA85U3lm+2UM8rz0OcbyXHXRLaYqN73Hne7dLb0OEEUEC65xx3nsfw5xskh3CC87DhEdy0QY8cO3+MsbYbnXqWPo3dMdyxEOcDoM38QG196ycHZl9xL9+6PPxiJCEzwfOIh/5u/fzKe+T3z+9X35cEeJEMwhFgxfmEV8Gd5/38n3/Oz/noU33COd/5i3EYhv35P//M0p+vsauJXrnAOPLnEzlqYs/A0va9mRhu6m2Ou3HewtOMmjm7e5W95EI4H3xzxQmOR4g7PNNbOOfjzvNmX3HLGh5GJIZvs9FUMVaCW0Po+3bfGF91M2o/B3tRUc6VRICN7gHqRn7/3CXAOTUnhc75wNaNE/HHgcxg2RcOt5CC3Hke4HyNvU0OB+wrmyoR51vJcZeEttjoHneel3k/c4e7CRRY5B6OnvEeuk3jj38szjfzavZC+oU3e9RqO2snX05p2W4reoLYntg+ZwU1hGWELefz9PKEOyr4I59//jk/52vtbQNCiJzne+PnJ5C3MRKhM3Vu0V0Mw3QNdAV2Eu3hEAiLBCaytH10yQ9G+qmbbWR/EJQQzhd56WRlU2XAGX9lI0Xok8ed54nkfFCeyZdTBrv1PULcQcrppNObLdQrmypL60oVDeRPJ52GOVFE0hBgo3uAukHJ6Zzvev51nOC0D3WMzo6Nzo41dDe8mYpmcD6BBSHng3cR54NQrJEIG93jzvOu3LrMz9sYKXR/vpqOp7I6+EJOAvx7OBY9zweGqbSu9Py12JlXs/J6sk87f/TlhTUyjlLaTbac709/+RODgTEu+Tkf+7Vdeyf7N6c6p6SnsvTnOxN7BsMwj33McxPAGExwJ/snBuC0jZQOzFoQW6Ttm/47mVV0s3OkC6Jxv/o+TnB6xt9/8QXeEhgRwvnAvt3+qX5FfXn6TovwhBP0fZTgZNSeiV7uPK97vDur6Cb9+JWIxHBtewI0TffnO3r+qNoO1XHej7ZzCpQQJYoFAZG6x53nCdyK8aCWOl7qWv41xq8vnfMJKcid5/Hv4Xgz04z2cIhFDcTSKBvd487zIhLDvcL2Qwc+kf58d8py6GvBjK5NfTfNMEfs93CAquDarsCC8HGYfDnFaBpdShQCbDlfc3cLPCGZP/LVP33Fz/nopFD42u5f/vqXzz77bHz23Q+kSH8+PUM9wBElCkokzIciINL2zb7iqhgrQU877jzvwo04OV0Z8vt3p/yIbFEk5+PO84KiA9XNN0JTlXT7iqK+/NjsOKj8XFq0gp4cmFl80l7z9qe9ELbr7L8bevHTOV/3eLe8nuyF9AswJ4pIFAIidQ/O+MJJ5TtlOTjBAccx9k/1P2x4BMPtklt0zgemigUW5M7zTN2N4fHgb7bRHYkNgfuHJAoiJMwyIcBG96hXjiC3pNtXoAwi13YjL0fuO7oX5hcZiU49S9/DATZzgAP2GPt2QVWA87UNtV/KujQ2Ow6C00FH33Cf1sE2mCKyXZRBvAiw5XzCpRToz8e/tmtsZrJjpxlj327nYBdw5oNNCOd8E9zJL3/65bp16/rG+2ERFJFGBNjYvojEcDldmYjE8LzyvHNp0YoG8sHngtl0VuSZzPB8vo6RTlkd/GLWRVBt32S/irGS00HHO2U5l7IuqRgrHz59CNya+WHGystSw2LTpaxLuY9y/aMOUyfwld4Gd+mcjzvPO3z6oIbFJjTfzGawVj4PG91r7mtW0JPbG+p5v/r+tfxrGhabnA46ChSV4c8nvODVvGuy2vipy6eKa4qjU6kzmc9fixVYLUpclQiw0b0X/5jZYKJc2fT+Mz8iOZ+RiwF9vUIkdKk5KcfjwwRmE8j5nn//Aic4Og7auw/tAqXSclMVDeQbe5v0HHUiEsPhS47AOlGihCDAivO5eLh++8c/CAmffvop/zwfP+eDfaafz+cf4o9hmLO7C7wrnPMFHQ3CMMzQxBDmRxEpRYCN7Xv+/YuEzASD3fqKBvI6DtpnU86C0wS487yZH2Ze/IMZoN0R+e01yPm48zzfcJ8tlhqw5sctj228rVWMlbZZbz0Sc4S+JjL0fDgkJmS7jaaSoYKpuzHdn4bB+VoGWmW18SvoEwvzkujdzEb3uPO88sbyt5qgvMlcLSg6kO73SX/oGJxPZMGrd68auRgoGCho22vFZ8Tzn/tDrxzFVxkCbHTvQW2Jgp4c3fII53xgCQJ+E2iJiAnkfGDNxCXAeXqOnHk1G3s1Rl5P9mZRJnee1zPes8PdxNmfurXEplHx5UaAFedj8zk1fs5XUVu5jdiupaOFYZiiihJ3ntc19ExWXlZeSeHrX3yNYVjX0LPesb6v/umrTz75BHx4F/QWcj4rOyt5JQVFFaUvf/rl17/4mjvPa+1t++LLLz799NOSx+9PRl1ujFD9y4QAG9snpGnzPdQ2XkYQ4tEipCp0a60hsETdW2twof5+RATY6J61l5X3CW96o5DzDUz394z3dI50adluy32UC04SsNxv6Rr4ft6EXpB9vGO4o6y+rLK5ErirjsyM0suGxITsCXEnv39eWldq6m68wUQZfHsX5Jl8OWXjY73roCOifXTQJDDOivOJlFtVTVVOQQ5mM7XYsW7dutbetq3bNT///PPffPObpOvvvmGvslFl3bp1v/jlL3a7OXPnec3dLd/+8Q/ue9/tfAQ1XMu6/rOvfuZ90Of0udMYhn322Wf//pt/j4qJ4s7zBqeGTMxNXfe4wrZQRHoRYGP7hPSudbCt7lk9I7T2twgpgm4hBAACS9Q9BCNCYNEIiNS9QXJI11GbMWmXV5Gvv4s6qiIqKUpGe72CgYLlPouBacrBaZw34R7stvTzkCsaK2S018vpymjs1AiODmJ0sHeyDzhSF1YVhMaGDpJDjAzj3Imj54/C1RLGXXQpIQh8HM63lM6Mvhijb4RkUxU8tIVNZpRHYhEQafskVnIkmLQjgHRP2kdQeuVno3vQR0V6u4kkl0wExM/5JBMXJNUKIMDG9q2AGKiJNYgA0r01OOgS0mWkexIyEGtTDMT5JNHBfI3oIrJ9a2SgJbCbSPckcFDWiEhI99bIQEtmNxHnQ5xPbAgg2yeZRmEtSIV0by2MsmT2EemeZI7LGpEKcT6xMZ41omFCuolsnxBw0K1lRQDp3rLCiyoXggDSPSHgoFvLjQDifIjziQ0BZPuW+/FG9S+EANK9hZBB6cuNANK95UYY1S8EAcT5xMZ4hIzKGrmFbN8aGWgJ7CbSPQkclDUiEtK9NTLQktlNxPkQ5xMbAsj2SaZRWAtSId1bC6MsmX1EuieZ47JGpKI4H/pDCCAEEAIIAYQAQgAhgBBY3QhQnI+cI1FACKw8Akj3Vh5z1CJAAOke0gRxIYB0T1zIo3bJORJxPsR3xYYAsn3IBokLAaR74kIetYt0D+mAGBFAnE9sjEeMoy4hTSPbJyEDsQbFQLq3BgddQrqMdE9CBmJtioE4H+J8YkMA2b61aXQkoddI9yRhFNamDEj31ua4S0ivEecTG+OREA0QoxjI9okR/DXeNNK9Na4AYuw+0j0xgo+aRpwPcT6xIYBsHzJA4kIA6Z64kEftrozuXbp5MTrlLEIbIcBAAHE+sTEexkiswcuVsX1rEFjUZZEIIN0TCRHKsEwIsNS92yW3cIIjPKQXpC8kZPq9G5st1Ce4E/wZJrgTNW01LMPUy0lyjrT2shIuCbi7N9STvzmUIlEIIM6HOJ/YEGBp+1LuJOs56ijoy+k76aXlprJ8foKjgxhGyu+kLzlHtvS34ATnSdsTco6MvBiBE5zGnsY3O9iPxIR4HtlDzpFHY0O17QnYSk5ZDk5w2gbaQMrYzFhY3DGNnZsVDeSt91s+rH8Ic0ZeOglbVDFSdg9yg6VgHhSREARY6t7D+oc23tYqRsrbbTRDY44MPx+G8o++GD1+IUzLdpuKkbLVvp0Pah7AW+QcKaQgOUdevZtm5GygZKhg4KR3Jfvy9HfT9LIovroRYKl7t0tubbfRbOhuAOFiZqKGxSZ42dDdoO+kR+d8099Ndw53wlD/rF7JUCGvPA+m9E/0AWA7hzuhpRIZAaWsvazOJEe1D7SXPC2Jux7XPtDOHw5FHkScT/JVF3E+sTEeyVeO5ZaQje1LL0jHCU5wdFBWcVZAlD9OcDLuLfhqSxf4aXtNTlnOhRtxOME5kxyVU5ZT3VJFzpET3AlZbTyvPI+cI72Pe6mZqt6vuk/OkXtCPI7FHRXJ+fxPHVYxUjp/LTazMMPe1/bNz3ZTbxNoN/LSSTUz1bzyu3nld9NyU7fbahJ220dfjNKlQnEJQYCN7tU/q1fQl/MIdssrz0u5k7zJXM0j2A3K73Pca6PJhrjrcRmFGU6HHOX1ZGvaasBd4QWv3k2T1cbDE04UVhZEXTktpyuTmJkAq0WRVY8AG90j58jbJbd0HN6/fN4uubXNeisdHFM3YzrnG5weFE7g6NpLr4c/3j7QjhOc9oF2eMvay+pK9mVyjky+nWTorA/T6ZGj50MR56MDIplxxPkQ5xMbAmxsn6OfvdPhXfDhsfe1s/W2gZciI4+bH+MEp6iqiJ5zi+XmlJwUco7cudfCxtsazB3u9DQHP71C5vmmvptS0JeLvRoDaht5MaJipBR15TS4jLx0UtNqC2yovOERTnBu3s+EKSgiOQiw0b2j50MJO61JHrW2Rc6RWcVZ1A/hIDXj2zXchROc63nXwK3x2XGNnZsDzwSASyEFyTnS1M34QAQ15QxC0NlAwm47vESRVY8AG91bNOer66wTCOCpS5FL4Xzdo8+Gng+Rc2TQ2UC3QNeRFyOMMDYz1j/V3zveK7B1lCg5CCDOJzbGIzlKIC5J2Ng+W2+b/cf2QQkHpge6x7rhpciIQM6309M8Kokiapst1I/HhwHSpmm1Jaf0jvB5PmqOUAdPvp0E2+0e6x6YHgCXDM439XJSRns9cqOGWElUhI3uufo70+ct2gbacIJTXE29P7QPtEennO0Z64GdsvW2cfZ3ApdCCpJzpLKhIpgyAZmv5V2T0V4v0O8KVo4iqwkBNroHOJ/weTuc4PDP87HnfFFJp/nrH58dB+rNmOeD+Fvvt+QvhRMc1wAXmAdFJBkBxPkQ5xMbAmxs37nUaAU9uWt518ZmxhbxIAnkfHtDPQOi/EdfjG4wVk4vSD948sDUy0lZHbyq5bFwzkfOkY5+9tttNUuelkx9N8WQh8H5gOMgmFBk5ESXYkeAje45Hd5Ff9/oGOrACU5B5T1+4cdmxtRMVYFvADlHCi+ooC9Hf23IuEd5LyxOvfklQSmSjwAb3QOcb7uNZktfMwiXsy5p7NwML1v6mg1+7M83MD2AE5wP4nxOhxyhg2Dh40Kc4AjnfFMvJ1WMlMBrj+TjjCQUiADifGJjPALHY00lsrF9YzNj+4564gRH0UDe1d9Z4C+uENAEcr6wuGOuAS51nXXGroZltaUOB+yBU3PfWx9nIWu74A3YyMUQJzibzNUOnvSr63q/khJ56eRWK43h58PDz4db+pod/eyVDBXoU0FC5ES3VhgBNroHqNvQ86FtNpon4o8L4XyRFyMU9OTAZiDI+RYqCDhfaW3JJnO1nNI7iPOt8NCLvTk2ukf5EhTd1NulC6UV6c/XO96LE5wHNQ/gpg16JDTmCGNtNyrpNH0au6WvWSTnq2p5LKuDtw+090/08Qf+12AoPIpIDgKI8yHOJzYEWNo+co6s66yLuXrOfM8OnOCk3Elm//wI5HwJGQk7PEzvPsoFW2t1HIjKpgolQwVQrXDOR86R099NF9cUH48P22ajqWKkBLaGULuAaft2cYKjvmNjXvld9qKinCuJABvdA5xvnDvu7O+UdOvKQpwvqzhLRnt9Qno8lF94QcD5ajtr7X3tHtaVIc4HcVsjETa6R86RN/Kvm7oZQ0xEcr6OQWrjhZCwdM4Xd53aErdQ+CCvG9gvFFlhBBDnExvjWeGRlsDmWNo+uuQHInzVd2wER0bR0xeKC+R8d0pua+zcfDEzMTTmyCRvUslQ4XbJLfhKLZLzwbZGXowYOOm5B73byxl56eQmc7WHdWXF1UWKBvKRl07CnCgiaQiw0T3hS7SgR8VPihT05IKjg+gdFF4Qre3SsVqDcTa6R86RFzMTF2JXMJ3uz/e4mZqEW8hJgH8PxyLm+RYarMqmSjldGXTk0EL4SFQ64nyI84kNAZG2b3x2PONeemt/K3xm8svzcYLTMfj+EAF4S2BEIOejjKM2HnIuOCGDOiND02pL5MUIp0OOoIbjF8Lo+yjByagdQx3Uwu5gW8a9dPrxK28za4GCdH++IzEhaqaqYKebQMFQongREKl75BwpcCsGONkHCF/dUqVipOxz3Ivxaye8IP8eDpzgoD0c4tWHlWydje6Rc+Tx+LB9R/dCBz6R/nzZxdnwxZW/O6MvRhnm6IP2cAw9H+oe6xYYRl6M5D7M3Wajyd8oSpFABBDnExvjkUBtWGGRRNq+N6uoKkZKx+PDoGCxV2PkdGXGudTmMjZBIOfrHuvGCY7lPoucshxwYouDn73/qcOgwks3Lyroyw1OD4LLM8lRCnpyYGaxsqkSJzjgbD9w1+nwLnh2DJ3ztQ+2yevJnr8Wy0ZIlGflERCpe3A3D5xUzi7OxgkOPI6xubd5s4W6a4ALPMwF9gJMFS9U0MTNCBwPDvIHRwdutdKAZVFk1SPARveoV44Al0s3L0I0RK7tRiSGg1PlYRHhkaik0/Q9HGAzB3h74T+f7+j5UDi5yIicvxZ76eZFy30WwptDdyUEAcT5WFEHCRmtVSYGG9t3/EKYnK7M8QthOaV3ziRHKRrIw1PQhKOx0JnMwCFPwUBe1UQFfI1j39G9amaqZ1POgAq7hrtUjJQc/eyzi7MT0uNVjJQPnvQDt6ZeTlrus9hsoZ6QHn+75NahyIM4wckqugnu0jkfOUcePHlgs4X6QkstwoVHd5cbATa6V9dVp6AntyfEI788PzU3ZbOFuqOfPRBs+PkwYbdd3WzjzfuZOWU5IBRWFoC7QgqSc2RKToqsNn4yMYI6kzmJOpP5XGr0cvcX1S85CLDRvUne5AZj5Yd1ZVBskZzP0Fn/g06GSrp1Be40h62ACD/nY2RgXAZHB9GPnGTcRZcShQDifIjziQ0BNrZvgjtx4XqcgZOeooG8tj0RdeU0OE3gzXvw1MvJSR4zwMmVhb69Bh4/HQcCJzjgaL3j8WH083XJOfJRwyPr/ZZv9mdss94aHB1EXxPpm+gLOhu43UZTyVDBxM2I7k/D4HwN3Q2y2vjFzESJeuCRMAABNrpHzpGltSVvNUFZ3WxjQJQ/PIsRnNXHmPCgn8i9UEHQesqdZENnfQUDecJue9z182jD45pSSza6d7/qvoKeHN3yCOd8YAkCTkIvEc8P5XwWnuZoTWOJmK9YccT5xMZ4VmyMJbYhNrZPiPBmHtQ2XkYQ4tEipCp0a60hsETdW2twof5+RATY6J7Vvp1eYfvpjULO1z36rGOwvbW/dbut5u2SW2DhYudeC5eA3fT8i4i39DUXPyl6WP8wNTcFJzj9U/1CKumf6Oub7JvgTlQ0lsvq4BWN5UIyo1uSgwDifIjziQ0BNrZPyKPS2NP4pO0JIzQ8qxdSBN1CCAAElqh7CEaEwKIREKl7veO9Og4EY9IupyxHz1GHnCNPXYqU0V6vYCC/09O8e/QZOUcOPR9yC3Rt6W9ZtEigYFltqYz2ejldGepDglHvPiS4UJ3gjKE3/s2y2rj3ca+FsqF0SUMAcT6xMR5JU4WVl0ek7Vt5kVCLawQBpHtrZKAlsJtsdA/6qEig/FCkCe7E2MwY/x4mmAFFJBABxPkQ5xMbAmxsnwQ+M0ikVYAA0r1VMIhS2gWke1I6cKtDbMT5xMZ4VocCLaUXyPYtBT1UdikIIN1bCnqo7FIQQLq3FPRQ2SUigDgf4nxiQwDZviU+vaj4ohFAurdo6FDBJSKAdG+JAKLiS0EAcT6xMZ6lDNvqKIts3+oYR2nsBdI9aRy11SEz0r3VMY5S2gvE+RDnExsCyPZJqdVYBWIj3VsFgyilXUC6J6UDtzrERpxPbIxndSjQUnqBbN9S0ENll4IA0r2loIfKLgUBpHtLQQ+VXSICiPMhzic2BJDtW+LTi4ovGgGke4uGDhVcIgJI95YIICq+FAQozof+EAIIAYQAQgAhgBBACCAEVjcCFOfjzvNQQAisPAJI91Yec9QiQADpHtIEcSGAdE9cyKN2ufM8xPkQ3xUbAsj2IRskLgSQ7okLedQu0j2kA2JEAHE+sTEeMY66hDSNbJ+EDMQaFAPp3hocdAnpMtI9CRmItSkG4nyI84kNAWT71qbRkYReI92ThFFYmzIg3Vub4y4hvV4M5+sc7AoMDUxMThTeh5LHpdn5txh5pufIwNDAhs5GRvpSLqsbn4SEhUzPkcIrib+S0D3SLTwPuruSCCDbt5Joo7boCCDdo6OB4iuJANK9lUQbtcVAgBXnK60qMzE3fVxfBQo/qCzBMExVTRVczr7iKm1Qctjt0D3aA2uva6//yRdffPnTL5+2PIWJ3HleTEIshmEcnDP7igvTH1SWGJuZiAwzP8zCIvSIpa0lhmGpGWn0REa8Y6Dzs88++7//7/+dfcUdmBzkb8v38AFGEXS53Agg27fcCKP6F0IA6d5CyKD05UZg+XRv+u/kwUi/AXJwubvAnecdjPQrrin6WA1Rv8uCxL6ad+389diP1Qqqh+0ejsTkRAzD1susf/GPGe48j8H5svNvYRj2u//zu+ffv6Bjeub8WQzDNqhtgIlTL6d+881vMAy7V1IAE7nzvNSMNIzFH2idXhDE75UUYBimqbWN/xZM8djngWFYVEwUd57XOdjF35qcojzMjCIrg8Dy2b6VkR+1Ir0IIN2T3rGTdsnZ6F5WcRZOcEQGy/2WdDSu3r2q46ANfih7J/v4iz8be7/SFRobyp+BkdI72Uev9ZPRPQAAIABJREFUnx73jzrsGbqHngLjz79/Uf+sgWWY+YEiFdkPsrfbaLYPdYBKZn6YAeHkxQjfcB94CZtAkUUjwGqejzvPU9+sjmFYZHQkP+fbpLEJw7CEpAQgxMHAQ6pqqqpqqhvUNnzyyScYhhkYG5ha7CB0ib+t/xuGYT/54guQQVVNFcwCAs7n4OxY21ZX21YXcSYCwzArOytwWdtW9+0f/4BhGOR8YzPjShuUYFBQVgQcztPL09Fll4m5qabWttyiuxCUZ8PPvvzpl//6b/869d306IsxwPnUN6t3DnZ1DnbVNNdgGIY4H4RrxSJsbB93nnf17lX9XbqK+vL6u/Wv519nKd6RmCMM+3XolB8o++IfM/CWrA6u66idkpNMr7am46nDAXtVU5Vt1luPxIaMcyfYFIy8dBJWu8FE2f6AbXXbE3q1KC45CLDUvcrmSltfGxVj5e02msfOH5vgTcIuTH03HZEYrm2vpWKsZLnfsqy+DN6CkXHuhMZODa+wfTAFRG7cu2HsYqhkqGCwWz8lJ5m+6MHIiS5XHwJsdC+rOMvYxbBjuENIiLtxns75Zl7N6jnqZN7PBIgBztc62NY72dc72dfc14wTHAbn239sX8tAKwgHInzdg93g5ZP2Gpzg0Dnf9Nw0qAr8zyq6uclcrXOkCybCp0Mg3YS2kREZfj7MnefNvJo9ev6optWWjmGK9hm7GDKy4QRHwUBh9SnDyveILeerrHuMYdg3v/3m+fcv6PN82XnZGIb9bf3f4MKrgbEB/yzaQikPKkvgPB9cXQUU0NPLE8LxV85f6ZxvmBxZqEKYfuVaEixuZmmOYdiFy/FJ15N/9atfxSaexzBsu7YWyABqQ5wPwrViEZa2Dyc4R2KO3C67ExQdiBOcrKKbbCRs6G7Iq8hPvJmIE5xzadF5Ffm1nbWgIOB8R88fLawqyCvPA9Wm5aaCuz3jPSrGyjY+1pn3MxNvJqqbbYSvs8ILRl46qW6+sbCqoLCqIKs4y8bbWsFAAZgwNgKjPCuJABvda+lvUdSX9zziUVhVePXu1c0W6p5HPKCQfif91HaopuQk36++733CW05X5mnnj/xYuPO8sAvHlI0UeyZ6YSnuPO/GvRuy2njkpZPFNcVnU87K6cpcvnWZngHFVzcCbHQvqzjLwtNMOA7X86/TOd/1/OtmHqYzP8z0Tfb3TPQC4jX5cgpUMjY7zs/5As8EwCZCY0MPnHzv4ATy0zlffuU9fh5GT2Gvxs/GuhnCADEu37pcWlcKReLO8yIvR0Kp0KsRHZlFx9lyPu48T2Wjym9/99uGzkY659tGbP/kk08AdWMvRO9YX2tvG/n356AIIHl//NN/ADc7RRUlDMO+/cO30Ovu5//8c37O96e//Elgi76HD2AYBjnfxZSLGIb99ne/vXIt6f/5l3/5yU9+knM/983E5L/867+A+vUM9dA8n0AklzuRje1zOujo7L8bSuJwwN7O1xZeiozUdDzFCU5J7Y/sCKBu1/KvweLOh530nfTAZUJmgrKR4jjv3dze9fzrOMHpJwe48zzhBSMvndS02gLrHOdNqJttDLtwDKagiOQgwEb3wi4c07Yn4PLC7bI7OMHpHqdWx0Znx3CCk16QDno082rWyMXg8OlD9A429jbJ6crEZ8TTE7nzvB3uJgcj3005c+d5ITEh2vbv3j8ZOdHlqkSAje5BzrfD3YTOq2C8uKaYzvn6yYEtlhp1z+q58zy3ILcjsSHLwfk2mastNCI2PtZL53yg8pScZNhNRiTm6rmFBEDpLBFgxfkKy+4bm5koqigZGBsYm5mAxdxf/epXxmYmhiaGv//298ZmJqYWO2CTJ06HGxgb0AOYtAs+FnzkRCh3ngfmAp801YAiH+rPB2bm2HC+vvF+sL4M5/8OBh5C/nxwpMQbYWP77HxtvY97QTlHZ8cA/YIpwiMsOR+YbgFVHYkNMditD6vtm+y/cCOuf6pfIOejF2RwPu48z9bXxi3QFVaFIpKDABvdcwt03X/s/bJs1+gznOCAeQigV029zbBHh0752fhYw0vuPM/O19Zgtz7Dy5k7z1M2UqT7EqQXZMhor+fPRq8KxVcTAmx0D3K+6Tly8uUUf5j5YQZyvhf/mLHystTfpRt0NmDXQUdNqy1js+MCF1gZa7sMRsV/yZjn+yDOF516lr/C6b9Tx2sw5vkGyEGwhA1eqJ5//2Ly5VTHcAe91xO8ye02mlUtj1eTJoilL6w4H5gqg7RJYGTdunWwA8ZmJow8f+X8lTvP+7df/9s3v/2Gn/OlpKdiGLbL1amxq6mxqykyOhLDMBsHG3DZ2NX0h//4I32eb2h6GMMwNpyPO8+TV1LYRmzful0Tw7Dff/v7qe+mkT8fHCnxRtjYvvPXYhX05NILMqbnphchLUvO53fSb6uVBqg/ODrIyMVAYFv883z0ggzON/NqdruNJn31RGCdKFEsCLDRPWf/3fT3jZ6JXpzggL2K1a1VOMFp7W+Bwgec8bfctxNe3izKxAmOQCc/RX156EjAnedlFd3ECc7i1Bs2hyJShAAb3YOcj/J1+98NDTACVjkh5+PO83Yf2nXolN+py6dktNcXVlFbJAHnE+7P5xW2D/oLHjh5YE+IO7ys7apj+PPlVeR/KOdzPuwEHQSLnz6g9FwQ5zt8+iBgh/r/+7I99d20sYthVFLU2Ox4RGL49Nx0TcdTLdttaHl36XrOivMNTA4+fPJISPjZVz/j53w7dpo5ODs6ODtiGCac811Ou4xhmF/AQdAfkf583SPdbzaU/PRnP4XbOOiRX//7r+lru1PfTU99N/2H//jjJ598kv/gHty3i/z5lq49S6yBje2bnpv2CtuHExxFA3m3QNcPPR1ACOdLyUme4E2Ozo7depAtrycbkRgOugM53/Tc9OjsGAhggQ9wvoUKRl46udVKA+TvHu8G2+IE/uovETdUfOkIsNE9wPnGeRPbbDRPXowQyPniMxK2Wml0j3fTOR/YugH54oUbcUHRgVBmwPnKG8s3W6jnlechzgeRWSMRNrpH53z8s2VgnpjO+QB0/lGHD0T4grjItd3gc8HB0UEQc5H+fHfKcjaZq8EdG4zIzr3mjLXd6NSz9GnyjuGOhTgfkKG0rhRwvuEXI8l3ksZ5E15h+8HGuLHZ8QFysLK5EkqLIotGgBXnE1n7z//55/ycjz7VJ5zznb8Yh2HYn//zzyz9+Rq7muiVC4xDfz7uPM/Z3QXDMH0j/dSMNPe97oBTIs4ncliXOwMb2wdkaOptjrtx3sLTDCc4V+9eZS+YEM5Ht6QeIe7wTG/I+cITTsA8DxsewbVdmIgTHHpB+r5dQFKvIN/8ebF95UW4krDRPcD5yO+fuwQ4p+akCOR8t0tu7T60a+j5MJ3zhcUdUzFWgutih075me95748POF9jb5PDAfvKpkrE+YSP1Oq7y0b3GJyP7tDiFuQmkPOV1pVusdgMtsHCeT4hezgOnz5E9zYWyfnA1DXd+jHiH4vzjc2OHzh5wNrLaoAcbOlveTsLLuKDC6tPSZavR2w5n6eXJ9xRwR/5/PPP+Tlfa28bkFvkPN8bPz+BvI2RCJ2pc4vuYhima6ArEBf6Ho5J3pSbpxujnnPxMRiG/fJXv9yybeuWbVvBMTRo365AMJc1kY3tYwhwMNLvzUZacKQT45bASyGcL/LSycqmyoAz/spGiqOzY7A45Hwdwx0PGx5dy7+GExw651uoYOSlk5vM1R42PHrY8Ki2s3bqu8UsRkMxUGRZEWCje4te291mvTXgjD+cJPYJ9+HnfLB3iPNBKNZIhI3ufSjn65vs32qlEXgm4EzymV0HHeEejt7JvrHZ8bHZ8e5x5lZZz9A9DNLGfwnfW7jzvITMBBvvH3ms0seLfw/Houf5QLUXbsQV1xRXNFaoGCvRG0LxJSLAlvP96S9/YjAnxiU/52O/tmvvZP/mVOeU9FSW/nxnYs9gGOax7/25CXQUJriT/RMDYNpm5odZcAr0L3/1S0KXCDgSkHU3q7atjiE82rdLB3DF4iJt3/Tfyayim50jXVCk+9X3cYLTM/7+iy/wlsCIEM4H9u32T/Ur6svHXo2BxRl7OIBfS3ljOZznW6ggw58PVogiEoiASN2j9j8K2sPxoJY6XgroFWMPh7WXFeipptUWxs8nnfPx7+F4M2GM9nBIoJIsk0hsdO9DOZ+Zh6msNg42j6fcSW7tbxG5h8PC0+xi1kXowCfSn+9IbAh9LZgBztjsOMMnlf0eDlAVXNt1OGDHeHzgpcjzaxhSoUt+BNhyvubuFnhCMn/kq3/6ip/z0XmV8LXdv/z1L5999tn47LvTMUT684HTVVLS3x2oxt8resqte7erGqq587yh6eHsvOwD/n4lj0vR+Xx0iMQVF2n7Zl9xVYyVoKcdd5534UacnK4M+f27U35ESi6S83HneUHRgermG+EiSEJmgpKhAjyr5XbJLXiUFGMPB6Mg4nwih0NyMojUPep0vbhjOg7acFL5TlkOTnDahtppZ7VkgB7NvuIauxj6hvuAy6qWx2C6F/x39t9N53ym7sbwePA3n0I6EhsC9w9JDj5IkuVDgI3uMTgfJD0gwr+2W9tVR1+sELm2O/NqVtVUpbHn/YfvRa7tWu63TL7z/tRbkfhEp56l7+EAmznAJgzGvl1QFeB8rf0t2Q+ywdxkz0TvZgv11JyU1sE2kAKPfRbZOsqwEAJsOd9C5UG6QH8+/rVdYzOTHTspvxb6WS1gF+2f//PPsAnhnG+CO/nlT79ct25d3zh1fIbwMPPDbGR0pIW1BdjDAWhoQlIC4nzCcVuZu2xsX0RiuJyuTERieF553rm0aEUD+eBzwWzEE3kmMzyfr2OkU1YHv5h1EVT79kxmJYcDdrdLb6flpm6x1HD0cwC3GJyPURBxPjbjIiF52Ohec1+zgp7c3lDP+9X3r+Vf07DY5HTQEcrvG+6jbrYxNSel6Ml933AfWW28orEC3qVHGP58V/OuyWrjpy6fKq4pjk6lzmQ+fw19UVSEJafjKe1xNrrH4HzPxrqn/07CAN5DGHs4Jl9OlTeWx2fE7wlxj7l6TvgejiftNYr68tBdijvPE875BshBWW28sukDdlGk5qQcjw8TOFgCOd+D2hK1HarqZhvBB3ZnX3F9wn30d+s39TZvNN1wu+SWwKpQ4ociwIrzuXi4fvvHPwgJn376Kf88Hz/ng8LROZ9/iD+GYc7uLvCucM4XdDQIwzBDE0OYX3gEbOP9+hdf6xrohkdFmJibbtfW4j+T+etffG1sZtI19Ex4bejuR0SAje17/v2LhMwEg936igbyOg7aZ1POgt3+4AiDF/+YYQQ4KyPy22uQ83Hneb7hPlssNWDN1W3V9gdsN5gob7HU8I86PPT260CMtV2AA70g4nwfUTeWuyo2used55U3ltt4W6sYK28yVwuKDqRPpUy+nApPOKFlu03BQMFsz457ldSZAAIDg/OBzwkauRgoGCho22vFZ8TPvJoVWBAlrkoE2OgenfOFxobCZQc6IHTOZ+NtLauD6+/WDz4XfLv09gA5KJzznb5yysrrR9/qFc754jMSttlofixFFcj5EjITcIITnRrNneeNzY7vO7pXbYdqY2/Tm0+/vpkvVzffCG7REUDxRSDAivOx+ZwaP+erqK3cRmzX0qEIlqIK5YbZNfRMVl5WXknh6198jWFY19Cz3rG+r/7pq08++QR8eBd0AHI+KzsreSUFRRWlL3/65de/+PrNZ/hae9u++PKLTz/9tOTxj76sIKTnmTmZFbWV8FwfQPjo6870eG1bnZCq0K2PiwAb2yekRfM91DZeRoCf0xBSEN1CCCxR9xCACIFFI8BG9+icj78h4IR3+sophwN24O7DhkcD0+8XvtyC3BiGEV5Gp54dfj68wUQ5LTeNXjPkfF2jz3omeh+3PMYJDtgF3E8ObDBRjs9IoOdfRLxjuKOsvqyyuRJsjBuZGaVXYrBbH3y0JiUneYvFZn0nvdbBd9tAufO8loHWLRabT185RS+C4otAgBXnE1mvqpqqnIIczGZqsWPdunWtvW1bt2t+/vnnv/nmN0nX333DXmWjyrp1637xy1/sdnPmzvOau1u+/eMf3Pe6w7Lced61rOs/++pn3gd9Tp87jWHYZ5999u+/+feomKg3R9sPTg2ZmJu67ln8tw36JwY6B7sWCsiTmj4Qyx1nY/uEyNA62Fb3rJ4R6MfkCimLbq1xBJaoe2scPdT9pSDARveEcz5nf2cFPTlNqy037t0QKMnw82HG+Xnwcpw3UVZfZr7HDC5rgBpOxB8POOPPnefZ+FjLauMbTJThAZNNvc0eIe5L/3GsaKyQ0V4vpyujsVODfztIx0gnkORcWvSl7Mv8TtuNvU1g2Vdgl1EiSwQ+Dudj2ZjAbKMvxj70VAu6F4LAOlGiVCDAxvZJRUeQkFKHANI9qRuyVSMwG92bfcWFbirL0fFlrXw5BEZ1fiwExM/5PlZPUD1ShwAb2yd1nUICSwUCSPekYphWpZBI91blsEpLpxDnE+x2LS3jJ9VyItsn1cMn1cIj3ZPq4ZNq4ZHuSfXwSbvwiPMhzic2BJDtk3bzIb3yI92T3rGTdsmR7kn7CEq1/IjziY3xSLXefBThke37KDCiShaBANK9RYCGinwUBJDufRQYUSWLQwBxPsT5xIYAsn2Le2hRqaUjgHRv6RiiGhaHANK9xeGGSn0UBBDnExvj+SjjJ9WVINsn1cMn1cIj3ZPq4ZNq4ZHuSfXwSbvwFOdDfwgBhABCACGAEEAIIAQQAqsbAYrzkXMkCgiBlUcA6d7KY45aBAgg3UOaIC4EkO6JC3nULjlHIs6H+K7YEEC2D9kgcSGAdE9cyKN2ke4hHRAjAojziY3xiHHUJaRpZPskZCDWoBhI99bgoEtIl5HuSchArE0xEOdDnE9sCCDbtzaNjiT0GumeJIzC2pQB6d7aHHcJ6TXifGJjPBKiAWIUA9k+MYK/xptGurfGFUCM3Ue6J0bwUdOI8yHOJzYEkO1DBkhcCCDdExfyqN3l073x2fEDEb49Yz0rAPKBCN+Cynsr0BBq4uMigDif2BjPxx1Iaaxt+WyfNKKBZF5JBJDurSTaqC06Amx0L70gHSc4IsPOvRb0mlPuJGvbE5O8SXKO7Bzu5C/ePtAO84ecC+bPwEjpHO6E+RmRQ5EHPULcGYngcoI7UdNWwzJMvZycejnJaHehyyvZlwW2iBLZI4A4H+J8YkOAje0j58iUO8l6jjoK+nL6TnppuakslTs4OohhOPxO+pJzZEt/C05wnrQ9IefIyIsROMFp7Gl8s4P9SEyI55E9oPLHzY/tfe1UTVS2WW8Njg4cIodA+iTvvW2S1cF1HAi6DQpPOAFb3GCsbOdjU9FUwVJalG2FEWCpew/rH9p4W6sYKW+30QyNOTL8fBjKOfpi9PiFMMJuu4qR0s69FsVPiuAtco58WP/Q2suKKmirefR8KL0gOUdevZtm5GygZKhg4KR3Jfvy9HfT9LIovroRYKN76QXpRs4GLX3NQkLM1XN0zjf13ZSug/aN/OsAPcD5GnsaO4c7O4c767rqcILD4Hx7Qz0buhtA8D3h7RboCi8rmypxgkPnfGMzY6Aq8D/jXrq62cbW/laYCJVcIN2EtpER6Z/oA5yv8HFh+0D7zfuZ6QXp7QPt/MFwtz7d3q5uJVm+3iHOJzbGs3yDKi01s7R9OMEJjg7KKs4KiPLHCU7GvXQ2HXzaXpNTlnPhRhxOcM4kR+WU5VS3VJFz5AR3QlYbzyvPI+dI7+Neaqaq96vuk3PknhCPY3FHyTmyY7BdxUjZ2svqRv71Czfi1HdshK+zgPMdiQnJK7+bU3oHyJN8OwnIE55wQs1MNa/8bl753fSCdOv9lgoG8i19zWykRXlWGAE2ulf/rF5BX84j2C2vPC/lTvImczWPYDcop2+4j5qp6pXsy/nl+V5h++V0ZapaHoO7dZ11Cnpyrv7OmYUZsVdjVIyU9x31hAWv3k2T1cbDE04UVhZEXTktpyuTmJkA76LIqkeAje6lF6Sb79khHIq03FQ650vLTd3hbjL1crJruKtjqAMQr5EXI6CSwelBfs7nf+owbCLkXLBPuDe8BPnpnC/3YS6DrjEu2atx+0A7XRjA+eo668g5cv+xfcHRgs8MNnUzRpwPDtCiI4jzIc4nNgTY2D5HP3unw7ugftv72tl628BLkZHHzY9xglNU9aM5mC2Wm1NyUsg5cudeCxtvazB3uNPTHNisC9fjlA0Vh56/m9tLy03FCU73WDc5RwLOl5pLlQXB6ZCj3i5dEA9POKFptQXeGno+pL5j49HzoTAFRSQHATa6d/R8KGGnBVbKyDkyqziL+qEabCPnyIHpAZzgXMu7Cno09d2UobP+wZN+4DIgyl/HgZh6SS2xkXPkxcxEqELkHGnqZnwggppyBiHobCBhtx1eosiqR4CN7kHOZ+pmzKBW4LKwsoDO+brHurdYbgbLF64BLsHRgcvB+dTNNi40OtZeVovmfG8eivaB9gnuBDlHGjjpxV2PG3kxwggT3IlnI8+gWV5IDJQuEgHE+cTGeESOzarPwMb22Xrb7D+2D0IxMD0A6BdMER4RyPl2eppHJZ0m58jNFurH48OirlBxTastOaV3yDkyODrQwEkPVts13BV7NebZyDOBnA/M04DMDM5HzpE23tau/s6wKhSRHATY6J6rv/P/396XRkWRpWnHVFWP1jZdPd+Zc7qnl5meM909Pf31yUqWZBFEsFAT2ZFFNkERFURFFgUEBEFBQXFhcUNQERSUVHABBUtQQFB2EGSHzIQMhaTMri75fn1kXfsaFZlkBiBkkryeOJ43btz1uQ9vPnG32BHzfnyupbeFzWWVVknfHxCv0MgEalRoYrB7oBuyc29fuX6/ADe2tKaUzWXhiX4DWz3qcMXlostaFl+jHzycBAwNRoAJ97Dm44/yaeoH3Y58N4w13/D4sOtOF6uNayOSwrxDvczdVvaJ+uROsNLmduWqSWogbZxvWpovOTOJmhWyBWMCpPCo43y4r/mjfO21bNlUbC4r7UoqjgbGbBAAzQeaT2UIMPF9x7NTOFY6l4su80f5MyC6XM23IyYgIjl86PXQMnuD3Du5exJDRr4b1l7LRnNz+5IjbH2t5ZYlO84XfCjoGzczFJmm+UbejKz2MKfOnsjNEwJVggAT7vmEbaK+b7T1t7G5LLRXsaL+EZvLet7xDFc+7MhelwBnfEs1UnNO6Vhq9Qi7USDHWgevByAlZN5t6Wr9mdGbWgrYCwUBJtzDmo+UkGiXA/V/tAAUaz5SQm7a4x2aGJx4OkHL4uuiR7fwHg7F6/l2xgbg9YKTE7t+kVvxbVVzFW09H6+cN13NNzkNghcI3n18l81lKdZ8lQ0VulbaQ6+HFkpXLsR6guZTmeJZiHT5sHVm4vv4o/ydsQFsLkvPRndruO90TweQq/niUg9sjdhS115nv9W2vLbMO8QLvRN3//irjDUff5TfK+pFF5rgQ5rvfMG5gVcDvaLeq3fzdK2049PjECyHMg5+42aG4rf2taBtcbSl/R8WQMhtxggw4R7SfP2v+ld5mB9Mj5er+VJzUr9xM2vta5lK83UOdSx3MtqTGIKrijRfWe2DFc7LeWWFoPkwMovEYMI9quaTHfdC48RUzYeg23t4T/DBd2vylM7t7jsasS85AmOudD1fQWmBiZMx3rFBM1wCnGhzu8mZSdRh8qbuRqWaL+1KqpO/Y4+wW8410oOrCsZsEADNB5pPZQgw8X2I3HXtdScuHXfe7sjmsrIKLzBnvFzNl5GX4ei/7ta3N/0it7X0tqz15lY2VOjbclC2WPPFp8Vhb3u/5j6e28WBbC7LL3IbHqGh7ttFIvXM1dPMqwox5xMBJtxDmk8gFviG+2RePy9X8127d3XTHu9uYbdczTf0emh9gDN3w2o8yEdKSKT5attrvYI3PKwrB803n/2uDmUx4R5N81EXtGyN2CJX85VWlZi5rMBMU6r59iSGUlcbK9V8ubevUF2frD17zbclYrNstijEmrLeRh06ceHWATSfyhTPwiXNh6o5E99HKyskIdjE0Rivjqc9lb2Vq/kKH9wwW2965urpmBP7h8eH9W05Nx5cx1sxsOZr6m68X3M/+2YWm8uiar5DGQcf1pWHHdlrYKvXK+rFhU6GmzgZ36+5f7/mflXTE5ihwMioocGEe7Oc2xWKhZvDfJY7GVGngLHmw5iA5sNQLBKDCfemq/leDLz4xs0s/EhY0rkj3qFeeA9H+0B7n6ivT9TX2iddjUpdz+cf7TeVwMLh1PV8aTmp7rtcp+oj2T0cMxjnmyrz1JxU71CvqZ5C+LQQAM0Hmk9lCCj1fYIxQd7t3OaeZszp4kfFbC6rre/9yaL4kVxDruZ73PhY24IdfTwqI096Roa528rDZxJ89m5EOdD2cKB1LWW1D/A4H9q32zHYwbHWSck6hsulrefD4WCoIQJKuTe5jkruHg50sg/iFW0Ph9vO9bilojeioEO7De0MHje+O8AFP5Ldw8HmsmAPB8ZH4w0m3Juu5nP0c9C2YKPN4+cLzj3veKZ0D4fzdsf03DS8gE/per6olH3UuWBaN/WJ+vCMB3o0rT0cPcLuTn6n3EsoFsaeigk+FEQrEW5nhgBoPpUpnpl1mCalUur7RG9Ehnb6eMEcKSFPXjqhY6klEEs3fzG55Gq+Tn4nm8ty3enCK+ehE1u8Q73wZou0nFR9Ww4+FODavav4/Zi2hyMiOXy5kxE+AQs0H5MeUZM4SrlHSsjYkzEWXu+PXCkoLWBzWQ1dDZSzWi6j5ojeiOx8bYLiA3HrDqTGcmx00fAwDkSGwzY7dDw4uo1K2Ye3AdFiwq1GIsCEezTNhwfekCE7t1vVXEWdc8B7OLB3op3PN/JmxMj1W+TrAAAgAElEQVTBsLbtKUZY6dzu+h0u5/LP4vhKjeTMJOoeDrSZA+0+oZ3Phw4worUR31Y2VGyP9k88naC0RIjABAHQfIykAxMoIc50EWDi++LT4nQsteLT4nhlhUcvJOvZ6O47+n7dsYISpzqTmZSQojcijo2ukYMhOs5qZ+yO5U5Gx7KOotx+PJNZ3yvYM7/k2oUbmStdTb1D3k0r0DRfU0+T9lp2em4aSgiaT0F3qNsjJtyreyE9Wnl7tH/xo+Lsm1mmLiYbKRNMQfGBJo7GmdfP364oDooP1LZgl9eWoWaeLzjH5rLCj4Txynn4wtNqWbwsbQt24ukE6ZnMmdIzmY9np6gbPlCfuUOACfdomq+1t1UwJsAXWtxC28Mx+HqwrPZBas4pv8itx7KOKl7PV9lQybHWwWdPkhJSseZ7yX+pbcF+WFfOHJbM6+fRKfeySWQ1n2wcaoitrzU+C5MaDvYMEADNB5pPZQgw8X1CsTAtJ9XGx0rPRtfCi5t8Pgnt9kdHGAyPD9MuvNRvqm+voT+Std5cNpeF3ozj06V7NXKK3o3ZkBKysqFiQ5DHMnuDla6mew/vQft5aXO7KJ+g+MCVrqaoSqD5ZuCAVJWECfdICVlW+8B9l6uhnYGJk3FEcjh1KGXw9WB8WtxqT3OOja6j/7qbD6VjxugKTQzGoxTYoB7lnVV4wdbXmmOjy92wOjXn1MibEZwWDI1HgAn3qJov+ngUnnaggkPVfO67XLXXsq19rPYdjcgvufaS/1Kx5jt8JsF150++1atY86XmpK7yMP9QRJ2W5ht4NaBjqVUJ37H8h3uhcmAGNmg+lSmeGfSWhiVh4vsUNNnJX7qNl3bhrRgKEsIjQGCW3AMAAYEZI8CEe1TNJ1sQWoR3+EyCV7Anenq/5n7nkPTceHRtjdhCc4z4NjkzqUfYvczegHpIJHWcr6W3pa2/7dvn37K5LLQLuJPfuczeIDVntqciN3U3llaXPHz2EG2M61F4/Ir0qxtkv2BMkJ6bZmhnAAtecefO0gDNB5pPZQgw8X0K+F3/sr66pZp20fZIKkgOjxYzArPk3mKGDto+SwSYcE+x5tsc5sOx0jF3W3np1kW5lekRdtPOz8O3/a/6S6tLnPwd8YQJyiEu9UDYkb2khHQPdNO2YC+zN8AHkk/uVfKL3DZ71VVeW6Zl8bWOpZbZelMF20FQfcKO7EU6lWOjO611hHIBgUCMAGg+lSke3AeL1mDi+xYtONDwOUUAuDen8ELmChBgwj3RGxFepqIgqxk/mtPMZ1wrWkKBWMAf5X+oCWVa5ov2FjQfaD6VIcDE9y3av0xo+JwiANybU3ghcwUIAPcUgAOP5hoB0HwqUzxz3bXqnz/4PvXvI02tIXBPU3tW/dsF3FP/PtLgGoLmA82nMgTA92mwZ1HzpgH31LyDNLh6wD0N7lz1bxpoPpUpHvUnx1zXEHzfXCMM+U+FAHBvKmQgfK4RAO7NNcKQvwIEQPOB5lMZAuD7FPxlwqM5RQC4N6fwQuYKEADuKQAHHs01AqD5VKZ45rpr1T9/8H3q30eaWkPgnqb2rPq3C7in/n2kwTUEzQeaT2UIgO/TYM+i5k0D7ql5B2lw9YB7Gty56t80qeaDf4AAIAAIAAKAACAACAACmo2AVPOJJ8bhAgTmHwHg3vxjDiUiBIB7wARVIQDcUxXyUK54Yhw0H+hdlSEAvg98kKoQAO6pCnkoF7gHHFAhAqD5VKZ4VNjralI0+D416YhFWA3g3iLsdDVpMnBPTTpicVYDNB9oPpUhAL5vcToddWg1cE8demFx1gG4tzj7XU1aPQ3Nl3gs0XOjZ4+wl1r10xdOe270fNr0lBqI7KaXzQVFBSNvRPhRQfH1Q8kJA+QgDvkgRlV9dXRctEhCfpDcIJN5QwB837xBDQXREADu0QCB23lDALg3b1BDQbIITEPzrbZYQxBEc1cLNRdv340EQfDu3aQGIttzoydBEEdPHcOPnFydCYKof9GAQ5Bxv/KBvZOD0mv0hzFaQnTr6ulKEER23kW5TyFQbREA36e2XaPxFQPuaXwXq20Dp8W9lS6m1a01tLY4bXe8UXaDFohuT146Uf78IfWRX9S2553PqSEfxN5zOLS0puSDZCWeGB97K+4l+2Rzu1R0+VTOSdlwCJkxAso1X3NXC1Jjv/zVLwmCWLN2DVWc/f6/fk8QhNFyI3snh4DAAFyPzsHOJUuWfP7F5xW1lWxt9u49QeKJ8ak0X3beRYLBv9d/H8X5U43bD+4QBGG+ZhU1EGz1R2Bavk/9mwM1XEAIAPcWUGdpWFWnxT1De/2qlioaAtabrfNL82mB4onxF0MdOpZazzuf88cE3cM9KMIq928qGytlI8ecjGFzWYqvruFu2YQoJDw5LCBmu9ynr75//azjOcNr9Afpz3rB/YLVHuat/W0ow9EfRtGVeCYh+FAQvpVbHAROCwHlmq+y7jEDPSaN8ue//BmXvSskkCCILf5bqxtqJkcH7Z0cqJpPMCaMOhBVeJeH4iPN5+27sbalrralLuFoAkEQbhvc0G1tS90f/vRHgiCw5uOPCvSX6eOLY6CHahgQGLBxyyYH53Xma1bdLLmFKwOGeiLA0PddunXJepOlnrWu9WbrnOIchm3Zf2I/zZ3tPRKK0r7++yh+pL2WbbnRIot3gZptdWuNV4inob3Bag/zg+nxeH3C3iOhOCHVqO+SDl0nZSatdDHF+eSXXGNzWf2vBnAIGOqDAEPuVTZWegZ7ICYcOHVAOD6MmzDyRpRw+pCF1xpDe33XXa7lz8rxI/HEuIKEOFpVS7WWxddZhT/hHn4KhqYiwIR7566fo3qYqewVzsupKMWeivUN3yyeGM/iXfAO2YAeKdB8uw7sbOptRldIQrBf1DZ8W91aw+ayqJpPJBF1DXfjK7/k2grn5e2DL3AI/uvoGu6eqsKy4QM/esjRt2Oxp2LN3Va2DUhln/0WW9mYHBsOtbFgzwwB5ZqP/NuryaG+5q6W5SuWEwRx7+E9dIv+d1zvRBDEmawzzV0tL/o7UCU6Bzt//tXPlyxZ8qK/Q1bz2TrYfvkvXxIEoaOni+IjzRccFkK9pY4a/pX1V6rmGyAHlcrQ85czZ4YIpJo3BJj4vvzSfDaXtf/E/hvlhZEp+9hcVn7JNSY1fN75vKii+PS102wu6/jFlKKK4tr2WpQQab7YU7F3n9wpelSEsr14Mxs97RnpWeZg4BXiea3kalpu2jIHg8hjEehRbXttUUVxUUVxeHIYm8tCdlFFsWBcCJqPSaeoTxwm3GvqadKz1g3Y73/3yd1Lty6ZupgE7PfHTQhNDF3uaJTFu3Cv6t7ug7t1LLWetr9b1qw4Icph9O2Y83Ynp+2Oo2/lL1nBBYGhYQgw4Z5gXNjB7+zgd+rbcooqipGN/1/rbXG24FwHv/Ol4CUGZ+DVgL4t50FtmVzN1zbQFp8e5x/th+PHnIzZd/SdZxNPjMecjAlJfPcTLJ4Y548JaJqvuPK2rA6jhpy7fg5nrtjo4HeyuawOfict2rnr58rqpPXH1+Fzh3Gtxt6KcTgYM0ZAuebDWaP1fHLndqnr+UZ/GDM2MSYI4nf/8TvxxDjSfJY2lucvnf/P3/8n0mpLP11KEMSy5ctQ5kjz/enP/4NmjfUM9QmC+MMf/4AnkX/+1c9lNR91WBFXUjwxHhwWQhAEaD4qJuppM/F9Pns2ojdX1ATvEK8NwZ7Mm1PT9pTNZSE/iFMhzXe5+DIO8Q3zsfaxQrdnC84Z2OkhGSeeGE/Py9Cx1Hr1/WscWTwxfrZA+hZODQHNR0NDzW+ZcC8u7YCFFxdPL9woL2RzWZ0C6Q/V0BifzWXl3slFzRx9O2a3xSYsaS+6VZAQw5LNy9Ky+Lqq+QkOAWORIMCEexgK5nO7kcci9KzfDaPgcb7RH0bN1pvZbbHRsviau2G19SZLnPMMNB9tWBFnJZ4Y9whyn73mQxlm8S5QpSTVPnHpOLVQsGeAwLQ1n9wBNqrmC43Yg+IgzVd8/zYtScT+iBf9HWgVIKrxdNfzoXE+0Hwz6G+1SsLE920I9twdH4irPTTG7yF/snMcP5JrMNR8x7KO6VhqoRxiT8XabLbGud2rusfmstCMAw4EzYehWKAGE+5t27d114GduIEvhjrYXBYah0C8auhqxE/3Hgn1CHJHtwoSogj9rwZMnIwjjobj5GAsHgSYcA+jYWivTxU92Kat5yutKWFzWXj2M4t3wdHP4fjFFHO3lWwuKyQhuKGrsaT6Hn6zRQN7OLepDOrcbnHl7WlpvpTsY7LZiv4mPV6DNs7XS/a1DbS1DbShF6pX378e/m6kbaBt+LsRfAnHh1d7mD9peoyRAWNmCExb89U01gjGhPjy8Pag7tutba796KOPPv74408++WTJ0qVr1q756KOPCIL45JNPbB1sdfR00b7dodd8giBMV75b/JSVm00QxKatPvUvGupfNBxOOUwQhIe3B7qtf9Hwx//5E3Wcr180QFs+SG08jPNR0VBnm4nvO3X5JMdKJ/dOnkjy/tAf5o1iqPlCE0O/cTND2UalRNptscFFIGfa3NOEQxSM85m5rBga46Pr0q1LsJ6PCppa2Uy45xu+mfq+8VLYxeay0F7FquYnbC6LyoqIo+GuO9ejNipIiCKEJ4eZOBnDWk+1osS8VYYJ93BlDO31y58/xNIHGdabLKmar7mvxXjdMv9oP6T5yp+VewZ7TL6pOvo5XCq6vNLFFO3huPvkjv0WW5xzzMmYwLidSGy1DbSFJIZsj/bDt7Uv6mhzu0UVxdPVfL5hPniBYOnT+2wuS67mC0vag9Sh9T9etkfeiOy32CZnJvPHBAmnD4kkopq2p2s8V8H0Lu6+GRvT1nyK53ZHfxj7y1//Eh2//xf/+otf/uqX//Zv//bVL76S7uFwtKfu4egR9hIEsdpiDar3uYvnCIIIjdiDbtGwn4L1fJ2DnQRBfPb5Z3gbB9X49W9+DXO7MybEfCZk4vtEElFg3E42l6Vno7tt39bpng6gQPNl8S4Ix4eHxvjX7xfoWmknnD6E2j4bzSf7Xgu/6/PJKOZlMeEekm6CceEqD/PEMwlyNV96XsY3bmadgk5ZzSc3oXhivKqlSsvia7x+dHd8YDYvi3nNIeZCR4AJ93Abmczt1r+s3x7t96TpMceGU1ZXhra7eex+N+qM93AUPSpy8l+Hc446HhWVEolvla7nKyznrXBejnds0Iz1O5xpc7sp2ceow+RtA21TaT5Uh7K6MqT5Bl4PXijMFIwLA+N2HT6byOay+GOCXrJP7u5jXH8wGCIwbc1Hm6hFt9S5XXSA31e/+Op3//G72uZatO2Xtm+3pbsVC0HxxPipM6kEQfzv//1fhuv56l80yK0GNRDW8zFkgAqjMfd9DV2NqVdOuQQ4sbmsS7cuMa+zAs1H1Wf+0X74TO/ZaL7ljkYPn3+LrqTzR2Ccj3lPzXNMJtxDmo/8/tWWCN9sXpZczXfjwfXNezf1vxqQ1XxyE6KtGy4BTnjrxhrPVYcyDs5z86E4FSLAhHu4egzndl//fbSqpYpjwxl9O9b/agCv55t8x8Car+B+ARaC4onxsKS9cWkHcEFKNd+1kqtUnylrfyjNxx8ThCSGuAe69ZJ9TT1NUqUIH1yg7GvBXTYzY9qar6712cgbEb7QwctUzYfq8fOvfk7dw0HVfH9l/dXsGzOCIHYF70KRow5EUeXaVDZeTH2z5BZBEJY275ejUhsPc7tUNNTZnpbvQw3ZczjUxMkYHenEpGkKNN/hs4mVDZURR8MN7PSGxvg4t9loPjirBcOo5gYT7imYop3x3C4a7ci9k4fXAKzyMAfNp+Zs+bDVY8I9XKKhvf6j+keiv5HUiza3iyIjzYdsuuZrkJ7Pl5KdQt14HhCzXVa30UKo6/kyrmZQJSOuITJk93DMeJwPZZh2JbW0prSivsLQXp9WFtzOBgHlmu/I8SNo+E3pmcz2Tg4NHe8WNX/5L19Opfl+9e+/mpx7/e3vfosje/l4EQSRlZvNcD3f0ZNHCYLw3/n+3AQqBELxcI+wF94MqJiop63U94n+RuaXXGsffIHrj3ZUUE8owI/kGgo0H9q32zPSo2ete/LSCZw85mSMnD0cg+04goL1fKD5qCips62Ue+KJcblbMe7XPhBPjCNe0fZwuAe6oSYrSNjaL53hol2g+dSZKh+8bky4hwtlMreLIivQfJOnSmlbsDlWOre+fX9srUuA05n8M3gBn9L1fPtPRlPngnENkcEfE9CWXDPfw4FywHO73iEbaH8g+NYlwIlWLtxOFwHlmg99PGOqsTda+MPqb1ENvvjyi6k038Pqb7sFPVeu5+7YvaNfJD2x9i9//cvHH38sGJMeciaeGFe6ns/K1gppxOm2FuKrFQJKfd/YW7GhvT5eaSeeGE+7kqpjqUV+/4phQ5RqPvHEeGTKPhNn4+HvRlCeZ/PPGtjp4fNFM67CWS3vj8tiCLv6R1PKPfHEeFzqgbXeFnhQubCcx+ayWvpbKWe15KGWjr0V22+xDT4k/dqQ4oQiCYln/5Gx0sUUNJ/6E+YD1pAJ91a5f4OFjmLj7pO7qG4KNF9lY+XAq4HXfx/FKwpG344ZrTOsf1mP26V0btd1l+uFwmmcepuSfYy6hwNt5kCbMGj7dlEdkOZr7mkquF/AHxPwxwQvhV2mLibZvKzmvhYUgt0yrjYY00VAuebrFvSg45dvlRahk/NMV5o+a3vOu3eTIIglS5du37X98bMnKA4eXfv8i89lNR+1cmnn0gmCOHL8SHvfC7SYDz9VrPmE4uFPP/v0k08+6Ra8+7YMTgjGwkKAie9LOH1Ix1Ir4fShokdFxy+m6NnoRh2PYtJMpWcy4/P52gbbtdeyz+SfQdl2D/cY2htsDPW+fr/gTP4Zo3WGsmdqwFktTLpAneMw4V5jdyPHSmdHTMC9qnuXiy+buazw2bMRNyr4UJCJk3E2L6uk+l7woSBtC3ZFfQV6qjghzgEZsJ6PBojG3zLh3kthFz6B+VLR5Rvlhei2oavx9LXTzX0t+Cn+zZ1K81HxPJgef6O8UHpubmuNnrUuXi6l9EzmXrJP24Jd+eMcMTVDBXY2Lys+PU5uBLma737tg8n10CZOxugDu2NvxUGHgqw3Wzd0NRqvW3bjwXW5WUHgdBFQrvlGfxgrKL5uY2/zySefEATx33/477xC6dttdUONi7vLP//zPxME8cWXXwSHhaBBO1SDTz/7FGm+xs4mgiCsbN8deIvrt3tPEEEQeYV54dHhBEH4+m3BjxRrvsjYSIIgbB3e7znHCcFYWAgw8X2vvn+dcTXDZrO1no3uWm+LY1nH0G5/8cT46A+jr/9Ov/CojNJvr2HNJz3H+1DQSlcznHNVSxX64tYqD/O41AN4CBDDC5oPQ7FADSbcE0+MP6p/5LHb3dDeYIXz8siUfdR1n8PfjRzKOLjGcxXHhuO03fF25W0qFAoSUqNNThOD5qMBovG3DLmHlJl/tJ+eje6xrGMIlm+fP7L1tVnpYnos61gv2UfFiqr5Lt7M9gz2oD5Ftn+0H3q5TTp/xC3QlRpB8Thfel7GKg9zPExITTgDW67my7iaweayUrJT0FdAdsbuWO5ohD5rOTkibuJsjB7NoDhIQkVAieYbeyteYbYCTeD+5re/OZScQP7tJ9NqnYOdgaG70Xc1vvrFV1X11Sj3pZ8uRZpPJCG/+PKLJUuXGhgZGC03QpehseFnn3+2ZMmS+vb6L7784p/+6Z+eNr37bBF1btdtg5uuPkfPUP/Tzz791//zr5Of4Wvualn66dKPPvroweOffKGF2iSwFwoCzH2f3BY5b5du46Vd1ENH5aaCQEBAOqEf+f6UCgAEEJhPBJhw71LRZaftjhwrnb1HQtFJxbiGkyteSmtK3AJdDez0Dp9N5I8J0COq5iuqKDZzWVHf1dAr6ukhe9FV1/FsuaNRWV3ZwKuBZQ4GF29exHlSx/leDHW8FHY9bnrM5rLQx3B7yN5lDgbpeRnU+DOw2wbayp+VVzZWXi6+zOayBkeHqJnYbLZOz0tHH45b6WJq7WPV3NeCIzT1Nq90MU06fwSHgDEzBJRoPvHEeENH41rrtbk38kZ/mPK7kG297W4b3C5de/8xqyVL32k+8cR4Zs6F3//X73/2s59RF//9+6///UTGycbOpj/86Y9+O95/BFA8MX45P+fzLz7fvSco6XgSQRAff/zxb377m+QTyeKJ8b6RfgfndVu3b51ZayGVWiHAxPcpqHBzX0tdxzPaRT0mV0FaeLTIEZgl9xY5etD82SDAhHtnC86l5ab1kf0KCios5yVnJuP5Warmm9zkO3maKe2cF31bzu74wNG3Y+XPyp23O+FpDVTEwfR4tIjFI8hd24K9zMEAH0je0NXoH+1H+/6kgopN9aiivkLL4msdSy2z9Way20Ha/rFP7vjFlLMF52QXbdd3NaBp36nyh3AmCCjXfExykY3T3veic5D+BWXZaNLV0K/5I2+m94kFzHK5GULgQkGAie9bKG2Bei4sBIB7C6u/NKm2c8Q98vtX1KNVFCOG18AojgZPNQ+BudJ8mocUtOiDIzBHvu+D1xMy1DwEgHua16cLpUXAvYXSUxpZT9B8GngOxUJhKvi+hdJTmldP4J7m9elCaRFwb6H0lEbWEzQfaD6VIQC+TyN9yoJoFHBvQXSTRlYSuKeR3bpQGgWaT2WKZ6FQZO7qCb5v7rCFnBUjANxTjA88nTsEgHtzhy3krBQB0Hyg+VSGAPg+pX+fEGGOEADuzRGwkK1SBIB7SiGCCHOHAGg+lSmeuevUhZIz+L6F0lOaV0/gnub16UJpEXBvofSURtYTNB9oPpUhAL5PI33KgmgUcG9BdJNGVhK4p5HdulAaJdV88A8QAAQAAUAAEAAEAAFAQLMRkGo+UkLCBQjMPwLAvfnHHEpECAD3gAmqQgC4pyrkoVxSQoLmA72rMgTA94EPUhUCwD1VIQ/lAveAAypEADSfyhSPCntdTYoG36cmHbEIqwHcW4SdriZNBu6pSUcszmqA5gPNpzIEwPctTqejDq0G7qlDLyzOOgD3Fme/q0mrQfOpTPGoCQNUWA3wfSoEf5EXDdxb5ARQYfOBeyoEH4oGzQeaT2UIgO8DB6QqBIB7qkIeyp0W98xcVlQ2VNJAc/Rfl19yjRaIblOyjpXWlFIfbdu39WlrDTXkg9ghCcF3Km9/kKwgk/lEADSfyhTPfHazepY1Ld+nnk2AWi1QBIB7C7TjNKDa0+KeoZ1+ZUMFrdXWPla5d3JpgaSEbOlt0bHUetpa0yfqezHwAkVY5f7Nw2cPZSNHH49ic1mKr/aBdtmEKGTv4T3+0X5ynwrFwpqWGobXyHfDI98NK64Gfnq+4JzcEiGQOQKg+UDzqQwBhr4vq/CC1ca1HGsdax+rizezGZI7KiUSewpkhCYGkxKyqaeJzWVVt1STEvLwmQQ2l1X/sn5yB/v+E9EB+7ejzCsbKjcEeRjaGaz2MI9LPTD0egiFhyYG0/JEt7XttdLcziaauazA1cu7ncvmsrqF3TgEDPVBgCH3Hj576LHbHTEh5sT+gVcDuAlDr4fi0+K4G1Yb2umv3+FSWl2CH5ESUkFCUkJevJlt62utb8ux8bG6cCNT9EZETQu2ZiPAhHunr2bIdTW0QBMnYypW+09E+4RtIiXk+YJzXsGe6JECzbcjJuB553N0BR/cvW3fVnxb2VDJ5rKomo8/ym8faMdX3u1cEyfj5p5mHIL/OtoH2mn1VHDbI+xGmu/u47utva3X7l3NvZPb2tsqe9lutgbNR+3umdmg+VSmeGbWYZqUionvy70jVU5RKZH5pfkRyeFsLivvtpwXXFlYnrbW8Mp5aVdS2VzW0QvJvHJeVdMTUkIKxUJtC3bRoyJSQu6OD1y+zujek3ukhNwe7X8gNZaUkB2DHcvsDTYEeeTevnLq8sll9gYRSWEo/6qmJ7xyHq+ct/fwHjaXhWxeOa//VT9oPtkuUOcQJtx71vGMY63jH7Wt6FFRVuGFFc7L/aO24UYFHwpavs7ofMG54kfFgXG7dCy1njQ9Rk8VJ8ziZWlbsGNPxuSXXENvJvBLhlFdDAYT7vW/6keiR9+Wwyvn0QSQhRc3Iy+jtbe1ra8VI9Yj7Na35ZQ8kb57yGq+pu7GSf/mF/mewNHHo8KPvPNspISMPh4VdGg3zq1P1EfTfDcf3lQg3dhc1umrGTi5YqO1t5XNZbX2vqs80nx17XWkhNx1YGdUivwzg9dts4e/FMXAMnkKmg80n8oQYOL7NoZ6oTdXxGav4A2euz2YMBvFedz4mM1lIT+IU610Nc3iZZEScv0OF4/d7mjscH2AM/JZGXkZBrZ6SMaREjI1J1XHUksoFuLkpITMyJO+hVNDQPPR0FDzWybciz0Vw92wZnh8GLUlvzRf+kPV10JKyF5RL5vLulx0CT0aeTNi62u9JzEU3SpISEpIq41r9ySGYHz8o/2sfazwLRgajwAT7mEQmM/tRiSFcax1UEKs+Ua+GzZbb2rra61l8fUaz1VWG9finGeg+WjDijgrUkK6B7rNWPORErK1txX5WBsfq9Sc1MHXg7RLKBZ2DHZgt0wtGuxpIQCaT2WKZ1r9pJGRmfg+z90euw7sxM3vFfV28jvxrVJDruZbH+CcnJlESkhTF5P49Ljk81Lb3G0lr6wQTfLaUH6Dix8Vs7mspu5Galmg+ahoLESbCfe2hvvuiAnArWvpbWFzWaVV0nEUxCs0MoEihCYGuwe6IVtBQtEb0fGLKdRV+cnnk/RsdHEpYGg8Aky4h0EwtNOXO7pGW893p/I2m8vi/INI5wvOrdtmf/RCsrnbSjaXFXxwd1173e2KYqtNljjn6a7nu/nw5rQ0X3JmkmzNBWMCpPCo43y4SvxRvvZatmwqNt4XsYoAAAm9SURBVJeVdiUVRwNjNgiA5gPNpzIEmPi+49kpHCudy0WX+aP8GRBdrubbERMQkRw+9Hpomb1B7p3cPYkhI98Na69lo7m5fckRtr7WuCzkTJ93PMMhCsb5TF1MekW96MoqvADr+aigqZXNhHs+YZuo7xtt/W2TP6tor2JF/SM2l0VlRdiRvS4BzqiNChLKguAb7uPo5yAbDiGaigAT7uG2G9rpl9aU0ga9rDaupWq++pf1xg7L/CK3Ic1XWl3isdt9UlSt22afxcsyc1mB9nAUPbpl52uDc44+HrUzNqCpuxFdkxO7fpFb8W1VcxVtbpdXzpuu5vPZuxEvELz7+C6by1Ks+SobKnSttPH6aVxVMD4gAqD5VKZ4PmAvLtCsmPg+/ih/Z2wAm8vSs9HdGu473dMB5Gq+uNQDWyO21LXX2W+1La8t8w7xQouO0X6L2Wg+2TdU2MOhnuRkwj0k3fpf9a/yMD+YHi9X86XmpH7jZtba1yKr+eQmpKFx78k9NpeVU3SZFg63GowAE+7h5jOZ261te+oXufXR8285NrqlVSVou5v7LleUCd7DwSsrpL5d7DsasS85AhekdD1fQWmBiZMx3rFBM1wCnGhzu8mZSdRh8qbuRqWaL+1KqpO/Y4+wW8410oOrCsZsEADNB5pPZQgw93117XUnLh133u7I5rKyCi8wZ7xczZeRl+Hov+7Wtzf9Ire19Las9eZWNlTo23JQtrPRfMvXGd2vuY8utCkYNB/zzprPmEy4hzSfQCzwDffJvH5erua7du/qpj3e3cJuWc0nNyG1jc87n5s4GvtFboV9u1RYNN5mwj0MAsO53eHx4cqGCo6N7sibkW5hN17PR0pIrPny7uZhIUhKyD2JobGnYnBBSjVf7u0rsu+01JDZa74tEZupGVJtWPOKe2qWBmg+lSmeWfacBiSflu9D7Q1JCDZxNB757t2yeqUgyNV8hQ9umK03PXP1dMyJ/cPjw/q2nBsPruOVLrPRfHBWi9IeUZMITLinYIp29nO77QPtqz3N1wc4D74eVBNMoBrzgwAT7uGaGNrpl9U+EIwJqBdtbhdFRpoP2XTNV1dOSsijmcnUjef+0X5UUSXXpp7VkpaTSpWMuIbIkN3DMYNxPlqe+DY1J9U71AvfgjEbBEDzgeZTGQJKfZ9gTJB3O7e5pxlTHO2ooJ5QgB/JNeRqvseNj7Ut2NHHozLypIcLmLutPHwmwWfvRpRD9PEoOXs4epqo+cMeDioaC9FWyj1SQsrdioFO9kG8ou3hcNu5HkGhICGK0DPSY+drY+tr3T0MxzeqzP+oirdMuIfrxmRuF0VWoPl45TxtCzbHSqfwwQ2cs/N2x/TcNLyAT+l6vqiUfdS5YJwPMvpEfbQl19Paw9Ej7O7kd8q9hGJh7KmY4ENBtBLhdmYIgOZbdB5nZkSZi1RKfZ/ojcjQTj8+PQ6XfvLSCR1LLYFYuvmLySVX83XyO9lclutOF145D53Y4h3qhY+qyshNN7DVw+eLpsFZLcygZtId6hNHKfdICRl7MsbCi4sHlQtKC9hcVkNXA+Wslnfr8ERvRHa+NkHxgaiBChKSEpI/ynff5crdsBp/KUF9YIGazAMCTLi3yv0buQNvsoHoqFFSQirQfJMnhPcIu4fHh0fejKAGjrwZMXIwnFwIiNurdG53/Q6Xc/lncXylRnJmEnUPB9rMgZYx0M7nm9zJu26bvWzTUEhlQ8X2aP/E0wlKS4QITBAAzcdIOjCBEuJMFwEmvi8+LU7HUis+LY5XVnj0QrKeje6+o+/XHSsocaozmUkJKXoj4tjoGjkYoq9x7IzdsdzJ6FjWUZTbi4EXhnYG3iFeV+/mpeemGTkYhh3ZSysIxvlogCy4Wybcq3tRx7HS2R7tX/yoOPtmlqmLyUbKBFNQfKCJo3Hm9fO3K4qD4gO1LdjltWUIB8UJd8QEaFuw03PT8JnevHIezPAuOArNuMJMuNfW34bPYc7iZeWX5qPbuva6tCup9S/r8VM8ujaV5qPWMy71QH5p/o8CsZJjrYPPnlR6JvNL/kttC/bDH+eIqRkqsDOvn0en3MvGkdV8snGoIba+1vgsTGo42DNAADQfaD6VIcDE9wnFwrScVBsfKz0bXQsvbvL5JLTbf3LqbeS74eFx+oVHZab69hr6I1nrzWVzWb2iXlJCxqfH0fZOVjZUoC9urfIwjz0ZI/t7DJpvBr5GrZIw4R4pIctqH7jvcjW0MzBxMo5IDkeEQQ0ZfD0Ynxa32tOcY6Pr6L/u5kPpmDG+FCRc7WkuO6TR2PWTAyBxPmBoHgIMuYeUmV/kNj0bXXSGKCkhHzx9YLvZ2sxlRfL5pJf8l1RwqJrvwo1Mj93u1KfI9ovclp6bhj476brThRpB8Thfak7qKg9zPExITTgDe1qab+DVgI6lluxHh2dQLiSZPIAWNN97Nw2EmGcEmPs+uRVz8pdu46VdeCuG3CQQCAggBGbJPYAREJgxAky4l8XLcvRfx7HSCU0MRp9+wcVNTlPcqbztutPFwFbvUMbBPlEfekTVfLxynqmLSW17bedQB14kV91SvXydUWlVSY+we5m9wYUbmThP6jhfS29LW3/bt8+/ZXNZPT9+LryT37nM3iA1Z7anIjd1N5ZWlzx89jD7ZpY0c4XHr0i/ukH2C8YE6blphnYGtC8hUWsO9rQQAM0Hmk9lCDDxfQrYXP+yvrqlmnZRj8lVkBYeLXIEZsm9RY4eNH82CDDhXkZexqnLJ7sEXQoKKigtOHL2MJ6fpWo+wZhga7gv7ZwXfVvOrgM7R96MlFaXOPk74gkTVERc6gG0iMU90E3bgr3M3gAfSD65V8kvctvsVVd5bZmWxdc6llpm600VbAdB9Qk7she9z3NsdKe1jlABYvAIxvlUJneAfKSEZOL7AChAYC4QAO7NBaqQJxME5oh7ArGAerSK4prgNTCKo6n2qUAs4I/yP9SEsmrboj6lwzgfyD6VITBHvk99/rqgJmqLAHBPbbtG4ysG3NP4LlbbBnp6e4LmU5niUVtazFvFwPfNG9RQEA0B4B4NELidNwSAe/MGNRRERcDT2/OH//cDaD7QfCpDAHwf9Q8S7PlEALg3n2hDWVQEgHtUNMCeHwSQ4IP1fCqTO/PTzWpeCvg+Ne8gDa4ecE+DO1fNmwbcU/MO0rzqYcEHmg80nyoRAN+nec5lobQIuLdQekrz6gnc07w+VecWUQUfrOdTpeJRZ5bMT93A980PzlCKLALAPVlMIGR+EADuzQ/OUMrkVyJpgg/W84HmUyUC4PvAK6kKAeCeqpCHcoF7wIH5QUBW8JES8v8D2j7zWah8ugcAAAAASUVORK5CYII=;" vertex="1" parent="1">
          <mxGeometry x="850" y="507" width="610.47" height="151" as="geometry" />
        </mxCell>
        <mxCell id="Rfl5-FTgtZp-7Mx7iqGK-199" value="" style="shape=table;startSize=0;container=1;collapsible=0;childLayout=tableLayout;fixedRows=1;rowLines=0;fontStyle=0;strokeColor=#6c8ebf;fontSize=16;spacing=4;spacingTop=0;spacingLeft=0;spacingBottom=0;strokeWidth=2;fillColor=default;swimlaneFillColor=none;" vertex="1" parent="1">
          <mxGeometry x="85.00000000000023" y="802" width="695" height="101" as="geometry" />
        </mxCell>
        <mxCell id="Rfl5-FTgtZp-7Mx7iqGK-200" value="" style="shape=tableRow;horizontal=0;startSize=0;swimlaneHead=0;swimlaneBody=0;top=0;left=0;bottom=0;right=0;collapsible=0;dropTarget=0;fillColor=default;points=[[0,0.5],[1,0.5]];portConstraint=eastwest;strokeColor=inherit;fontSize=16;spacing=4;spacingTop=0;spacingLeft=0;spacingBottom=0;swimlaneFillColor=none;" vertex="1" parent="Rfl5-FTgtZp-7Mx7iqGK-199">
          <mxGeometry width="695" height="51" as="geometry" />
        </mxCell>
        <mxCell id="Rfl5-FTgtZp-7Mx7iqGK-201" value="普通内核符号" style="shape=partialRectangle;html=1;whiteSpace=wrap;connectable=0;fillColor=#ffe6cc;top=0;left=0;bottom=0;right=0;overflow=hidden;strokeColor=#d79b00;fontSize=16;fontStyle=1;align=left;spacing=4;spacingTop=0;spacingLeft=0;spacingBottom=0;swimlaneFillColor=none;" vertex="1" parent="Rfl5-FTgtZp-7Mx7iqGK-200">
          <mxGeometry width="175" height="51" as="geometry">
            <mxRectangle width="175" height="51" as="alternateBounds" />
          </mxGeometry>
        </mxCell>
        <mxCell id="Rfl5-FTgtZp-7Mx7iqGK-202" value="&lt;div&gt;#define &lt;b&gt;EXPORT_SYMBOL&lt;/b&gt;(sym)&lt;span style=&quot;white-space:pre&quot;&gt;&#x9;&#x9;&#x9;&#x9;&#x9;&lt;/span&gt;\&lt;/div&gt;&lt;div&gt;&lt;span style=&quot;white-space: normal;&quot;&gt;&lt;span style=&quot;white-space:pre&quot;&gt;&#x9;&lt;/span&gt;__EXPORT_SYMBOL(sym, &quot;&quot;)&lt;/span&gt;&lt;/div&gt;" style="shape=partialRectangle;html=1;whiteSpace=wrap;connectable=0;fillColor=#ffe6cc;top=0;left=0;bottom=0;right=0;align=left;spacingLeft=0;overflow=hidden;strokeColor=#d79b00;fontSize=16;spacing=4;spacingTop=0;spacingBottom=0;strokeWidth=1;swimlaneFillColor=none;" vertex="1" parent="Rfl5-FTgtZp-7Mx7iqGK-200">
          <mxGeometry x="175" width="520" height="51" as="geometry">
            <mxRectangle width="520" height="51" as="alternateBounds" />
          </mxGeometry>
        </mxCell>
        <mxCell id="Rfl5-FTgtZp-7Mx7iqGK-203" value="" style="shape=tableRow;horizontal=0;startSize=0;swimlaneHead=0;swimlaneBody=0;top=0;left=0;bottom=0;right=0;collapsible=0;dropTarget=0;fillColor=default;points=[[0,0.5],[1,0.5]];portConstraint=eastwest;strokeColor=inherit;fontSize=16;spacing=4;spacingTop=0;spacingLeft=0;spacingBottom=0;swimlaneFillColor=none;" vertex="1" parent="Rfl5-FTgtZp-7Mx7iqGK-199">
          <mxGeometry y="51" width="695" height="50" as="geometry" />
        </mxCell>
        <mxCell id="Rfl5-FTgtZp-7Mx7iqGK-204" value="GPL许可证限制的&lt;div&gt;符号&lt;/div&gt;" style="shape=partialRectangle;html=1;whiteSpace=wrap;connectable=0;fillColor=default;top=0;left=0;bottom=0;right=0;overflow=hidden;strokeColor=#d6b656;fontSize=16;fontStyle=1;align=left;spacing=4;spacingTop=0;spacingLeft=0;spacingBottom=0;swimlaneFillColor=none;" vertex="1" parent="Rfl5-FTgtZp-7Mx7iqGK-203">
          <mxGeometry width="175" height="50" as="geometry">
            <mxRectangle width="175" height="50" as="alternateBounds" />
          </mxGeometry>
        </mxCell>
        <mxCell id="Rfl5-FTgtZp-7Mx7iqGK-205" value="&lt;div&gt;#define &lt;b&gt;EXPORT_SYMBOL_GPL&lt;/b&gt;(sym)&amp;nbsp; &amp;nbsp; &amp;nbsp; &amp;nbsp; &amp;nbsp; &amp;nbsp; &amp;nbsp; &amp;nbsp; &amp;nbsp; &amp;nbsp; \&lt;/div&gt;&lt;div&gt;&amp;nbsp; &amp;nbsp; __EXPORT_SYMBOL(sym, &quot;_gpl&quot;)&lt;/div&gt;" style="shape=partialRectangle;html=1;whiteSpace=wrap;connectable=0;fillColor=default;top=0;left=0;bottom=0;right=0;align=left;spacingLeft=0;overflow=hidden;strokeColor=#d6b656;fontSize=16;spacing=4;spacingTop=0;spacingBottom=0;strokeWidth=1;swimlaneFillColor=none;" vertex="1" parent="Rfl5-FTgtZp-7Mx7iqGK-203">
          <mxGeometry x="175" width="520" height="50" as="geometry">
            <mxRectangle width="520" height="50" as="alternateBounds" />
          </mxGeometry>
        </mxCell>
        <mxCell id="Rfl5-FTgtZp-7Mx7iqGK-206" value="&lt;h1&gt;&lt;span style=&quot;font-size: 18px; background-color: transparent; color: light-dark(rgb(0, 0, 0), rgb(255, 255, 255)); font-weight: normal;&quot;&gt;符号导出相关宏定义&lt;/span&gt;&lt;/h1&gt;" style="rounded=0;whiteSpace=wrap;html=1;fontSize=16;fillColor=#f8cecc;strokeColor=#b85450;strokeWidth=2;align=center;" vertex="1" parent="1">
          <mxGeometry x="85" y="760" width="695" height="42" as="geometry" />
        </mxCell>
        <mxCell id="Rfl5-FTgtZp-7Mx7iqGK-207" value="&lt;font color=&quot;#ff0000&quot;&gt;&lt;span style=&quot;font-size: 18px;&quot;&gt;EXPORT_SYMBOL&lt;/span&gt;&lt;/font&gt;" style="swimlane;fontStyle=1;align=center;verticalAlign=top;childLayout=stackLayout;horizontal=1;startSize=30;horizontalStack=0;resizeParent=1;resizeParentMax=0;resizeLast=0;collapsible=1;marginBottom=0;whiteSpace=wrap;html=1;fillColor=#ffe6cc;strokeColor=#d79b00;" vertex="1" parent="1">
          <mxGeometry x="170" y="923" width="480" height="60" as="geometry" />
        </mxCell>
        <mxCell id="Rfl5-FTgtZp-7Mx7iqGK-208" value="&lt;b&gt;sym：&lt;/b&gt;要导出的符号（函数或变量）" style="text;strokeColor=none;fillColor=none;align=left;verticalAlign=top;spacingLeft=4;spacingRight=4;overflow=hidden;rotatable=0;points=[[0,0.5],[1,0.5]];portConstraint=eastwest;whiteSpace=wrap;html=1;fontSize=16;" vertex="1" parent="Rfl5-FTgtZp-7Mx7iqGK-207">
          <mxGeometry y="30" width="480" height="30" as="geometry" />
        </mxCell>
        <mxCell id="Rfl5-FTgtZp-7Mx7iqGK-211" style="edgeStyle=orthogonalEdgeStyle;rounded=0;orthogonalLoop=1;jettySize=auto;html=1;entryX=0;entryY=0.25;entryDx=0;entryDy=0;fillColor=#ffe6cc;strokeColor=#d79b00;strokeWidth=2;" edge="1" parent="1" source="Rfl5-FTgtZp-7Mx7iqGK-200" target="Rfl5-FTgtZp-7Mx7iqGK-207">
          <mxGeometry relative="1" as="geometry" />
        </mxCell>
        <mxCell id="Rfl5-FTgtZp-7Mx7iqGK-212" value="" style="shape=table;startSize=0;container=1;collapsible=0;childLayout=tableLayout;fixedRows=1;rowLines=0;fontStyle=0;strokeColor=default;fontSize=14;" vertex="1" parent="1">
          <mxGeometry x="850" y="849" width="471.46" height="90" as="geometry" />
        </mxCell>
        <mxCell id="Rfl5-FTgtZp-7Mx7iqGK-213" value="" style="shape=tableRow;horizontal=0;startSize=0;swimlaneHead=0;swimlaneBody=0;top=0;left=0;bottom=0;right=0;collapsible=0;dropTarget=0;fillColor=none;points=[[0,0.5],[1,0.5]];portConstraint=eastwest;strokeColor=inherit;fontSize=14;" vertex="1" parent="Rfl5-FTgtZp-7Mx7iqGK-212">
          <mxGeometry width="471.46" height="30" as="geometry" />
        </mxCell>
        <mxCell id="Rfl5-FTgtZp-7Mx7iqGK-214" value="&lt;b&gt;运行时的内核符号表&lt;/b&gt;" style="shape=partialRectangle;html=1;whiteSpace=wrap;connectable=0;fillColor=#d5e8d4;top=0;left=0;bottom=0;right=0;overflow=hidden;pointerEvents=1;strokeColor=#82b366;fontSize=14;" vertex="1" parent="Rfl5-FTgtZp-7Mx7iqGK-213">
          <mxGeometry width="132" height="30" as="geometry">
            <mxRectangle width="132" height="30" as="alternateBounds" />
          </mxGeometry>
        </mxCell>
        <mxCell id="Rfl5-FTgtZp-7Mx7iqGK-215" value="&lt;b&gt;/proc/kallsyms&lt;/b&gt;" style="shape=partialRectangle;html=1;whiteSpace=wrap;connectable=0;fillColor=#d5e8d4;top=0;left=0;bottom=0;right=0;align=left;spacingLeft=6;overflow=hidden;strokeColor=#82b366;fontSize=14;" vertex="1" parent="Rfl5-FTgtZp-7Mx7iqGK-213">
          <mxGeometry x="132" width="339" height="30" as="geometry">
            <mxRectangle width="339" height="30" as="alternateBounds" />
          </mxGeometry>
        </mxCell>
        <mxCell id="Rfl5-FTgtZp-7Mx7iqGK-216" value="" style="shape=tableRow;horizontal=0;startSize=0;swimlaneHead=0;swimlaneBody=0;top=0;left=0;bottom=0;right=0;collapsible=0;dropTarget=0;fillColor=none;points=[[0,0.5],[1,0.5]];portConstraint=eastwest;strokeColor=inherit;fontSize=14;" vertex="1" parent="Rfl5-FTgtZp-7Mx7iqGK-212">
          <mxGeometry y="30" width="471.46" height="30" as="geometry" />
        </mxCell>
        <mxCell id="Rfl5-FTgtZp-7Mx7iqGK-217" value="&lt;b&gt;编译时的符号表&lt;/b&gt;" style="shape=partialRectangle;html=1;whiteSpace=wrap;connectable=0;fillColor=#d5e8d4;top=0;left=0;bottom=0;right=0;overflow=hidden;strokeColor=#82b366;fontSize=14;" vertex="1" parent="Rfl5-FTgtZp-7Mx7iqGK-216">
          <mxGeometry width="132" height="30" as="geometry">
            <mxRectangle width="132" height="30" as="alternateBounds" />
          </mxGeometry>
        </mxCell>
        <mxCell id="Rfl5-FTgtZp-7Mx7iqGK-218" value="&lt;b&gt;/lib/modules/&amp;lt;version&amp;gt;/build/Module.symvers&lt;/b&gt;" style="shape=partialRectangle;html=1;whiteSpace=wrap;connectable=0;fillColor=#d5e8d4;top=0;left=0;bottom=0;right=0;align=left;spacingLeft=6;overflow=hidden;strokeColor=#82b366;fontSize=14;" vertex="1" parent="Rfl5-FTgtZp-7Mx7iqGK-216">
          <mxGeometry x="132" width="339" height="30" as="geometry">
            <mxRectangle width="339" height="30" as="alternateBounds" />
          </mxGeometry>
        </mxCell>
        <mxCell id="Rfl5-FTgtZp-7Mx7iqGK-219" value="" style="shape=tableRow;horizontal=0;startSize=0;swimlaneHead=0;swimlaneBody=0;top=0;left=0;bottom=0;right=0;collapsible=0;dropTarget=0;fillColor=none;points=[[0,0.5],[1,0.5]];portConstraint=eastwest;strokeColor=inherit;fontSize=14;" vertex="1" parent="Rfl5-FTgtZp-7Mx7iqGK-212">
          <mxGeometry y="60" width="471.46" height="30" as="geometry" />
        </mxCell>
        <mxCell id="Rfl5-FTgtZp-7Mx7iqGK-220" value="&lt;b&gt;静态符号表&lt;/b&gt;" style="shape=partialRectangle;html=1;whiteSpace=wrap;connectable=0;fillColor=#d5e8d4;top=0;left=0;bottom=0;right=0;overflow=hidden;strokeColor=#82b366;fontSize=14;" vertex="1" parent="Rfl5-FTgtZp-7Mx7iqGK-219">
          <mxGeometry width="132" height="30" as="geometry">
            <mxRectangle width="132" height="30" as="alternateBounds" />
          </mxGeometry>
        </mxCell>
        <mxCell id="Rfl5-FTgtZp-7Mx7iqGK-221" value="&lt;b&gt;/boot/System.map-&amp;lt;version&amp;gt;&lt;/b&gt;" style="shape=partialRectangle;html=1;whiteSpace=wrap;connectable=0;fillColor=#d5e8d4;top=0;left=0;bottom=0;right=0;align=left;spacingLeft=6;overflow=hidden;strokeColor=#82b366;fontSize=14;" vertex="1" parent="Rfl5-FTgtZp-7Mx7iqGK-219">
          <mxGeometry x="132" width="339" height="30" as="geometry">
            <mxRectangle width="339" height="30" as="alternateBounds" />
          </mxGeometry>
        </mxCell>
        <mxCell id="Rfl5-FTgtZp-7Mx7iqGK-231" value="&lt;h1&gt;&lt;font style=&quot;&quot;&gt;&lt;span style=&quot;font-size: 18px;&quot;&gt;内核符号表&lt;/span&gt;&lt;br&gt;&lt;font style=&quot;font-size: 15px; font-weight: normal;&quot;&gt;符号表是内核调试的重要工具。当系统崩溃产生Oops信息时，函数调用堆栈中显示的函数名就是通过这个文件解析得到的&lt;/font&gt;&lt;/font&gt;&lt;/h1&gt;" style="rounded=0;whiteSpace=wrap;html=1;" vertex="1" parent="1">
          <mxGeometry x="850" y="760" width="471.46" height="89" as="geometry" />
        </mxCell>
        <mxCell id="Rfl5-FTgtZp-7Mx7iqGK-232" value="&lt;font style=&quot;font-size: 30px;&quot;&gt;🌻Make By Dakkk&lt;/font&gt;" style="html=1;shadow=0;dashed=0;shape=mxgraph.bootstrap.rrect;rSize=5;strokeColor=#1CA5B8;strokeWidth=1;fillColor=none;fontColor=#1CA5B8;whiteSpace=wrap;align=center;verticalAlign=middle;spacingLeft=0;fontStyle=1;fontSize=16;spacing=5;" vertex="1" parent="1">
          <mxGeometry x="140" y="650" width="330" height="70.39" as="geometry" />
        </mxCell>
      </root>
    </mxGraphModel>
  </diagram>
</mxfile>
